<svg width="28" height="28" viewBox="0 0 28 28" fill="none" xmlns="http://www.w3.org/2000/svg">
<path d="M13.7056 0.263184C6.20328 0.263184 0.0996094 6.36685 0.0996094 13.8692C0.0996094 21.3716 6.20328 27.4753 13.7056 27.4753C21.208 27.4753 27.3117 21.3716 27.3117 13.8692C27.3117 6.36685 21.208 0.263184 13.7056 0.263184ZM13.7056 24.754C7.70402 24.754 2.82082 19.8708 2.82082 13.8692C2.82082 7.8676 7.70402 2.98439 13.7056 2.98439C19.7073 2.98439 24.5905 7.8676 24.5905 13.8692C24.5905 19.8708 19.7073 24.754 13.7056 24.754Z" fill="black"/>
<path d="M15.0659 7.06641H12.3447V14.4327L16.8252 18.9132L18.7491 16.9893L15.0659 13.3061V7.06641Z" fill="black"/>
</svg>
