<svg width="793" height="811" viewBox="0 0 793 811" fill="none" xmlns="http://www.w3.org/2000/svg">
<path d="M737.705 539.748C742.412 604.833 735.762 683.7 694.275 720.819C652.787 757.937 576.866 752.798 508.998 745.346C441.182 738.351 382.226 728.026 315.097 714.944C247.968 701.862 173.525 685.461 121.287 641.089C68.592 596.77 39.0659 524.833 49.4115 458.018C59.3533 391.712 109.675 330.933 143.352 266.059C176.572 201.238 193.549 131.812 236.389 90.379C279.229 48.9458 347.88 35.0485 409.325 46.9353C470.263 58.4185 523.539 95.7381 586.998 117.099C650.053 138.968 723.29 144.878 744.077 185.007C764.408 225.189 731.781 299.186 724.156 361.528C716.076 423.923 732.542 474.716 737.705 539.748Z" fill="#D789FC" fill-opacity="0.17"/>
<path d="M452.297 162.638H231.825V359.84H452.297V162.638Z" fill="#FAFAFA"/>
<path d="M452.297 359.84C452.297 359.84 452.297 358.565 452.191 356.228C452.191 353.784 452.191 350.277 452.085 345.709C452.085 336.465 451.978 322.865 451.978 305.652C451.872 271.226 451.872 221.926 451.766 162.744L452.297 163.275C388.759 163.063 313.002 163.169 231.825 163.169L232.463 162.531C232.463 234.251 232.463 301.827 232.357 359.734L231.825 359.203C297.595 359.309 352.633 359.415 391.309 359.415C410.647 359.521 425.841 359.521 436.253 359.521C441.459 359.521 445.391 359.521 448.153 359.628C449.535 359.628 450.491 359.628 451.235 359.628C451.872 359.84 452.297 359.84 452.297 359.84C452.297 359.84 451.978 359.84 451.341 359.84C450.597 359.84 449.641 359.84 448.366 359.84C445.71 359.84 441.672 359.84 436.572 359.946C426.159 359.946 410.965 360.053 391.734 360.053C353.058 360.159 297.808 360.159 231.932 360.265H231.4V359.734C231.4 301.827 231.4 234.251 231.294 162.531V162H231.932C313.002 162 388.759 162.106 452.297 162.106H452.828V162.638C452.722 222.032 452.616 271.333 452.616 305.864C452.51 323.077 452.51 336.571 452.51 345.815C452.51 350.384 452.51 353.89 452.403 356.334C452.297 358.671 452.297 359.84 452.297 359.84Z" fill="#E0E0E0"/>
<path d="M316.401 197.594C316.401 197.913 304.82 198.232 290.476 198.232C276.132 198.232 264.551 198.019 264.551 197.594C264.551 197.275 276.132 196.957 290.476 196.957C304.714 197.063 316.401 197.275 316.401 197.594Z" fill="#E0E0E0"/>
<path d="M409.797 212.47C409.797 212.788 377.921 213.107 338.608 213.107C299.295 213.107 267.42 212.895 267.42 212.47C267.42 212.151 299.295 211.832 338.608 211.832C377.921 211.832 409.797 212.151 409.797 212.47Z" fill="#E0E0E0"/>
<path d="M274.114 237.545H264.87V246.789H274.114V237.545Z" fill="#E0E0E0"/>
<path d="M297.064 237.545H287.82V246.789H297.064V237.545Z" fill="#E0E0E0"/>
<path d="M320.333 237.12H311.089V246.364H320.333V237.12Z" fill="#E0E0E0"/>
<path d="M342.752 237.545H333.508V246.789H342.752V237.545Z" fill="#E0E0E0"/>
<path d="M365.596 237.545H356.352V246.789H365.596V237.545Z" fill="#E0E0E0"/>
<path d="M388.44 237.545H379.196V246.789H388.44V237.545Z" fill="#E0E0E0"/>
<path d="M411.284 237.545H402.04V246.789H411.284V237.545Z" fill="#EBEBEB"/>
<path d="M274.114 257.308H264.87V266.551H274.114V257.308Z" fill="#EBEBEB"/>
<path d="M297.064 257.308H287.82V266.551H297.064V257.308Z" fill="#E0E0E0"/>
<path d="M319.908 257.308H310.664V266.551H319.908V257.308Z" fill="#EBEBEB"/>
<path d="M342.752 257.308H333.508V266.551H342.752V257.308Z" fill="#E0E0E0"/>
<path d="M365.596 257.308H356.352V266.551H365.596V257.308Z" fill="#E0E0E0"/>
<path d="M388.865 256.882H379.621V266.126H388.865V256.882Z" fill="#E0E0E0"/>
<path d="M411.284 257.308H402.04V266.551H411.284V257.308Z" fill="#E0E0E0"/>
<path d="M274.114 276.964H264.87V286.208H274.114V276.964Z" fill="#E0E0E0"/>
<path d="M297.489 276.539H288.245V285.782H297.489V276.539Z" fill="#E0E0E0"/>
<path d="M319.908 276.964H310.664V286.208H319.908V276.964Z" fill="#E0E0E0"/>
<path d="M342.752 276.964H333.508V286.208H342.752V276.964Z" fill="#EBEBEB"/>
<path d="M365.596 276.964H356.352V286.208H365.596V276.964Z" fill="#E0E0E0"/>
<path d="M388.44 276.964H379.196V286.208H388.44V276.964Z" fill="#E0E0E0"/>
<path d="M411.284 276.964H402.04V286.208H411.284V276.964Z" fill="#E0E0E0"/>
<path d="M274.114 296.727H264.87V305.97H274.114V296.727Z" fill="#E0E0E0"/>
<path d="M297.064 296.727H287.82V305.97H297.064V296.727Z" fill="#E0E0E0"/>
<path d="M319.908 296.727H310.664V305.97H319.908V296.727Z" fill="#E0E0E0"/>
<path d="M343.177 296.302H333.933V305.546H343.177V296.302Z" fill="#E0E0E0"/>
<path d="M365.596 296.727H356.352V305.97H365.596V296.727Z" fill="#E0E0E0"/>
<path d="M388.44 296.727H379.196V305.97H388.44V296.727Z" fill="#EBEBEB"/>
<path d="M411.284 296.727H402.04V305.97H411.284V296.727Z" fill="#E0E0E0"/>
<path d="M274.114 316.489H264.87V325.733H274.114V316.489Z" fill="#E0E0E0"/>
<path d="M297.064 316.489H287.82V325.733H297.064V316.489Z" fill="#EBEBEB"/>
<path d="M319.908 316.489H310.664V325.733H319.908V316.489Z" fill="#E0E0E0"/>
<path d="M342.752 316.489H333.508V325.733H342.752V316.489Z" fill="#E0E0E0"/>
<path d="M365.596 316.489H356.352V325.733H365.596V316.489Z" fill="#E0E0E0"/>
<path d="M388.865 316.064H379.621V325.308H388.865V316.064Z" fill="#E0E0E0"/>
<path d="M411.284 316.489H402.04V325.733H411.284V316.489Z" fill="#E0E0E0"/>
<path d="M646.418 427.735C656.194 422.635 667.775 421.997 678.719 423.804C684.563 424.76 690.725 426.566 694.657 430.923C698.694 435.279 699.438 443.035 694.869 446.86C692.107 449.092 688.388 449.41 684.775 449.41C676.275 449.304 666.819 447.816 659.912 452.917C655.981 455.892 653.431 460.673 648.756 462.16C644.187 463.542 639.087 460.885 636.643 456.742C634.2 452.598 634.2 447.498 635.262 442.823C635.368 442.929 636.537 432.835 646.418 427.735Z" fill="#ECCCFA"/>
<path d="M623.893 384.278C629.949 392.884 641.531 390.016 646.95 384.809C652.368 379.603 654.6 371.953 656.725 364.728C661.506 348.153 666.287 330.834 662.781 314.046C661.719 309.052 659.806 303.952 656.3 300.233C652.793 296.514 647.375 294.283 642.381 295.558C636.537 297.152 632.818 302.89 630.162 308.415C622.406 324.565 618.262 342.415 618.262 360.265C618.262 368.553 619.218 377.372 623.893 384.278Z" fill="#ECCCFA"/>
<path d="M607.424 396.603C613.906 388.847 615.181 377.584 612.312 367.915C609.443 358.246 602.855 349.959 595.312 343.265C586.493 335.402 576.08 329.24 564.817 325.308C560.461 323.715 555.786 322.546 551.111 322.971C546.436 323.396 541.761 325.84 539.636 329.877C536.448 336.04 539.53 343.371 542.823 349.427C548.667 360.053 555.361 370.253 562.799 379.922C568.749 387.678 575.655 395.328 584.793 398.728C593.93 402.234 603.387 401.809 608.274 395.434" fill="#ECCCFA"/>
<path d="M623.468 513.692C623.574 513.692 623.787 512.311 623.999 509.761C624.318 506.892 624.637 503.386 625.062 499.136C625.593 494.673 626.231 489.361 627.506 483.517C628.781 477.779 630.693 471.51 633.137 465.135C635.687 458.76 638.875 453.023 642.593 448.454C646.206 443.885 650.456 440.485 654.494 438.572C658.425 436.66 662.037 435.81 664.481 435.491C666.925 435.279 668.412 435.066 668.412 434.96C668.412 434.854 667.031 434.854 664.481 434.854C661.931 435.066 658.212 435.704 654.069 437.616C649.818 439.529 645.356 442.822 641.531 447.604C637.706 452.279 634.412 458.123 631.756 464.604C629.206 471.085 627.293 477.46 626.124 483.304C624.956 489.254 624.424 494.567 623.999 499.136C623.681 503.704 623.574 507.317 623.468 509.867C623.362 512.205 623.362 513.692 623.468 513.692Z" fill="#E9B6FF"/>
<path d="M624.212 505.511C624.318 505.511 624.318 504.873 624.318 503.705C624.318 502.323 624.318 500.623 624.318 498.498C624.318 494.036 624.318 487.554 624.531 479.479C624.956 463.435 626.337 446.223 628.993 421.785C631.543 398.941 634.943 372.272 638.449 354.953C639.193 351.021 639.937 347.515 640.681 344.328C641.425 341.246 641.956 338.484 642.487 336.359C643.018 334.34 643.337 332.64 643.656 331.365C643.868 330.196 643.975 329.559 643.975 329.559C643.868 329.559 643.656 330.09 643.337 331.259C642.912 332.534 642.487 334.234 641.85 336.252C641.212 338.377 640.468 341.034 639.725 344.115C638.875 347.196 638.025 350.703 637.174 354.634C633.668 370.359 629.843 392.247 627.187 416.685C624.531 441.123 623.362 463.329 623.256 479.373C623.149 487.448 623.362 493.93 623.574 498.392C623.681 500.517 623.787 502.217 623.893 503.598C624.106 504.873 624.212 505.511 624.212 505.511Z" fill="#E9B6FF"/>
<path d="M624.318 462.585C624.424 462.585 624.424 460.673 624.318 457.166C624.105 453.66 623.68 448.666 622.618 442.504C621.555 436.341 620.174 429.116 617.837 421.147C616.88 417.535 614.543 408.822 608.911 395.859C601.474 378.328 591.486 363.984 582.667 355.059C580.649 352.721 578.311 351.021 576.505 349.321C575.549 348.471 574.699 347.727 573.849 347.09C572.999 346.452 572.148 345.921 571.511 345.39C568.642 343.371 567.048 342.415 566.942 342.521C566.73 342.84 573.424 346.771 581.817 355.803C590.211 364.834 599.986 379.072 607.318 396.391C611.462 405.847 614.224 414.241 616.243 421.36C618.58 429.222 620.174 436.447 621.343 442.504C622.405 448.56 623.149 453.554 623.468 456.954C623.999 460.779 624.212 462.585 624.318 462.585Z" fill="#E9B6FF"/>
<path d="M582.986 538.236L587.236 596.993H662.781L667.031 538.236H582.986Z" fill="#E9B6FF"/>
<path d="M676.063 514.967H575.655V538.13H676.063V514.967Z" fill="#E9B6FF"/>
<path d="M575.655 594.762V601.137H580.33H674.469V594.762H575.655Z" fill="#EBEBEB"/>
<path d="M585.005 612.506L580.33 601.137H670.856L665.437 612.506H585.005Z" fill="#E9B6FF"/>
<path d="M665.65 557.468C665.65 557.468 665.544 557.68 665.331 557.999C665.013 558.424 664.694 558.849 664.163 559.487C663.1 560.868 661.613 562.78 659.806 565.118L659.594 565.33L659.381 565.118C656.619 561.293 652.9 556.193 648.544 550.136H649.181C645.994 554.705 642.381 559.805 638.556 565.224L638.237 565.649L637.812 565.224C633.881 560.549 629.631 555.449 625.168 550.243H625.912C625.7 550.561 625.487 550.774 625.168 551.093C621.237 555.98 617.412 560.762 613.906 565.224L613.481 565.649L613.162 565.118C609.337 559.699 605.724 554.599 602.537 550.03H603.174C597.968 555.98 593.505 561.08 590.105 565.012L589.893 565.224L589.68 564.905C587.98 562.037 586.599 559.699 585.537 557.999C585.112 557.255 584.793 556.618 584.474 556.193C584.262 555.768 584.155 555.555 584.155 555.555C584.155 555.555 584.368 555.768 584.58 556.087C584.899 556.512 585.324 557.149 585.749 557.893C586.812 559.593 588.193 561.824 590.105 564.693H589.68C593.08 560.762 597.437 555.662 602.537 549.605L602.855 549.18L603.174 549.605C606.468 554.174 610.081 559.168 613.906 564.587H613.162C616.774 560.124 620.493 555.343 624.425 550.455C624.637 550.136 624.85 549.818 625.168 549.605L625.487 549.18L625.806 549.605C630.268 554.918 634.518 560.018 638.343 564.693H637.6C641.531 559.274 645.144 554.174 648.331 549.711L648.65 549.286L648.969 549.711C653.219 555.768 656.831 560.974 659.594 564.799H659.169C661.081 562.462 662.675 560.655 663.738 559.274C664.269 558.743 664.588 558.212 665.013 557.893C665.544 557.574 665.65 557.362 665.65 557.468Z" fill="#F5F5F5"/>
<path d="M668.094 537.811C668.094 538.024 649.181 538.236 625.806 538.236C602.43 538.236 583.518 538.024 583.518 537.811C583.518 537.599 602.43 537.386 625.806 537.386C649.181 537.386 668.094 537.599 668.094 537.811Z" fill="#F5F5F5"/>
<path d="M671.919 601.775C671.919 601.987 651.306 602.2 626.018 602.2C600.624 602.2 580.118 601.987 580.118 601.775C580.118 601.562 600.73 601.35 626.018 601.35C651.412 601.35 671.919 601.562 671.919 601.775Z" fill="#F5F5F5"/>
<path d="M399.49 378.646L390.99 383.215L372.183 397.665C372.183 397.665 314.595 405.316 312.364 407.016C310.133 408.716 281.445 422.316 277.62 440.591C273.688 458.76 265.719 577.974 265.719 577.974L276.132 613.143L485.979 613.462L535.173 612.718C535.173 612.718 554.086 568.518 554.086 556.405C554.086 544.186 548.561 452.916 548.561 452.916L489.591 411.266L399.49 378.646Z" fill="#B489C9"/>
<path d="M371.652 396.815C371.652 396.815 371.546 397.028 371.333 397.347C371.121 397.665 370.802 398.197 370.377 398.728C369.527 399.897 368.464 401.597 367.083 403.722C366.446 404.784 365.702 405.953 365.064 407.334C364.321 408.609 363.683 410.097 362.939 411.584C361.558 414.666 360.283 418.066 359.114 421.785C356.883 429.222 355.714 436.128 354.971 441.122C354.652 443.566 354.333 445.585 354.121 447.072C354.014 447.71 353.908 448.241 353.908 448.666C353.802 448.985 353.802 449.197 353.802 449.197C353.802 449.197 353.802 448.985 353.802 448.666C353.802 448.241 353.908 447.71 353.908 447.072C354.014 445.691 354.227 443.566 354.546 441.122C355.183 436.128 356.352 429.116 358.583 421.678C359.752 417.959 361.027 414.559 362.514 411.478C363.258 409.991 363.896 408.503 364.639 407.228C365.277 405.847 366.127 404.678 366.764 403.616C368.146 401.49 369.314 399.79 370.164 398.622C370.589 398.09 370.908 397.665 371.121 397.347C371.439 397.028 371.652 396.815 371.652 396.815Z" fill="#263238"/>
<g opacity="0.3">
<g opacity="0.3">
<path opacity="0.3" d="M372.927 431.879C372.608 430.71 372.077 429.541 371.015 429.01C370.165 428.691 370.483 429.222 369.633 429.541C361.665 432.835 357.839 440.166 354.439 448.454L354.652 448.241C354.121 449.516 354.652 451.323 355.927 452.066C357.733 453.129 360.071 452.598 361.877 451.641C363.683 450.685 365.383 449.41 367.402 448.879C371.758 447.71 376.115 450.791 379.196 454.085C382.277 457.379 385.04 461.31 389.29 462.904C382.065 453.66 376.433 443.141 372.927 431.879Z" fill="black"/>
</g>
</g>
<path d="M353.908 449.197C353.908 449.197 354.864 446.647 357.308 442.397C358.583 440.272 360.177 437.829 362.408 435.172C363.577 433.897 364.852 432.516 366.34 431.347C367.933 430.178 369.74 429.01 371.971 428.691H372.183L372.29 428.903C373.671 432.41 375.052 436.128 376.646 440.166C378.24 444.204 380.152 448.347 382.596 452.491C385.04 456.635 388.121 460.673 391.734 464.285C395.346 468.004 399.596 471.298 404.271 474.166C405.759 475.123 407.246 476.079 408.84 476.929C410.434 477.779 411.921 478.523 413.409 479.373H413.09C415.747 477.567 418.297 475.76 420.74 474.06C422.015 473.21 423.184 472.36 424.459 471.51C425.734 470.66 426.903 469.81 428.072 468.96C432.64 465.454 436.572 461.523 439.972 457.804C444.647 454.191 448.366 450.047 450.916 445.904C453.466 441.76 454.953 437.829 455.803 434.428C456.653 431.028 456.972 428.372 457.078 426.46C457.185 425.503 457.078 424.866 457.185 424.335C457.185 423.803 457.185 423.591 457.185 423.591C457.185 423.591 457.185 423.803 457.185 424.335C457.185 424.866 457.185 425.503 457.185 426.46C457.078 428.266 456.866 431.028 456.016 434.428C455.166 437.829 453.678 441.866 451.128 446.01C448.578 450.154 444.966 454.404 440.184 458.123C436.784 461.948 432.853 465.773 428.284 469.385C427.115 470.341 425.947 471.191 424.672 471.935C423.397 472.785 422.228 473.635 420.953 474.485C418.403 476.185 415.853 477.992 413.303 479.798L413.196 479.904L413.09 479.798C411.603 478.948 410.009 478.204 408.415 477.354C406.821 476.504 405.334 475.548 403.846 474.592C399.171 471.616 394.921 468.323 391.202 464.604C387.484 460.885 384.402 456.848 381.959 452.704C379.515 448.56 377.602 444.31 376.008 440.272C374.415 436.235 373.033 432.41 371.758 429.01L371.971 429.116C369.846 429.541 368.04 430.497 366.552 431.666C365.065 432.835 363.79 434.216 362.621 435.491C360.39 438.147 358.796 440.591 357.521 442.716C356.246 444.841 355.396 446.435 354.864 447.604C354.546 448.135 354.333 448.56 354.227 448.879C353.908 448.985 353.908 449.197 353.908 449.197Z" fill="#263238"/>
<path d="M472.591 423.06C472.591 423.06 472.91 429.222 471.847 439.316C471.316 444.31 470.253 450.26 468.553 456.741C466.853 463.223 464.516 470.235 461.541 477.354L461.116 478.31L461.009 477.248C460.903 476.61 460.903 475.973 460.797 475.335C460.266 471.404 459.309 467.685 458.141 464.073C457.503 462.266 456.866 460.566 456.122 458.973C455.803 458.123 455.378 457.379 454.953 456.529C454.528 455.785 454.209 454.935 453.678 454.297C453.147 453.66 452.616 453.022 451.872 452.81C451.128 452.491 450.384 452.704 449.747 453.235C449.109 453.766 448.684 454.404 448.153 454.935C447.622 455.573 447.09 456.104 446.665 456.741C444.647 459.079 442.734 461.204 441.034 463.116C437.634 467.048 434.872 470.129 432.853 472.36C431.897 473.423 431.153 474.273 430.621 474.91C430.409 475.123 430.197 475.335 429.984 475.548C429.878 475.654 429.771 475.76 429.771 475.76C429.771 475.76 429.771 475.654 429.984 475.548C430.09 475.335 430.303 475.123 430.515 474.91C431.047 474.273 431.79 473.423 432.64 472.36C434.553 470.129 437.315 466.941 440.715 463.01C442.415 460.991 444.328 458.866 446.24 456.529C446.772 455.998 447.303 455.36 447.728 454.722C448.259 454.085 448.684 453.447 449.428 452.916C450.066 452.385 451.128 452.066 451.978 452.385C452.828 452.704 453.466 453.341 453.997 454.085C454.528 454.829 454.953 455.573 455.378 456.423C455.803 457.166 456.228 458.016 456.547 458.866C457.291 460.46 458.034 462.266 458.672 463.966C459.947 467.473 460.903 471.298 461.434 475.335C461.541 475.973 461.647 476.717 461.647 477.354L461.116 477.248C464.091 470.129 466.534 463.223 468.128 456.741C469.828 450.26 470.891 444.416 471.422 439.422C472.06 434.428 472.272 430.391 472.378 427.628C472.485 426.247 472.485 425.185 472.485 424.441C472.485 424.122 472.485 423.803 472.485 423.591C472.591 423.06 472.591 423.06 472.591 423.06Z" fill="#263238"/>
<path d="M393.327 393.628C393.327 393.628 393.327 393.734 393.115 393.84C393.009 393.947 392.796 394.159 392.584 394.372C392.159 394.903 391.521 395.647 390.671 396.603C389.184 398.622 387.271 401.809 385.571 406.166C383.871 410.416 382.49 415.728 381.746 421.678C381.109 427.628 381.109 434.428 382.596 441.229C383.234 444.629 384.296 447.922 385.571 450.897C386.74 453.979 388.334 456.741 389.927 459.291C393.221 464.391 397.046 468.323 400.553 471.191C402.253 472.679 404.059 473.848 405.44 474.91C407.034 475.867 408.309 476.717 409.371 477.354C410.434 477.992 411.284 478.417 411.921 478.735C412.24 478.842 412.453 479.054 412.559 479.16C412.665 479.267 412.771 479.267 412.771 479.267C412.771 479.267 412.665 479.267 412.559 479.16C412.346 479.054 412.134 478.948 411.815 478.842C411.178 478.523 410.328 478.098 409.159 477.46C407.99 476.823 406.715 475.973 405.121 475.123C403.634 474.06 401.828 472.998 400.128 471.404C396.515 468.535 392.69 464.604 389.29 459.504C387.696 456.954 386.102 454.191 384.827 451.004C383.552 447.922 382.49 444.629 381.852 441.229C380.365 434.322 380.365 427.522 381.002 421.572C381.746 415.516 383.234 410.203 384.934 405.953C386.634 401.703 388.652 398.515 390.246 396.497C391.096 395.54 391.734 394.69 392.159 394.265C392.371 394.053 392.584 393.84 392.69 393.734C393.327 393.734 393.327 393.628 393.327 393.628Z" fill="#263238"/>
<path d="M303.014 495.735C303.014 495.735 303.12 495.842 303.226 496.054C303.332 496.267 303.545 496.585 303.757 497.01L303.651 497.117C302.907 493.504 300.782 482.56 298.445 469.704C297.064 461.735 295.789 454.51 294.832 449.197C294.407 446.647 294.088 444.522 293.77 442.928C293.663 442.291 293.557 441.653 293.557 441.228C293.557 440.803 293.451 440.591 293.557 440.591C293.663 440.591 293.663 440.803 293.77 441.122C293.876 441.547 293.982 442.078 294.088 442.822C294.407 444.31 294.832 446.435 295.257 448.985C296.214 454.297 297.595 461.522 299.082 469.491C301.42 482.454 303.332 493.398 303.864 497.01L303.97 497.542L303.757 497.01C303.545 496.585 303.439 496.267 303.226 495.948C303.014 495.842 302.907 495.735 303.014 495.735Z" fill="#263238"/>
<path d="M300.357 493.611C300.251 493.717 297.595 488.298 294.407 481.604C291.22 474.91 288.776 469.385 288.882 469.385C288.988 469.279 291.645 474.698 294.832 481.392C298.126 487.979 300.57 493.504 300.357 493.611Z" fill="#263238"/>
<g opacity="0.3">
<g opacity="0.3">
<path opacity="0.3" d="M299.295 610.381C305.989 613.781 321.395 607.831 327.027 600.499C332.658 593.168 334.252 583.605 335.527 574.361C337.333 560.549 338.714 546.63 339.458 532.711C350.933 541.105 365.171 545.355 379.408 544.717C388.44 544.292 398.746 540.68 401.509 532.18C404.271 523.679 398.321 514.967 392.159 508.486C386.315 502.323 379.833 496.692 373.033 491.698C368.571 488.404 363.577 485.323 358.052 484.685C352.102 484.048 346.046 486.492 341.477 490.423C336.908 494.354 333.72 499.667 331.383 505.192C324.264 522.086 324.689 541.105 323.201 559.38C321.714 577.655 319.801 596.674 303.545 608.574" fill="black"/>
</g>
</g>
<path d="M299.72 610.487C299.72 610.487 299.826 610.381 300.145 610.275C300.464 610.168 300.889 609.956 301.526 609.743C302.589 609.106 304.289 608.149 306.095 606.662C309.708 603.581 314.17 598.374 318.42 591.362V591.468C319.376 584.137 320.545 575.743 321.714 566.711C323.627 552.367 325.433 539.405 326.814 530.055C327.664 525.38 328.408 521.661 328.833 519.005C329.045 517.73 329.258 516.773 329.47 516.03C329.577 515.711 329.577 515.498 329.683 515.286C329.683 515.073 329.789 515.073 329.789 515.073C329.789 515.073 329.789 515.18 329.789 515.392C329.789 515.605 329.683 515.817 329.683 516.136C329.577 516.88 329.364 517.836 329.152 519.111C328.727 521.767 328.089 525.486 327.239 530.161C325.964 539.617 324.264 552.58 322.352 566.818C321.077 575.849 320.014 584.349 318.951 591.574C314.701 598.587 310.133 603.793 306.414 606.874C304.608 608.468 302.908 609.318 301.739 609.956C301.101 610.168 300.676 610.381 300.357 610.487C299.932 610.381 299.72 610.487 299.72 610.487Z" fill="#263238"/>
<path d="M402.04 612.718C402.04 612.718 402.04 612.612 401.934 612.4C401.827 612.187 401.827 611.868 401.721 611.443C401.509 610.593 401.19 609.318 400.871 607.618C400.234 604.218 399.596 599.331 399.384 593.168C399.171 587.006 399.49 579.78 400.552 571.705C401.509 563.63 403.209 554.918 405.015 545.78C406.821 536.642 409.159 528.036 410.965 520.173C412.878 512.311 414.046 505.192 414.365 499.029C414.684 492.973 414.259 487.979 413.834 484.579C413.621 482.879 413.409 481.604 413.196 480.648C413.09 480.223 413.09 479.904 413.09 479.585C413.09 479.373 413.09 479.267 413.09 479.267C413.09 479.267 413.09 479.373 413.196 479.585C413.196 479.798 413.303 480.223 413.409 480.542C413.515 481.392 413.94 482.773 414.153 484.367C414.684 487.767 415.109 492.654 414.896 498.817C414.578 504.979 413.409 512.205 411.603 520.067C409.796 527.93 407.565 536.536 405.653 545.674C403.74 554.811 402.146 563.524 401.084 571.493C400.021 579.462 399.702 586.793 399.809 592.849C399.915 598.906 400.552 603.9 401.084 607.193C401.296 608.893 401.615 610.168 401.827 611.018C401.934 611.443 401.934 611.762 402.04 611.975C402.04 612.612 402.04 612.718 402.04 612.718Z" fill="#263238"/>
<path d="M419.89 492.973C419.784 492.867 421.59 489.998 423.609 486.279C425.628 482.56 427.115 479.479 427.328 479.479C427.434 479.479 427.115 480.329 426.584 481.604C426.053 482.879 425.203 484.685 424.14 486.492C423.078 488.404 422.121 489.998 421.271 491.167C420.528 492.335 419.996 492.973 419.89 492.973Z" fill="#263238"/>
<g opacity="0.3">
<g opacity="0.3">
<path opacity="0.3" d="M423.29 488.511C428.815 482.029 434.872 475.973 441.247 470.342C442.947 468.854 444.859 467.26 447.197 466.835C449.959 466.41 452.828 467.792 454.847 469.917C456.759 472.042 458.035 474.592 459.203 477.248C461.966 470.448 459.097 462.692 456.228 455.892C455.272 453.66 453.678 451.004 451.341 451.429C450.066 451.641 449.109 452.598 448.259 453.66C439.015 464.392 430.515 475.654 422.759 487.342" fill="black"/>
</g>
</g>
<g opacity="0.3">
<g opacity="0.3">
<path opacity="0.3" d="M516.792 437.935L517.217 434.535C513.179 434.96 508.185 435.385 504.998 437.828C501.279 440.697 499.791 445.585 498.516 450.154C495.648 460.566 503.829 514.011 503.404 524.848C507.017 523.361 509.46 500.411 510.204 496.479C511.798 487.129 508.61 481.285 509.567 478.629C510.523 475.973 510.523 473.21 510.629 470.448C510.735 458.122 512.01 449.41 516.792 437.935Z" fill="black"/>
</g>
</g>
<path d="M463.985 266.233C458.885 259.858 460.478 249.657 466.428 243.92C472.272 238.182 481.304 236.588 489.379 237.97C501.066 239.988 511.585 247.851 516.685 258.582C519.448 264.32 520.935 271.226 526.036 275.158C530.498 278.664 536.554 278.877 541.654 281.427C548.455 284.72 552.811 291.839 554.405 299.277C555.998 306.714 555.042 314.364 553.448 321.696C551.961 328.496 550.048 335.827 553.023 342.096C555.892 348.259 562.48 351.552 566.836 356.759C575.017 366.428 573.211 383.003 563.011 390.653C559.717 393.097 555.68 394.903 554.086 398.728C552.705 402.128 553.873 406.059 553.767 409.778C553.555 419.341 543.036 427.097 533.898 424.653C529.223 423.378 524.973 419.978 520.192 420.616C515.41 421.253 512.329 425.61 508.398 428.479C500.854 434.004 489.273 433.154 482.579 426.566C479.816 423.803 477.585 419.978 473.76 419.022C469.935 418.066 466.003 420.191 462.072 419.66C456.972 418.916 453.678 413.922 452.085 409.034C450.597 404.147 450.172 398.834 447.622 394.372C444.328 388.528 437.953 385.234 432.641 381.09C420.847 371.953 413.303 357.715 412.453 342.84C411.603 327.965 417.447 312.877 428.178 302.571" fill="#263238"/>
<path d="M392.69 393.628C382.49 405.316 378.559 421.997 382.277 436.978C386.103 451.96 398.64 473.848 413.09 479.373C422.44 472.466 434.553 462.904 443.266 455.254C448.897 450.26 451.978 443.035 454.741 436.022C456.335 431.985 458.035 427.628 456.972 423.378C456.228 420.297 454.103 417.641 451.872 415.409C437.634 400.641 415.959 393.309 395.665 396.603" fill="#F5BBA0"/>
<path d="M435.722 285.782C441.141 274.839 453.36 269.207 465.153 272.182L501.385 281.426C519.448 287.27 533.686 315.32 522.954 339.864C514.56 359.308 505.848 383.64 497.241 397.028C479.816 423.909 456.016 417.747 456.016 417.747L443.159 446.435L390.565 397.134L435.722 285.782Z" fill="#F5BBA0"/>
<path d="M496.816 347.409C497.454 347.196 499.26 350.49 503.191 352.403C507.123 354.315 510.948 353.678 511.16 354.421C511.267 354.74 510.417 355.378 508.717 355.696C507.016 356.015 504.466 355.909 502.023 354.634C499.579 353.465 497.985 351.553 497.241 350.065C496.498 348.577 496.498 347.515 496.816 347.409Z" fill="#263238"/>
<path d="M455.803 328.708C456.547 328.602 458.353 332.321 462.603 334.977C466.747 337.633 471.103 337.633 471.316 338.377C471.422 338.696 470.36 339.227 468.553 339.227C466.641 339.227 463.878 338.696 461.222 336.996C458.566 335.296 456.972 333.171 456.228 331.471C455.378 329.877 455.485 328.815 455.803 328.708Z" fill="#263238"/>
<path d="M473.228 368.765C473.335 368.552 475.991 369.19 480.241 370.465C481.303 370.784 482.366 370.996 482.791 370.465C483.322 369.827 483.428 368.552 483.428 367.171C483.535 364.302 483.747 361.221 483.853 358.034C484.597 345.071 485.553 334.658 486.085 334.764C486.616 334.764 486.403 345.283 485.766 358.246C485.553 361.434 485.341 364.409 485.235 367.384C485.128 368.765 485.235 370.359 483.96 371.634C483.322 372.271 482.366 372.484 481.622 372.377C480.878 372.271 480.347 372.059 479.816 371.846C475.672 370.146 473.122 369.084 473.228 368.765Z" fill="#263238"/>
<path d="M456.016 417.853C456.016 417.853 434.978 409.991 420.846 389.803C420.846 389.803 421.59 414.453 452.828 425.078L456.016 417.853Z" fill="#D37A57"/>
<path d="M459.097 315.108C459.734 314.046 463.878 315.533 469.085 315.958C474.185 316.489 478.541 315.852 479.072 317.127C479.285 317.658 478.328 318.614 476.416 319.464C474.61 320.208 471.741 320.74 468.66 320.421C465.578 320.102 462.922 319.039 461.222 317.871C459.522 316.702 458.778 315.639 459.097 315.108Z" fill="#263238"/>
<path d="M505.423 326.795C506.804 326.795 508.398 330.089 511.266 333.277C514.029 336.571 517.11 338.589 516.898 339.971C516.792 340.608 515.623 340.821 513.923 340.289C512.223 339.758 509.885 338.377 507.866 336.146C505.954 333.914 504.891 331.47 504.573 329.664C504.36 327.858 504.785 326.795 505.423 326.795Z" fill="#263238"/>
<path d="M463.985 379.921C463.985 379.921 466.428 378.646 465.26 373.865C464.091 369.084 458.141 364.834 454.316 368.765C454.316 368.765 450.491 369.084 451.978 373.546C453.466 378.009 462.285 384.278 463.878 380.665" fill="#F4A687"/>
<path d="M462.604 383.535C461.86 383.428 462.922 378.753 459.735 374.609C456.547 370.359 451.553 369.722 451.66 369.084C451.66 368.766 452.935 368.447 455.06 368.872C457.078 369.297 459.947 370.678 461.86 373.228C463.772 375.778 464.197 378.753 463.879 380.666C463.666 382.578 462.922 383.641 462.604 383.535Z" fill="#263238"/>
<path d="M404.696 270.589C399.065 274.946 395.665 282.065 395.984 289.183C396.09 293.115 397.153 297.896 394.178 300.552C391.202 303.315 386.527 301.827 382.49 301.827C375.477 301.827 368.89 307.777 368.146 314.684C367.827 317.234 368.146 319.89 366.871 322.121C365.49 324.353 362.833 325.415 360.602 326.796C354.971 330.196 351.464 336.678 351.571 343.159C351.677 349.64 355.502 356.015 361.24 359.203C363.79 360.691 366.871 361.541 368.783 363.878C370.908 366.534 371.015 370.253 372.077 373.441C374.096 379.603 380.365 384.172 386.952 384.278C393.54 384.278 399.809 379.816 401.934 373.653" fill="#263238"/>
<path d="M463.453 260.495C461.328 266.658 462.072 273.883 465.472 279.408C468.872 285.039 474.929 288.971 481.41 289.927C486.404 290.671 492.46 290.033 495.754 293.964C499.154 298.108 497.135 304.696 499.898 309.265C503.723 315.852 510.31 321.165 516.579 325.521C521.36 328.921 515.835 338.378 517.96 343.903C520.085 349.428 528.692 362.072 534.642 362.284C535.917 357.29 543.248 335.615 543.461 330.515C543.567 325.415 542.398 320.102 539.317 316.065C537.617 313.833 535.279 312.133 533.792 309.796C530.604 304.696 531.667 298.108 530.604 292.158C529.223 284.508 523.91 277.602 516.898 274.414C510.948 271.758 504.041 271.439 498.623 267.933C494.585 265.383 491.716 261.133 487.572 258.795C479.497 254.226 469.297 257.733 460.903 261.77" fill="#263238"/>
<path d="M424.246 322.227C423.396 321.696 417.871 325.84 423.29 329.24C432.959 335.084 441.247 315.215 440.822 308.627C445.709 306.502 450.703 304.483 455.059 301.189C459.416 297.896 465.897 287.164 466.959 281.745C470.678 283.233 488.422 283.339 486.935 282.277C483.428 279.833 476.31 274.627 475.353 270.589C473.335 261.77 466.96 254.014 458.672 251.676C450.384 249.339 440.29 253.164 435.722 261.239C425.84 257.945 414.046 260.92 406.184 268.676C398.321 276.433 394.496 288.652 396.727 299.383C397.259 302.252 398.215 305.121 397.365 307.989C396.196 311.496 392.796 313.302 390.033 315.533C382.49 321.696 379.196 332.534 380.152 342.309C381.108 352.084 382.702 356.015 387.59 359.521C397.046 366.428 377.39 384.065 395.027 390.016" fill="#263238"/>
<path d="M555.892 389.697C555.892 389.591 556.53 389.272 557.592 388.316C558.655 387.359 560.036 385.766 561.098 383.322C562.161 380.878 562.905 377.584 562.055 373.865C561.205 370.147 558.442 366.64 554.723 363.665C551.111 360.584 546.329 357.715 542.929 352.828C539.529 347.94 538.998 341.14 540.061 334.765C541.123 328.284 543.779 322.015 545.586 315.321C546.436 311.921 546.967 308.521 546.861 304.908C546.754 301.402 546.011 297.789 544.098 294.814C542.186 291.733 539.317 289.502 536.236 288.014C533.048 286.42 529.648 285.57 526.248 284.933C522.848 284.402 519.342 284.083 516.048 283.02C512.754 282.064 509.566 279.833 508.079 276.752C506.485 273.67 506.166 270.483 505.529 267.614C504.891 264.639 503.829 261.983 502.129 259.858C498.729 255.395 493.735 252.951 489.166 252.101C484.491 251.251 480.029 252.207 476.522 253.589C473.016 255.076 470.36 257.095 468.341 258.901C464.41 262.62 463.135 265.489 462.922 265.276C462.922 265.276 463.028 265.064 463.135 264.745C463.347 264.426 463.56 263.895 463.985 263.364C464.728 262.195 466.003 260.389 467.916 258.476C469.828 256.564 472.591 254.439 476.204 252.845C479.816 251.251 484.385 250.295 489.272 251.039C494.16 251.889 499.366 254.439 503.085 259.114C504.891 261.451 506.166 264.32 506.804 267.401C507.548 270.376 507.866 273.564 509.354 276.22C510.735 278.983 513.392 280.895 516.579 281.745C519.66 282.702 523.167 283.02 526.567 283.658C530.073 284.295 533.579 285.145 536.979 286.845C540.273 288.439 543.461 290.883 545.479 294.177C547.498 297.471 548.348 301.296 548.454 305.014C548.561 308.733 548.029 312.346 547.073 315.746C545.267 322.546 542.611 328.815 541.548 335.084C540.486 341.246 541.017 347.621 544.098 352.296C547.179 356.971 551.855 359.84 555.573 363.028C559.292 366.109 562.267 369.934 563.011 373.865C563.861 377.797 562.905 381.303 561.736 383.747C560.567 386.297 558.973 387.784 557.911 388.741C556.636 389.484 555.892 389.697 555.892 389.697Z" fill="#455A64"/>
<path d="M523.273 325.628C523.379 325.628 522.742 327.115 522.104 329.984C521.467 332.746 520.935 336.89 521.679 341.99C522.104 344.54 522.848 347.197 524.123 349.853C525.292 352.615 527.204 355.165 529.329 357.822C530.392 359.203 531.454 360.691 532.198 362.391C532.942 364.091 533.367 366.109 533.154 368.022C532.836 371.953 530.923 375.46 529.436 379.072C527.948 382.578 527.098 386.403 528.479 389.697C529.754 392.991 532.411 395.435 534.748 397.879C537.192 400.216 539.53 402.66 541.017 405.422C541.761 406.804 542.186 408.291 542.398 409.779C542.505 411.266 542.398 412.648 542.08 413.923C540.805 419.235 537.086 422.21 534.429 423.379C533.048 423.91 531.986 424.229 531.136 424.229C530.392 424.229 529.967 424.229 529.967 424.229C529.967 424.016 531.561 424.123 534.111 422.848C536.554 421.573 539.848 418.598 541.017 413.604C541.548 411.16 541.336 408.397 539.955 405.847C538.573 403.297 536.236 400.96 533.792 398.622C531.348 396.285 528.586 393.735 527.098 390.016C526.354 388.21 526.142 386.085 526.354 384.172C526.567 382.153 527.311 380.241 528.054 378.435C529.542 374.822 531.454 371.316 531.667 367.809C532.092 364.303 530.179 361.116 528.161 358.459C526.142 355.803 524.123 353.04 522.954 350.172C521.679 347.303 520.935 344.54 520.617 341.99C519.873 336.784 520.617 332.534 521.467 329.771C521.892 328.39 522.317 327.328 522.636 326.584C523.061 325.946 523.273 325.521 523.273 325.628Z" fill="#455A64"/>
<path d="M363.896 358.884C363.896 358.884 363.684 358.777 363.259 358.459C362.834 358.14 362.302 357.609 361.665 356.865C360.39 355.377 358.796 352.934 358.158 349.321C357.415 345.815 357.733 340.927 360.815 336.677C363.79 332.533 369.315 329.027 375.796 329.346L375.159 330.09C373.99 326.796 373.034 322.971 373.352 319.039C373.565 315.108 375.477 310.858 378.984 308.414C380.684 307.139 382.915 306.289 385.253 306.289C387.59 306.289 389.715 307.245 391.628 308.096C393.646 309.052 395.559 310.008 397.578 310.433C399.597 310.752 401.722 310.221 403.209 308.733C405.44 306.608 406.503 303.42 406.715 300.339C406.928 297.258 406.609 294.07 407.034 290.883C407.672 284.508 410.753 278.77 414.897 274.733C419.041 270.589 424.353 268.464 429.241 267.72C434.234 267.082 438.91 267.826 442.735 269.42L442.097 269.632C443.797 266.126 446.666 264.001 449.428 262.939C452.191 261.77 454.741 261.664 456.76 261.876C458.779 262.089 460.266 262.726 461.222 263.151C462.179 263.682 462.604 264.001 462.604 264.001C462.497 264.214 460.691 262.62 456.76 262.301C454.847 262.195 452.297 262.407 449.747 263.576C447.197 264.745 444.435 266.764 442.947 269.951L442.735 270.376L442.31 270.164C438.591 268.676 434.128 268.039 429.347 268.676C424.566 269.42 419.572 271.545 415.747 275.476C411.815 279.301 408.947 284.826 408.415 290.777C408.097 293.752 408.415 296.939 408.203 300.233C407.99 303.527 406.928 307.033 404.272 309.477C402.465 311.177 399.809 311.921 397.471 311.496C395.134 311.071 393.115 310.008 391.203 309.052C389.29 308.095 387.271 307.352 385.359 307.352C383.446 307.352 381.534 308.096 379.94 309.158C376.752 311.389 374.946 315.214 374.734 318.827C374.415 322.546 375.265 326.158 376.327 329.346L376.646 330.196H375.796C369.846 329.877 364.534 333.065 361.665 336.89C358.69 340.821 358.371 345.39 358.902 348.79C359.433 352.296 360.921 354.74 362.09 356.227C363.152 358.246 363.896 358.884 363.896 358.884Z" fill="#455A64"/>
<path d="M463.028 268.464C463.135 268.677 461.01 268.358 458.247 270.377C455.485 272.289 453.147 276.964 452.51 282.808L452.403 283.339H451.872C446.878 282.914 440.503 284.827 436.253 289.927C435.191 291.202 434.341 292.583 433.703 294.177C433.172 295.771 432.853 297.471 432.641 299.277C432.322 301.083 432.109 302.996 431.578 304.802C431.047 306.715 429.878 308.627 428.178 309.796C424.672 312.559 420.315 312.984 416.49 313.621C412.665 314.152 409.053 314.79 405.865 316.384C399.596 319.465 395.346 324.777 393.54 329.665C391.627 334.659 391.734 339.121 392.052 342.096C392.477 345.071 393.009 346.665 392.902 346.665C392.902 346.665 392.69 346.346 392.371 345.603C392.159 344.859 391.734 343.69 391.521 342.203C390.99 339.228 390.777 334.659 392.584 329.346C394.39 324.14 398.64 318.509 405.228 315.215C408.521 313.515 412.347 312.771 416.172 312.24C419.997 311.602 424.034 311.071 427.115 308.627C430.197 306.502 430.516 302.465 431.047 298.958C431.366 297.152 431.578 295.346 432.216 293.54C432.853 291.733 433.916 290.246 434.978 288.864C439.653 283.552 446.347 281.639 451.66 282.171L451.128 282.596C451.978 276.433 454.528 271.652 457.61 269.739C459.097 268.783 460.478 268.464 461.328 268.358C462.497 268.464 463.028 268.464 463.028 268.464Z" fill="#455A64"/>
<path d="M426.372 325.309C429.453 319.358 425.309 311.921 418.615 311.921C415.003 311.921 411.071 313.94 407.778 320.208C399.065 336.89 417.659 342.203 417.978 341.778C418.084 341.459 422.759 332.215 426.372 325.309Z" fill="#F5BBA0"/>
<path d="M416.171 332.746C416.171 332.64 415.746 332.746 415.215 332.746C414.578 332.746 413.728 332.427 412.984 331.683C411.603 330.09 411.496 326.583 412.984 323.502C413.728 321.908 414.79 320.633 415.959 319.783C417.128 318.827 418.297 318.402 419.359 318.721C420.315 318.933 420.74 319.889 420.634 320.421C420.634 321.058 420.315 321.271 420.422 321.377C420.422 321.483 420.953 321.271 421.165 320.527C421.272 320.208 421.272 319.677 421.059 319.146C420.847 318.614 420.315 318.083 419.678 317.871C418.296 317.339 416.596 317.871 415.321 318.827C413.94 319.783 412.771 321.271 411.921 322.971C410.221 326.371 410.328 330.408 412.453 332.427C413.515 333.383 414.684 333.49 415.321 333.383C415.853 333.065 416.171 332.746 416.171 332.746Z" fill="#D37A57"/>
<path d="M409.69 557.574C408.203 554.812 404.378 553.112 404.378 553.112L401.19 545.249C401.19 545.249 402.465 542.487 401.19 539.086C399.915 535.686 390.671 516.03 390.884 515.392L388.44 515.286C388.44 515.286 397.046 536.111 397.896 537.068C398.746 538.13 400.022 544.293 397.896 545.143C395.771 545.993 391.309 543.655 389.396 541.849C387.484 539.937 381.428 525.699 380.365 522.724C379.302 519.749 381.215 515.605 381.215 515.605L382.915 511.567H380.578C380.578 511.567 379.09 515.817 378.24 519.749C377.39 523.786 386.846 541.318 388.334 543.23C389.821 545.143 394.921 546.63 397.578 548.543C400.34 550.455 399.915 556.405 399.915 556.405C399.915 556.405 397.578 559.593 397.365 563.418C397.153 567.243 405.547 585.2 411.284 588.918C417.022 592.743 423.716 589.981 424.353 590.193C424.991 590.406 426.478 587.218 426.478 587.218C426.478 587.218 411.178 560.337 409.69 557.574ZM417.447 588.918C414.365 588.706 411.284 586.581 409.584 584.35C408.84 583.393 401.509 570.537 400.553 568.199C398.853 564.056 400.022 561.718 400.659 559.274C401.509 555.768 407.034 557.787 407.034 557.787C407.034 557.787 423.184 585.731 422.866 586.581C422.441 587.431 420.528 589.131 417.447 588.918Z" fill="#263238"/>
<path d="M426.584 587.324C426.584 587.324 473.654 569.368 475.885 567.349C478.116 565.33 485.979 553.643 485.979 553.643C485.979 553.643 489.91 554.28 489.379 555.343C488.848 556.405 481.41 567.986 473.441 571.387C465.472 574.787 424.459 590.193 424.459 590.193L426.584 587.324Z" fill="#263238"/>
<path d="M277.62 439.635L258.176 551.518C258.176 551.518 251.057 573.299 252.013 578.08C253.076 582.862 256.688 603.368 267.526 609.85C278.364 616.331 299.933 612.081 304.395 607.725C308.858 603.368 317.57 595.187 318.527 591.468C319.589 587.749 326.708 530.905 326.708 530.905L329.577 514.967C329.577 514.967 319.058 518.367 312.576 513.905C306.095 509.442 297.595 490.423 297.595 490.423L288.032 505.086L277.62 439.635Z" fill="#B489C9"/>
<path d="M297.595 490.317C297.595 490.317 297.489 490.529 297.276 490.954C296.957 491.379 296.639 492.017 296.107 492.654C295.151 494.142 293.664 496.373 291.964 499.136C288.457 504.661 283.782 512.311 278.682 520.811C273.582 529.311 269.013 537.068 265.613 542.593C263.913 545.355 262.532 547.586 261.47 549.074C261.044 549.818 260.619 550.349 260.301 550.774C259.982 551.199 259.876 551.411 259.876 551.411C259.876 551.411 259.982 551.199 260.194 550.774C260.513 550.349 260.832 549.711 261.257 548.968C262.213 547.374 263.595 545.143 265.188 542.38C268.482 536.749 273.051 529.099 278.151 520.599C283.251 512.098 287.926 504.448 291.539 499.03C293.345 496.267 294.832 494.142 295.895 492.654C296.426 491.911 296.851 491.379 297.17 490.954C297.489 490.529 297.595 490.317 297.595 490.317Z" fill="#263238"/>
<path d="M327.133 528.461C327.133 528.461 327.026 528.673 326.708 528.886C326.389 529.205 326.07 529.63 325.433 530.161C324.264 531.224 322.564 532.605 320.12 533.774C318.845 534.305 317.464 534.836 315.87 535.155C314.276 535.474 312.47 535.58 310.664 535.261C308.857 535.049 306.945 534.517 305.139 533.774C303.332 533.03 301.526 531.967 299.826 530.799C298.126 529.523 296.638 528.142 295.363 526.655C294.088 525.167 293.026 523.573 292.07 521.98C290.263 518.792 289.307 515.605 288.882 512.948C288.351 510.292 288.351 508.061 288.457 506.467C288.457 505.723 288.563 505.086 288.67 504.767C288.67 504.342 288.776 504.129 288.776 504.129C288.776 504.129 288.776 504.979 288.67 506.467C288.67 507.954 288.776 510.186 289.307 512.842C289.838 515.498 290.795 518.58 292.601 521.661C293.451 523.255 294.513 524.742 295.788 526.23C297.063 527.717 298.551 529.098 300.251 530.267C301.951 531.436 303.757 532.392 305.457 533.136C307.264 533.88 309.07 534.411 310.77 534.624C312.576 534.836 314.276 534.836 315.764 534.517C317.358 534.305 318.739 533.774 320.014 533.242C322.458 532.18 324.264 530.799 325.433 529.842C326.495 529.098 327.133 528.461 327.133 528.461Z" fill="#263238"/>
<path d="M297.595 490.317L312.151 480.967C312.151 480.967 350.827 465.241 354.758 464.391C358.69 463.435 363.258 461.629 365.383 464.391C367.508 467.154 389.609 483.092 389.609 483.092C389.609 483.092 402.571 507.529 402.571 510.929C402.571 514.33 406.184 518.473 402.571 519.748C398.959 520.917 398.959 520.917 398.959 520.917C398.959 520.917 397.79 526.867 393.221 527.505C388.652 528.142 387.165 527.505 387.165 527.505C387.165 527.505 386.846 533.455 383.234 533.03C379.621 532.711 373.565 527.505 373.565 527.505C373.565 527.505 370.802 530.586 368.677 530.586C366.552 530.586 359.965 526.017 359.965 526.017L347.002 514.861L335.633 510.929L329.47 514.861C329.47 514.861 316.401 515.923 314.383 514.861C312.576 513.798 297.595 490.317 297.595 490.317Z" fill="#F5BBA1"/>
<path d="M371.865 528.461C371.865 528.461 371.546 527.823 371.227 526.761C371.015 526.229 370.802 525.486 370.483 524.742C370.165 523.998 369.846 523.042 369.421 522.086C368.996 521.129 368.465 520.067 367.933 519.004C367.402 517.942 366.658 516.773 365.915 515.604C364.427 513.267 362.621 510.823 360.496 508.379C358.371 505.935 356.139 503.917 354.014 502.11C352.952 501.26 351.889 500.41 350.827 499.667C349.871 498.923 348.808 498.285 347.958 497.754C347.108 497.117 346.258 496.692 345.514 496.267C344.771 495.842 344.133 495.523 343.602 495.204C342.539 494.673 342.008 494.354 342.008 494.354C342.008 494.354 342.646 494.567 343.708 494.992C344.239 495.204 344.877 495.523 345.621 495.948C346.364 496.373 347.214 496.798 348.171 497.329C349.127 497.86 350.083 498.498 351.146 499.242C352.208 499.879 353.271 500.729 354.333 501.579C356.458 503.385 358.796 505.51 360.921 507.954C363.046 510.398 364.852 512.948 366.34 515.286C367.083 516.454 367.721 517.623 368.252 518.792C368.89 519.854 369.315 520.917 369.74 521.979C370.165 522.936 370.483 523.892 370.802 524.636C371.121 525.379 371.333 526.123 371.44 526.654C371.758 527.823 371.971 528.461 371.865 528.461Z" fill="#D37A57"/>
<path d="M387.058 528.142C387.058 528.142 386.952 528.036 386.74 527.717C386.527 527.398 386.208 526.973 385.89 526.336C385.252 525.061 384.402 523.254 383.552 520.811C382.702 518.473 381.852 515.498 380.896 512.31C379.94 509.123 378.771 505.617 376.858 502.323C374.946 499.029 372.29 496.479 369.633 494.566C366.977 492.654 364.427 491.06 362.408 489.466C360.389 487.873 359.008 486.279 358.264 485.11C357.946 484.473 357.627 484.048 357.521 483.623C357.414 483.304 357.308 483.091 357.308 483.091C357.414 483.091 357.627 483.835 358.477 484.898C359.221 486.066 360.708 487.554 362.621 489.041C364.639 490.635 367.189 492.123 369.846 494.035C372.608 495.948 375.371 498.604 377.283 502.004C379.302 505.298 380.471 508.91 381.427 512.098C382.383 515.285 383.127 518.154 383.871 520.598C384.615 522.936 385.465 524.848 386.102 526.123C386.74 527.398 387.058 528.142 387.058 528.142Z" fill="#D37A57"/>
<path d="M398.003 521.13C398.003 521.13 397.896 520.917 397.79 520.598C397.684 520.173 397.578 519.642 397.471 519.111C397.365 518.473 397.153 517.623 396.834 516.667C396.515 515.711 396.303 514.648 395.878 513.479C395.453 512.311 395.134 511.036 394.496 509.761C393.965 508.379 393.327 506.998 392.69 505.617C391.309 502.748 389.609 499.667 387.484 496.586C385.359 493.504 383.127 490.848 380.896 488.404C379.727 487.235 378.771 486.173 377.602 485.217C376.54 484.26 375.583 483.41 374.627 482.56C373.671 481.71 372.821 481.179 372.077 480.542C371.333 479.904 370.59 479.479 370.058 479.054C369.527 478.735 369.102 478.417 368.783 478.204C368.465 477.992 368.358 477.885 368.358 477.885C368.358 477.885 368.571 477.992 368.89 478.098C369.208 478.31 369.74 478.629 370.271 478.948C370.908 479.267 371.546 479.798 372.396 480.329C373.14 480.86 374.096 481.498 375.052 482.242C376.008 482.985 377.071 483.835 378.134 484.792C379.196 485.748 380.259 486.81 381.427 487.979C383.659 490.317 385.89 493.079 388.015 496.161C390.14 499.242 391.84 502.429 393.221 505.298C393.859 506.786 394.496 508.167 395.027 509.548C395.559 510.929 395.984 512.204 396.303 513.373C396.728 514.542 396.94 515.605 397.153 516.561C397.365 517.517 397.578 518.367 397.684 519.005C397.79 519.642 397.896 520.173 397.896 520.598C398.003 520.917 398.003 521.13 398.003 521.13Z" fill="#D37A57"/>
<path d="M341.052 479.904C341.052 480.01 340.308 480.117 339.139 480.542C338.077 480.967 336.589 481.923 335.421 483.41C334.358 484.898 333.827 486.492 333.721 487.767C333.508 488.936 333.614 489.786 333.614 489.786C333.508 489.786 333.296 489.042 333.402 487.767C333.508 486.492 333.933 484.685 335.102 483.198C336.271 481.604 337.864 480.754 339.033 480.329C340.202 479.798 341.052 479.798 341.052 479.904Z" fill="#D37A57"/>
<path d="M351.783 469.598C351.889 469.704 349.977 470.979 348.17 472.891C346.258 474.804 345.195 476.823 345.089 476.716C344.983 476.716 345.833 474.591 347.745 472.573C349.658 470.554 351.783 469.491 351.783 469.598Z" fill="#D37A57"/>
<path d="M503.404 343.478C501.598 344.221 501.173 346.453 501.173 348.471C501.173 350.915 501.81 351.34 503.829 355.484C507.123 362.284 511.16 375.247 511.16 375.247C511.16 375.247 507.866 407.866 510.098 415.516C512.01 422.422 518.598 424.229 518.598 424.229L515.623 449.41H551.217C551.217 449.41 549.942 424.972 549.198 417.641C548.348 409.779 548.879 362.178 548.879 362.178L545.373 336.784L537.192 322.44C537.192 322.44 532.942 324.99 534.748 330.196C536.554 335.403 537.829 345.39 537.829 345.39L517.217 314.365C517.217 314.365 513.179 315.321 512.967 322.865C512.967 322.865 507.016 326.796 510.841 333.065C515.198 340.184 519.66 361.328 518.067 361.328L505.316 342.521L503.404 343.478Z" fill="#F2AF8F"/>
<path d="M515.623 449.304C515.623 449.304 515.623 448.773 515.835 447.604C515.942 446.542 516.154 444.842 516.367 442.717C516.898 438.467 517.535 432.091 518.492 424.016L518.598 424.123C517.004 423.591 515.41 422.741 514.029 421.573C512.648 420.404 511.373 418.916 510.629 417.11C509.779 415.304 509.567 413.285 509.354 411.16C509.248 409.035 509.142 406.91 509.248 404.679C509.354 395.753 509.992 385.766 511.054 375.034V375.141C509.354 369.934 507.548 364.409 505.21 358.778C504.573 357.397 504.041 356.015 503.298 354.634C502.66 353.253 501.81 351.978 501.279 350.384C501.066 349.534 501.066 348.79 501.066 347.94C501.066 347.09 501.173 346.347 501.385 345.497C501.598 344.753 502.129 343.903 502.873 343.478C503.298 343.265 503.616 343.159 504.041 342.946L505.21 342.521L505.423 342.415L505.529 342.628C509.779 348.897 514.242 355.378 518.917 362.178L518.385 362.284C518.598 360.69 518.492 358.99 518.279 357.397C518.067 355.697 517.854 354.103 517.429 352.403C516.685 349.109 515.623 345.815 514.454 342.521C513.285 339.228 511.798 336.04 510.417 332.746C509.779 331.046 509.354 329.134 509.885 327.328C510.31 325.521 511.373 323.927 512.967 322.759L512.86 322.971C513.073 321.377 513.392 319.784 514.029 318.19C514.348 317.446 514.773 316.596 515.304 315.959C515.835 315.321 516.473 314.577 517.429 314.259L517.642 314.152L517.748 314.365C517.854 314.471 517.854 314.577 517.96 314.684C524.973 325.202 531.773 335.403 538.361 345.284L537.829 345.497C537.298 341.353 536.661 337.315 535.704 333.384C535.492 332.428 535.173 331.471 534.854 330.515C534.536 329.559 534.323 328.496 534.323 327.434C534.429 325.309 535.598 323.396 537.298 322.227L537.511 322.121L537.617 322.334C540.379 327.221 543.142 332.003 545.798 336.571C546.967 345.497 548.136 353.89 549.305 361.965C549.198 375.141 549.092 387.147 549.092 397.772C549.092 403.085 549.092 408.079 549.305 412.647C549.411 414.985 549.517 417.11 549.73 419.235C549.942 421.36 550.048 423.379 550.155 425.291C550.686 432.941 550.898 438.892 551.111 442.929C551.217 444.948 551.323 446.542 551.323 447.604C551.323 448.667 551.323 449.198 551.323 449.198C551.323 449.198 551.323 448.667 551.217 447.604C551.111 446.542 551.005 444.948 550.898 442.929C550.686 438.892 550.261 432.941 549.73 425.291C549.623 423.379 549.411 421.36 549.305 419.341C549.092 417.216 548.986 414.985 548.88 412.754C548.773 408.185 548.667 403.191 548.667 397.878C548.667 387.253 548.667 375.141 548.773 362.072C547.711 353.997 546.436 345.603 545.267 336.678V336.784C542.611 332.109 539.848 327.434 536.979 322.546L537.298 322.652C535.704 323.715 534.642 325.521 534.536 327.434C534.536 328.39 534.748 329.346 535.067 330.303C535.386 331.259 535.704 332.215 535.917 333.278C536.873 337.209 537.511 341.353 538.148 345.497L538.254 346.665L537.617 345.709C531.029 335.828 524.229 325.521 517.217 315.109C517.11 315.002 517.004 314.896 517.004 314.79L517.323 314.896C516.685 315.109 515.942 315.746 515.517 316.384C514.985 317.021 514.667 317.765 514.348 318.509C513.71 319.996 513.498 321.59 513.285 323.184V323.29L513.179 323.396C511.798 324.459 510.735 325.946 510.417 327.646C509.992 329.346 510.31 331.153 510.948 332.746C512.329 336.04 513.817 339.228 514.985 342.521C516.154 345.815 517.217 349.109 517.96 352.509C518.385 354.209 518.598 355.909 518.81 357.503C519.023 359.203 519.129 360.903 518.917 362.603L518.81 363.24L518.385 362.709C513.817 355.909 509.248 349.322 505.104 343.159L505.423 343.265C504.679 343.584 503.829 343.903 503.191 344.221C502.554 344.647 502.129 345.284 501.916 346.028C501.704 346.772 501.598 347.515 501.598 348.365C501.598 349.109 501.598 349.959 501.81 350.703C502.235 352.19 503.191 353.465 503.829 354.847C504.573 356.228 505.21 357.609 505.741 359.097C508.079 364.728 509.885 370.253 511.585 375.566C510.523 386.403 509.885 396.285 509.673 405.21C509.673 407.441 509.673 409.566 509.779 411.691C509.992 413.71 510.204 415.729 510.948 417.535C512.542 421.041 515.623 423.379 518.704 424.441H518.81V424.548C517.854 432.623 517.11 438.892 516.579 443.248C516.26 445.373 516.154 446.967 515.942 448.135C515.729 448.773 515.623 449.304 515.623 449.304Z" fill="#F5BBA0"/>
<path d="M531.348 364.197C531.348 364.197 531.135 363.56 530.923 362.391C530.71 361.222 530.392 359.628 529.967 357.609C529.01 353.572 527.417 348.153 524.654 342.416C521.998 336.678 518.917 331.897 516.685 328.39C515.517 326.69 514.56 325.309 513.923 324.353C513.285 323.397 512.86 322.865 512.966 322.865C512.966 322.865 513.391 323.29 514.135 324.247C514.879 325.203 515.835 326.478 517.11 328.178C519.554 331.578 522.635 336.359 525.292 342.097C527.948 347.834 529.542 353.359 530.392 357.397C530.817 359.416 531.135 361.116 531.242 362.285C531.348 363.56 531.348 364.197 531.348 364.197Z" fill="#D37A57"/>
<path d="M542.398 356.334C542.292 356.44 541.123 353.89 539.848 350.809C538.573 347.728 537.617 345.178 537.723 345.072C537.829 344.965 538.998 347.515 540.273 350.597C541.654 353.678 542.504 356.228 542.398 356.334Z" fill="#D37A57"/>
<path d="M512.754 438.891C506.485 494.036 498.41 552.686 489.06 613.675H561.523C575.124 583.499 566.836 557.255 563.224 519.749L551.323 434.641L512.754 438.891Z" fill="#B489C9"/>
<path d="M489.06 613.674C489.06 613.674 489.06 613.568 489.06 613.356C489.06 613.143 489.166 612.718 489.166 612.293C489.272 611.337 489.485 609.956 489.697 608.256C490.229 604.749 490.972 599.756 491.822 593.487C493.629 581.055 496.179 563.843 498.941 544.824C501.704 525.805 503.935 508.592 505.529 496.16C506.273 489.892 506.91 484.898 507.335 481.391C507.548 479.691 507.654 478.31 507.76 477.354C507.866 476.929 507.866 476.61 507.866 476.291C507.866 476.079 507.973 475.973 507.973 475.973C507.973 475.973 507.973 476.079 507.973 476.291C507.973 476.61 507.973 476.929 507.866 477.354C507.76 478.31 507.654 479.691 507.548 481.391C507.229 484.898 506.698 489.998 505.954 496.16C504.573 508.698 502.235 525.911 499.579 544.93C496.816 563.949 494.16 581.055 492.247 593.487C491.291 599.649 490.441 604.643 489.91 608.149C489.591 609.849 489.379 611.231 489.272 612.187C489.166 612.612 489.166 612.931 489.06 613.249C489.06 613.568 489.06 613.674 489.06 613.674Z" fill="#263238"/>
<path d="M645.993 613.144H439.44L466.11 468.217C467.066 463.117 471.528 459.292 476.735 459.292H662.356C669.156 459.292 674.256 465.454 672.981 472.148L645.993 613.144Z" fill="#455A64"/>
<path d="M439.441 613.144H361.133L361.452 612.931C368.465 607.725 376.859 604.75 385.571 604.431L441.566 602.731L439.441 613.144Z" fill="#455A64"/>
<path d="M489.06 459.504C489.06 459.504 488.529 459.398 487.36 459.398C486.297 459.398 484.597 459.61 482.791 460.567C480.985 461.523 478.86 463.117 477.266 465.561C475.672 468.004 474.61 471.298 473.866 474.911C473.229 478.523 472.591 482.667 471.847 487.023C471.103 491.38 470.253 496.055 469.403 500.836C467.597 510.611 465.472 521.236 463.135 532.499C458.46 554.918 454.103 575.106 451.341 589.875C449.959 597.206 448.791 603.156 448.047 607.3C447.728 609.319 447.409 610.912 447.197 612.081C447.091 612.612 446.984 613.037 446.984 613.356C446.878 613.675 446.878 613.781 446.878 613.781C446.878 613.781 446.878 613.675 446.878 613.356C446.878 613.037 446.984 612.612 447.091 612.081C447.303 610.912 447.516 609.319 447.834 607.3C448.472 603.156 449.534 597.206 450.809 589.768C453.466 574.999 457.716 554.705 462.391 532.393C464.728 521.236 466.853 510.505 468.66 500.836C469.616 495.948 470.36 491.38 471.21 487.023C471.953 482.667 472.591 478.629 473.335 474.911C474.079 471.192 475.247 467.898 476.841 465.454C478.541 462.904 480.666 461.31 482.579 460.46C484.491 459.504 486.191 459.398 487.254 459.398C488.529 459.292 489.06 459.504 489.06 459.504Z" fill="#263238"/>
<path d="M576.292 533.03C576.292 538.555 571.83 543.018 566.305 543.018C560.78 543.018 556.317 538.555 556.317 533.03C556.317 527.505 560.78 523.042 566.305 523.042C571.83 523.042 576.292 527.505 576.292 533.03Z" fill="#F5F5F5"/>
<path d="M696.781 613.356C696.781 613.462 587.98 613.675 453.891 613.675C319.695 613.568 211 613.462 211 613.356C211 613.25 319.695 613.037 453.891 613.037C588.086 613.037 696.781 613.143 696.781 613.356Z" fill="#263238"/>
<path d="M408.84 232.763L405.971 206.094L392.371 209.176L380.683 188.457L388.015 216.401L401.721 213.319L408.84 232.763Z" fill="#6C2A8B"/>
<path d="M403.315 237.758L390.671 224.795L384.721 232.126L369.846 225.964L385.359 237.864L391.415 230.32L403.315 237.758Z" fill="#6C2A8B"/>
<path d="M539.955 249.339L551.43 228.407L561.63 235.632L578.311 222.669L562.692 243.07L552.492 235.738L539.955 249.339Z" fill="#6C2A8B"/>
<path d="M561.098 261.239L572.999 256.139L574.805 262.62H586.28L572.786 266.126L570.874 259.645L561.098 261.239Z" fill="#6C2A8B"/>
<path d="M478.647 179.956C478.647 179.956 479.072 179.638 480.029 179.106C480.985 178.575 482.472 177.725 484.491 176.875C488.423 175.175 494.798 173.05 503.298 173.369C504.36 173.369 505.423 173.475 506.485 173.581C507.548 173.688 508.717 173.9 509.885 174.219C511.054 174.538 512.117 174.963 513.285 175.6C514.348 176.238 515.41 177.088 516.048 178.256C516.685 179.425 516.898 180.806 516.685 182.188C516.473 183.569 515.623 184.738 514.667 185.8C512.754 187.925 510.098 189.307 507.229 190.369C501.491 192.494 495.01 193.557 487.998 193.132C481.091 192.707 473.76 190.688 467.066 186.756L466.96 186.65L467.066 186.544C469.616 182.4 473.547 178.894 478.116 176.45C482.685 174.006 487.997 172.413 493.523 172.094C499.048 171.669 504.785 172.2 510.417 173.475C513.285 174.113 516.154 174.856 518.917 175.706C521.785 176.556 524.654 177.513 527.417 178.894C530.073 180.275 532.623 182.4 534.217 185.163C534.961 186.544 535.598 188.032 535.704 189.625C535.917 191.219 535.598 192.919 534.961 194.407C533.579 197.382 530.923 199.613 528.054 201.1C525.185 202.694 521.998 203.65 518.704 204.394C505.848 207.582 491.716 208.113 477.797 205.457C476.947 205.35 476.097 205.138 475.141 204.925C474.291 204.713 473.441 204.5 472.485 204.288C470.785 203.863 468.978 203.438 467.278 202.694C465.578 202.057 463.985 201.1 462.497 199.932C461.116 198.763 459.947 197.063 459.628 195.257C459.31 193.344 459.735 191.432 460.797 189.838C461.86 188.244 463.241 186.969 464.728 185.906C466.216 184.844 467.916 183.994 469.616 183.144C470.466 182.719 471.316 182.4 472.166 181.975C473.016 181.55 473.866 181.231 474.822 180.913C481.835 178.256 489.485 176.769 497.241 176.663C501.066 176.556 504.998 176.875 508.823 177.513C509.779 177.619 510.735 177.831 511.692 178.044C512.648 178.256 513.604 178.469 514.56 178.681C516.473 179.106 518.385 179.744 520.192 180.488C521.998 181.231 523.804 182.294 525.292 183.569C526.779 184.844 528.054 186.65 528.479 188.669L528.586 189.413L528.692 190.157C528.798 190.688 528.692 191.219 528.692 191.75C528.586 192.813 528.267 193.769 527.842 194.725C526.992 196.638 525.504 198.125 524.017 199.4C522.423 200.675 520.723 201.844 518.917 202.694C518.067 203.119 517.11 203.544 516.154 203.969C515.198 204.394 514.242 204.713 513.285 205.138C509.46 206.626 505.529 207.794 501.598 208.751C493.629 210.557 485.235 211.301 476.947 210.769C472.804 210.557 468.553 209.601 464.835 207.582C463.028 206.519 461.222 205.138 460.053 203.332C458.885 201.525 458.353 199.294 458.566 197.169C458.672 195.363 459.31 193.663 460.266 192.175C461.222 190.688 462.391 189.413 463.666 188.244C466.322 185.906 469.404 184.206 472.485 182.931C478.86 180.275 485.554 178.681 492.354 178.15C495.754 177.938 499.154 177.938 502.448 178.256C504.148 178.363 505.741 178.575 507.442 178.894C509.142 179.213 510.735 179.531 512.329 180.063C513.923 180.594 515.517 181.338 516.792 182.294C518.173 183.25 519.342 184.525 520.085 186.119C520.723 187.713 520.829 189.519 520.298 191.113C519.767 192.707 518.704 194.088 517.429 195.257C514.879 197.488 511.585 198.444 508.504 199.188C505.316 199.932 502.235 200.675 499.048 201.419C492.779 202.8 486.51 203.969 480.135 204.5C473.866 205.032 467.491 204.819 461.435 203.65C455.378 202.482 449.534 200.144 444.541 196.744L444.222 196.532L444.434 196.319C453.147 188.669 464.091 183.994 475.035 182.4C485.979 180.806 497.135 182.294 506.698 186.544C507.867 187.182 509.035 187.819 509.992 188.669C510.948 189.519 511.798 190.582 512.329 191.857C512.754 193.132 512.648 194.513 512.117 195.788C511.585 196.957 510.629 198.019 509.567 198.763C507.442 200.357 504.998 201.207 502.66 201.95C500.216 202.694 497.879 203.332 495.435 203.65C490.548 204.394 485.66 204.394 480.879 203.65C479.71 203.438 478.541 203.119 477.479 202.269C476.522 201.525 475.991 200.144 476.204 198.869C476.416 197.7 477.266 196.638 478.116 195.788C478.966 194.938 479.922 194.3 480.985 193.769C489.379 189.944 498.516 188.775 506.91 189.732C509.035 189.944 511.054 190.369 513.073 191.113C514.985 191.857 516.792 193.132 517.96 194.725C519.129 196.319 519.873 198.444 519.66 200.463C519.448 202.482 518.173 204.182 516.685 205.457C515.198 206.732 513.498 207.688 511.904 208.538C510.204 209.388 508.61 210.238 506.91 210.876C503.51 212.257 500.11 213.107 496.71 213.744C489.91 214.807 483.429 214.382 477.585 212.894H477.372L477.479 212.682C480.241 208.857 484.172 206.201 488.104 204.713C492.035 203.225 496.073 202.907 499.685 203.544C501.491 203.863 503.191 204.394 504.573 205.35C505.316 205.882 505.848 206.413 506.273 207.157C506.698 207.901 507.017 208.644 507.017 209.388C507.229 210.982 506.591 212.469 505.848 213.532C505.104 214.701 504.148 215.657 503.085 216.401C501.066 217.888 498.941 218.526 497.241 219.269C495.435 219.907 494.054 220.544 492.885 221.182C491.823 221.819 491.079 222.457 490.548 222.882C490.335 223.094 490.123 223.307 490.016 223.413C489.91 223.519 489.804 223.626 489.804 223.626C489.804 223.626 490.016 223.413 490.441 222.882C490.866 222.457 491.61 221.819 492.779 221.182C493.841 220.544 495.329 219.907 497.029 219.269C498.729 218.526 500.854 217.888 502.873 216.401C503.829 215.657 504.785 214.701 505.529 213.638C506.273 212.469 506.804 211.088 506.698 209.601C506.591 208.857 506.379 208.113 505.954 207.476C505.529 206.838 504.891 206.201 504.254 205.776C502.873 204.819 501.173 204.288 499.473 203.969C495.86 203.332 491.929 203.65 487.998 205.138C484.066 206.626 480.241 209.176 477.479 213.001L477.372 212.788C483.11 214.276 489.591 214.701 496.391 213.532C499.791 213.001 503.191 212.044 506.485 210.663C508.185 210.026 509.779 209.176 511.479 208.326C513.073 207.369 514.773 206.519 516.154 205.244C517.535 204.075 518.81 202.375 519.023 200.463C519.235 198.55 518.598 196.638 517.429 195.044C516.26 193.45 514.56 192.282 512.648 191.538C510.735 190.794 508.717 190.369 506.592 190.157C498.304 189.2 489.273 190.475 480.985 194.194C480.029 194.725 479.072 195.363 478.222 196.107C477.372 196.85 476.735 197.807 476.522 198.869C476.31 199.932 476.735 201.1 477.585 201.844C478.435 202.588 479.604 202.907 480.772 203.119C485.447 203.863 490.335 203.863 495.116 203.119C497.56 202.694 499.898 202.163 502.341 201.419C504.679 200.675 507.123 199.825 509.035 198.232C509.992 197.488 510.842 196.532 511.373 195.469C511.904 194.3 511.904 193.025 511.585 191.857C511.16 190.688 510.417 189.625 509.46 188.882C508.504 188.032 507.442 187.394 506.273 186.756C496.71 182.613 485.766 181.125 474.822 182.719C463.985 184.313 453.147 188.882 444.541 196.532V196.107C449.534 199.507 455.272 201.738 461.328 202.907C467.385 204.075 473.654 204.288 479.922 203.757C486.191 203.225 492.46 202.057 498.729 200.675C501.916 199.932 504.998 199.188 508.185 198.444C511.267 197.7 514.56 196.744 516.898 194.619C518.067 193.557 519.023 192.175 519.554 190.688C520.085 189.2 520.085 187.5 519.448 186.013C518.81 184.525 517.748 183.356 516.367 182.4C515.092 181.444 513.498 180.806 512.01 180.169C510.417 179.638 508.823 179.319 507.229 179C505.635 178.681 503.935 178.469 502.235 178.363C498.941 178.044 495.541 178.044 492.248 178.256C485.554 178.788 478.86 180.275 472.591 183.038C469.404 184.313 466.428 186.013 463.878 188.244C461.328 190.475 459.203 193.45 458.885 196.85C458.778 198.869 459.203 200.994 460.372 202.694C461.435 204.394 463.135 205.775 464.941 206.732C468.553 208.751 472.697 209.601 476.841 209.813C485.129 210.344 493.416 209.601 501.385 207.794C505.316 206.838 509.248 205.669 513.073 204.182C514.029 203.863 514.985 203.438 515.835 203.013C516.792 202.588 517.642 202.269 518.598 201.738C520.404 200.782 522.104 199.719 523.592 198.444C525.079 197.169 526.461 195.682 527.311 193.875C527.736 193.025 528.054 192.069 528.161 191.113C528.161 190.582 528.267 190.157 528.161 189.625L528.054 188.882L527.948 188.138C527.523 186.225 526.354 184.631 524.867 183.356C523.379 182.081 521.679 181.125 519.873 180.275C518.067 179.531 516.26 178.894 514.348 178.469C513.392 178.256 512.435 178.044 511.479 177.831C510.523 177.619 509.567 177.406 508.61 177.3C504.785 176.663 500.96 176.45 497.029 176.45C489.379 176.556 481.835 178.044 474.822 180.7C473.972 181.019 473.122 181.338 472.272 181.763C471.422 182.081 470.572 182.506 469.722 182.931C468.022 183.675 466.428 184.525 464.941 185.588C463.453 186.65 462.072 187.925 461.116 189.413C460.16 190.9 459.628 192.707 459.947 194.513C460.266 196.213 461.328 197.807 462.603 198.975C463.985 200.144 465.578 200.994 467.172 201.632C468.872 202.269 470.572 202.8 472.272 203.225C473.122 203.438 473.972 203.65 474.822 203.863C475.672 204.075 476.522 204.288 477.479 204.394C491.398 207.051 505.423 206.519 518.173 203.438C521.36 202.694 524.548 201.738 527.417 200.25C530.179 198.763 532.836 196.638 534.111 193.769C534.748 192.388 535.067 190.794 534.854 189.307C534.748 187.819 534.217 186.331 533.473 184.95C531.986 182.294 529.542 180.275 526.886 178.894C524.229 177.513 521.36 176.556 518.492 175.706C515.623 174.856 512.86 174.113 509.992 173.475C504.36 172.2 498.729 171.669 493.204 172.094C487.785 172.519 482.472 174.006 478.01 176.45C473.441 178.894 469.616 182.294 467.066 186.438L466.96 186.225C473.547 190.157 480.879 192.175 487.679 192.6C494.585 193.132 501.066 191.963 506.804 189.944C509.673 188.988 512.223 187.5 514.135 185.481C515.092 184.419 515.835 183.25 516.048 181.975C516.26 180.7 516.048 179.319 515.41 178.256C514.773 177.194 513.817 176.344 512.754 175.706C511.692 175.069 510.629 174.644 509.46 174.325C508.292 174.006 507.229 173.794 506.166 173.688C505.104 173.581 504.041 173.475 502.979 173.369C494.585 173.05 488.21 175.069 484.279 176.769C482.26 177.619 480.772 178.363 479.816 178.894C479.072 179.744 478.647 179.956 478.647 179.956Z" fill="#263238"/>
</svg>
