<svg width="793" height="811" viewBox="0 0 793 811" fill="none" xmlns="http://www.w3.org/2000/svg">
<path d="M737.705 539.748C742.411 604.833 735.762 683.7 694.274 720.819C652.787 757.937 576.866 752.798 508.997 745.346C441.181 738.351 382.226 728.026 315.097 714.944C247.968 701.862 173.525 685.461 121.287 641.089C68.5918 596.77 39.0657 524.833 49.4112 458.018C59.353 391.712 109.675 330.933 143.351 266.059C176.571 201.238 193.549 131.812 236.389 90.379C279.229 48.9458 347.879 35.0485 409.325 46.9353C470.262 58.4185 523.539 95.7381 586.998 117.099C650.053 138.968 723.29 144.878 744.077 185.007C764.408 225.189 731.78 299.186 724.156 361.528C716.075 423.923 732.542 474.716 737.705 539.748Z" fill="#D6A2EE" fill-opacity="0.3"/>
<path d="M793 584.084C793 584.111 631.835 584.167 432.949 584.167C234.165 584.139 73 584.111 73 584.084C73 584.056 234.165 584 433.051 584C631.835 584 793 584.028 793 584.084Z" fill="#263238"/>
<path d="M635.391 575.547H127.619C118.3 575.547 110.612 567.975 110.612 558.539V234.352C110.612 225.033 118.184 217.345 127.619 217.345H635.391C644.71 217.345 652.399 224.917 652.399 234.352V558.656C652.399 567.975 644.827 575.547 635.391 575.547Z" fill="#455A64"/>
<path d="M659.155 583.817H113.641C102.225 583.817 92.9058 574.498 92.9058 563.082V552.482H679.89V563.082C679.89 574.498 670.571 583.817 659.155 583.817Z" fill="#455A64"/>
<path d="M328.095 549.104L335.434 560.636H437.827L444.7 549.104H328.095Z" fill="#263238"/>
<path d="M647.739 549.104C647.739 549.337 527.523 549.453 379.234 549.453C230.944 549.453 110.728 549.337 110.728 549.104C110.728 548.871 230.944 548.754 379.234 548.754C527.523 548.754 647.739 548.871 647.739 549.104Z" fill="#263238"/>
<path d="M630.965 539.668H129.949C127.852 539.668 126.105 537.921 126.105 535.824V241.808C126.105 239.711 127.852 237.964 129.949 237.964H630.965C633.062 237.964 634.809 239.711 634.809 241.808V535.824C634.693 537.921 633.062 539.668 630.965 539.668Z" fill="#EBEBEB"/>
<path d="M634.227 540.018H125.639L126.105 260.446H634.227V540.018Z" fill="white"/>
<path d="M167.924 249.612C167.924 251.826 166.061 253.69 163.847 253.69C161.634 253.69 159.77 251.826 159.77 249.612C159.77 247.399 161.634 245.535 163.847 245.535C166.061 245.535 167.924 247.399 167.924 249.612Z" fill="#263238"/>
<path d="M143.229 249.612C143.229 251.826 141.365 253.69 139.152 253.69C136.939 253.69 135.075 251.826 135.075 249.612C135.075 247.399 136.939 245.535 139.152 245.535C141.482 245.535 143.229 247.399 143.229 249.612Z" fill="#263238"/>
<path d="M155.111 249.612C155.111 251.826 153.247 253.69 151.034 253.69C148.82 253.69 146.957 251.826 146.957 249.612C146.957 247.399 148.82 245.535 151.034 245.535C153.247 245.535 155.111 247.399 155.111 249.612Z" fill="#263238"/>
<path d="M634.809 513.109H125.639V540.134H634.809V513.109Z" fill="#263238"/>
<path d="M144.859 529.651V530.466H140.782V529.767L142.996 527.671C143.578 527.205 143.578 526.855 143.578 526.506C143.578 526.04 143.229 525.69 142.53 525.69C141.947 525.69 141.598 525.923 141.248 526.273L140.549 525.69C141.015 525.108 141.714 524.758 142.646 524.758C143.811 524.758 144.626 525.341 144.626 526.389C144.626 526.972 144.51 527.438 143.695 528.136L142.18 529.534H144.859V529.651Z" fill="white"/>
<path d="M145.442 526.972C145.442 526.622 145.675 526.273 146.141 526.273C146.49 526.273 146.84 526.506 146.84 526.972C146.84 527.321 146.607 527.671 146.141 527.671C145.675 527.554 145.442 527.321 145.442 526.972ZM145.442 530C145.442 529.651 145.675 529.301 146.141 529.301C146.49 529.301 146.84 529.534 146.84 530C146.84 530.35 146.607 530.699 146.141 530.699C145.675 530.583 145.442 530.35 145.442 530Z" fill="white"/>
<path d="M149.286 524.991V530.466H148.238V525.807H147.073V524.991H149.286Z" fill="white"/>
<path d="M155.227 529.301H154.295V530.583H153.363V529.301H150.334V528.603L153.013 525.108H154.062L151.499 528.486H153.246V527.321H154.178V528.486H155.11V529.301H155.227Z" fill="white"/>
<path d="M581.457 527.088H164.196V528.952H581.457V527.088Z" fill="white"/>
<path d="M294.314 525.107H163.963V530.233H294.314V525.107Z" fill="#FF725E"/>
<path d="M298.508 528.019C298.508 531.514 295.712 534.426 292.101 534.426C288.606 534.426 285.694 531.631 285.694 528.019C285.694 524.525 288.49 521.613 292.101 521.613C295.712 521.729 298.508 524.525 298.508 528.019Z" fill="#FF725E"/>
<path d="M592.058 528.02C592.058 529.068 591.126 529.767 590.077 529.767C588.563 529.767 587.748 528.835 587.748 527.088C587.748 525.224 588.796 524.176 590.427 524.176C591.009 524.176 591.475 524.292 591.825 524.525L591.475 525.34C591.126 525.107 590.776 525.107 590.427 525.107C589.378 525.107 588.679 525.806 588.679 526.971C589.029 526.622 589.495 526.389 590.194 526.389C591.242 526.272 592.058 526.971 592.058 528.02ZM591.009 528.02C591.009 527.437 590.543 527.088 589.961 527.088C589.262 527.088 588.796 527.437 588.796 528.02C588.796 528.486 589.262 528.952 589.961 528.952C590.66 528.952 591.009 528.602 591.009 528.02Z" fill="white"/>
<path d="M592.524 526.156C592.524 525.807 592.757 525.457 593.223 525.457C593.572 525.457 593.921 525.69 593.921 526.156C593.921 526.505 593.572 526.855 593.223 526.855C592.873 526.738 592.524 526.505 592.524 526.156ZM592.524 529.068C592.524 528.719 592.757 528.369 593.223 528.369C593.572 528.369 593.921 528.602 593.921 529.068C593.921 529.418 593.572 529.767 593.223 529.767C592.873 529.767 592.524 529.534 592.524 529.068Z" fill="white"/>
<path d="M594.504 526.971C594.504 525.107 595.436 524.176 596.834 524.176C598.115 524.176 599.164 525.224 599.164 526.971C599.164 528.835 598.232 529.767 596.834 529.767C595.436 529.767 594.504 528.719 594.504 526.971ZM597.999 526.971C597.999 525.69 597.533 524.991 596.717 524.991C596.019 524.991 595.436 525.573 595.436 526.971C595.436 528.253 595.902 528.952 596.717 528.952C597.533 528.835 597.999 528.253 597.999 526.971Z" fill="white"/>
<path d="M599.746 526.971C599.746 525.107 600.678 524.176 602.076 524.176C603.357 524.176 604.406 525.224 604.406 526.971C604.406 528.835 603.474 529.767 602.076 529.767C600.794 529.767 599.746 528.719 599.746 526.971ZM603.357 526.971C603.357 525.69 602.891 524.991 602.076 524.991C601.377 524.991 600.795 525.573 600.795 526.971C600.795 528.253 601.26 528.952 602.076 528.952C602.775 528.835 603.357 528.253 603.357 526.971Z" fill="white"/>
<path d="M613.258 526.622H611.395V521.147H616.869V523.011H613.258V526.622Z" fill="white"/>
<path d="M616.869 533.728H611.395V528.253H613.258V531.864H616.869V533.728Z" fill="white"/>
<path d="M625.606 533.728H620.131V531.864H623.626V528.253H625.606V533.728Z" fill="white"/>
<path d="M625.606 526.622H623.626V523.011H620.131V521.147H625.606V526.622Z" fill="white"/>
<path d="M195.415 277.103H165.361L150.451 303.08L165.361 329.057H195.415L210.326 303.08L195.415 277.103Z" fill="#EBEBEB"/>
<path d="M167.808 308.206C166.526 306.691 165.128 305.177 164.197 303.43C163.265 301.683 162.682 299.702 162.915 297.722C163.148 296.557 163.614 295.509 163.614 294.344C163.731 292.713 163.032 291.082 163.614 289.568C164.546 287.238 167.691 286.889 169.555 285.258C171.069 283.976 171.768 281.996 173.399 280.831C174.797 279.899 176.661 279.899 178.408 280.132C180.155 280.365 181.786 280.831 183.534 280.598C184.698 280.482 185.863 279.899 187.028 279.666C188.193 279.317 189.474 279.317 190.639 279.899C191.688 280.482 192.27 281.996 191.571 283.044C193.552 282.112 195.998 283.627 196.58 285.724C197.163 287.82 195.998 290.034 194.367 291.432C192.736 292.829 190.523 293.412 188.426 293.878C182.369 295.043 175.845 294.344 170.72 291.082" fill="#263238"/>
<path d="M195.648 314.613C195.415 310.885 194.366 303.314 193.435 296.441C192.386 288.985 185.746 283.743 178.291 284.209H177.592C169.671 285.258 166.06 292.597 167.225 300.518L169.554 329.057H189.008L188.542 324.048C188.426 323.932 195.997 322.301 195.648 314.613Z" fill="#FFD4BE"/>
<path d="M188.426 323.816C188.426 323.816 183.65 324.515 178.175 321.602C178.175 321.602 180.971 326.961 188.542 325.796L188.426 323.816Z" fill="#EB996E"/>
<path d="M190.872 302.964C190.988 303.546 190.522 304.012 189.94 304.129C189.357 304.245 188.775 303.779 188.775 303.197C188.659 302.615 189.125 302.149 189.707 302.032C190.289 301.916 190.872 302.382 190.872 302.964Z" fill="#263238"/>
<path d="M191.92 300.168C191.804 300.285 190.872 299.702 189.707 299.819C188.542 299.935 187.727 300.518 187.61 300.401C187.494 300.285 187.61 300.052 188.076 299.819C188.426 299.469 189.008 299.236 189.823 299.12C190.522 299.12 191.221 299.353 191.571 299.586C191.92 299.935 192.037 300.168 191.92 300.168Z" fill="#263238"/>
<path d="M179.689 303.779C179.805 304.362 179.34 304.828 178.757 304.944C178.175 305.061 177.592 304.595 177.592 304.012C177.476 303.43 177.942 302.964 178.524 302.848C179.107 302.731 179.689 303.197 179.689 303.779Z" fill="#263238"/>
<path d="M180.388 301.217C180.271 301.333 179.34 300.867 178.175 300.867C177.01 300.984 176.194 301.566 176.078 301.45C175.961 301.333 176.078 301.1 176.544 300.867C176.893 300.518 177.476 300.285 178.291 300.168C178.99 300.168 179.689 300.401 180.039 300.634C180.271 300.867 180.388 301.1 180.388 301.217Z" fill="#263238"/>
<path d="M185.281 309.72C185.281 309.604 185.98 309.487 187.144 309.254C187.494 309.254 187.727 309.138 187.727 308.905C187.727 308.672 187.61 308.322 187.494 307.973C187.144 307.274 186.795 306.459 186.446 305.76C184.931 302.615 183.883 299.935 183.999 299.935C184.116 299.935 185.397 302.382 186.912 305.643C187.261 306.459 187.61 307.158 187.96 307.857C188.076 308.206 188.309 308.555 188.193 309.021C188.076 309.254 187.96 309.487 187.727 309.487C187.494 309.604 187.377 309.604 187.261 309.604C185.98 309.72 185.281 309.72 185.281 309.72Z" fill="#263238"/>
<path d="M180.388 296.557C180.272 296.907 179.107 296.79 177.709 297.023C176.311 297.256 175.263 297.722 175.03 297.489C174.913 297.373 175.146 297.023 175.496 296.674C175.962 296.324 176.661 295.975 177.476 295.858C178.291 295.742 179.107 295.742 179.573 295.975C180.155 296.208 180.388 296.441 180.388 296.557Z" fill="#263238"/>
<path d="M191.338 296.79C191.105 297.023 190.29 296.79 189.358 296.907C188.426 296.907 187.61 297.256 187.377 296.907C187.261 296.79 187.377 296.441 187.727 296.208C188.076 295.975 188.659 295.742 189.358 295.625C190.057 295.625 190.639 295.858 190.989 296.091C191.222 296.441 191.338 296.674 191.338 296.79Z" fill="#263238"/>
<path d="M168.157 306.109C168.04 306.109 162.798 304.944 163.264 310.186C163.73 315.428 169.438 313.681 169.438 313.565C169.438 313.332 168.157 306.109 168.157 306.109Z" fill="#FFD4BE"/>
<path d="M167.108 311.817C167.108 311.817 166.992 311.934 166.875 311.934C166.759 312.05 166.526 312.05 166.176 312.05C165.594 311.934 165.011 311.118 164.895 310.07C164.778 309.604 164.895 309.138 165.011 308.789C165.128 308.439 165.361 308.09 165.594 307.973C165.827 307.857 166.06 307.973 166.176 308.206C166.293 308.323 166.293 308.439 166.293 308.439C166.293 308.439 166.409 308.323 166.293 308.09C166.293 307.973 166.176 307.857 166.06 307.74C165.943 307.624 165.71 307.624 165.594 307.624C165.244 307.74 164.895 308.09 164.662 308.556C164.545 309.022 164.429 309.488 164.545 310.07C164.662 311.118 165.361 312.05 166.06 312.167C166.409 312.283 166.759 312.05 166.875 311.934C167.108 311.934 167.108 311.817 167.108 311.817Z" fill="#EB996E"/>
<path d="M192.969 289.102C192.619 291.199 188.425 293.062 184.814 292.946C181.553 292.829 179.922 291.199 177.592 290.15C176.078 289.451 176.078 289.451 174.097 289.801C172.467 290.034 171.651 292.014 170.719 293.412C172.467 297.256 171.768 301.683 171.069 305.76C170.952 306.226 170.836 306.692 170.486 307.041C169.904 307.507 168.972 307.274 168.39 306.692C167.458 305.876 166.992 304.595 166.759 303.313C166.06 300.518 165.827 297.605 166.293 294.81C166.759 292.014 167.924 289.218 169.787 287.122C172.234 284.442 175.728 282.928 179.339 282.811C182.951 282.578 186.562 283.743 189.474 285.724C190.872 286.539 192.153 287.704 192.969 289.102Z" fill="#263238"/>
<path d="M185.979 312.4C185.048 311.934 184.232 311.584 183.3 311.118C183.184 311.002 182.951 311.002 182.834 311.002C182.601 311.002 182.485 311.118 182.368 311.351C181.786 312.05 181.553 313.215 182.019 314.031C182.485 314.846 183.65 315.312 184.582 314.963C185.514 314.497 185.979 313.448 185.979 312.4Z" fill="#EB996E"/>
<path d="M184.699 315.079C184.699 315.079 184.116 315.545 183.184 315.195C182.718 315.079 182.136 314.729 181.786 314.03C181.437 313.448 181.32 312.632 181.553 311.817C181.67 311.468 181.903 311.118 182.252 310.885C182.369 310.769 182.485 310.652 182.718 310.536C182.835 310.419 183.301 310.419 183.417 310.536C184 310.885 184.466 311.118 184.815 311.468C185.63 311.933 186.096 312.399 185.98 312.399C185.98 312.516 185.397 312.283 184.582 311.817C184.116 311.584 183.65 311.351 183.184 311.118C183.068 311.118 183.068 311.118 182.951 311.118C182.835 311.235 182.718 311.235 182.602 311.351C182.369 311.584 182.252 311.817 182.136 312.166C181.903 312.749 182.019 313.331 182.252 313.914C182.485 314.38 182.951 314.729 183.301 314.962C184.116 315.195 184.699 315.079 184.699 315.079Z" fill="#263238"/>
<path d="M183.883 303.081C183.766 303.081 183.883 302.615 183.65 301.799C183.417 300.984 182.834 299.819 181.67 298.887C180.505 297.955 178.524 297.489 176.661 298.188C174.797 298.771 173.282 300.751 173.282 303.081C173.282 305.411 174.797 307.274 176.661 307.973C178.524 308.672 180.388 308.206 181.67 307.274C182.834 306.342 183.417 305.178 183.65 304.362C183.766 303.547 183.766 303.081 183.883 303.081C183.883 303.081 183.883 303.197 183.883 303.43C183.883 303.663 183.883 304.013 183.766 304.479C183.65 305.294 183.067 306.575 181.786 307.624C180.505 308.672 178.408 309.255 176.428 308.556C174.331 307.857 172.583 305.76 172.583 303.197C172.583 300.635 174.331 298.421 176.428 297.839C178.524 297.14 180.621 297.722 181.786 298.771C183.067 299.819 183.65 301.1 183.766 301.916C183.883 302.382 183.883 302.731 183.883 302.964V303.081Z" fill="#263238"/>
<path d="M196.929 302.615C196.813 302.615 196.929 302.149 196.696 301.333C196.463 300.518 195.881 299.353 194.716 298.538C193.551 297.606 191.687 297.14 189.94 297.839C188.193 298.421 186.562 300.402 186.678 302.615C186.678 304.828 188.193 306.692 189.94 307.391C191.687 308.09 193.668 307.624 194.716 306.692C195.881 305.877 196.463 304.712 196.696 303.896C196.813 303.081 196.813 302.498 196.929 302.615C196.929 302.615 196.929 302.731 196.929 302.964C196.929 303.197 196.929 303.547 196.813 303.896C196.696 304.712 196.114 305.993 194.833 306.925C193.668 307.973 191.571 308.556 189.591 307.74C187.61 307.041 185.863 304.945 185.863 302.498C185.863 300.052 187.61 297.839 189.591 297.256C191.571 296.557 193.668 297.14 194.833 298.072C196.114 299.12 196.58 300.285 196.813 301.1C196.929 301.566 196.929 301.916 196.929 302.032C196.929 302.382 196.929 302.615 196.929 302.615Z" fill="#263238"/>
<path d="M186.212 301.333C186.096 301.45 185.63 301.1 184.931 301.1C184.232 301.1 183.766 301.45 183.649 301.333C183.533 301.217 183.999 300.518 184.931 300.518C185.863 300.518 186.445 301.217 186.212 301.333Z" fill="#263238"/>
<path d="M173.166 302.265C173.283 302.382 172.234 303.314 170.836 304.362C169.438 305.411 168.274 306.109 168.157 305.993C168.041 305.876 169.089 304.945 170.487 303.896C171.885 302.848 173.166 302.149 173.166 302.265Z" fill="#263238"/>
<path d="M281.383 302.848C281.383 302.964 267.871 303.197 251.329 303.197C234.672 303.197 221.275 303.08 221.275 302.848C221.275 302.615 234.788 302.498 251.329 302.498C267.871 302.498 281.383 302.615 281.383 302.848Z" fill="#263238"/>
<path d="M253.543 309.138C253.543 309.254 246.437 309.487 237.584 309.487C228.731 309.487 221.625 309.371 221.625 309.138C221.625 308.905 228.731 308.788 237.584 308.788C246.321 308.788 253.543 308.905 253.543 309.138Z" fill="#263238"/>
<path d="M461.707 349.327C461.707 349.327 477.666 357.131 483.374 377.284C489.082 397.436 506.206 449.856 506.206 449.856C506.206 449.856 515.991 461.388 517.039 470.008C518.088 478.629 515.991 499.247 512.846 503.208C509.701 507.052 505.158 506.469 505.158 506.469L463.804 502.509L447.496 393.359L461.707 349.327Z" fill="#B489C9"/>
<path d="M324.834 347.462C324.834 347.462 295.246 356.781 287.907 364.819L312.137 477.58L311.787 513.109H452.039C452.039 511.361 453.32 394.99 453.32 394.99L461.707 349.326L411.85 340.59L402.065 332.901L346.617 335.697L338.23 344.084L324.834 347.462Z" fill="#B489C9"/>
<g opacity="0.3">
<path opacity="0.3" d="M336.016 445.196C335.55 444.265 334.968 443.216 333.92 442.983C332.172 442.634 331.124 444.614 330.541 446.245C325.998 459.175 319.941 471.057 312.136 482.24L311.787 499.596C319.941 492.724 327.979 485.385 333.221 476.066C338.463 466.63 340.443 454.981 336.016 445.196Z" fill="black"/>
</g>
<path d="M287.79 364.819C287.79 364.819 278.005 378.099 274.045 386.836C269.968 395.456 236.419 468.377 234.439 475.949C232.458 483.521 227.216 507.168 242.593 512.643H274.045L305.729 448.691L307.36 374.371L287.79 364.819Z" fill="#B489C9"/>
<path d="M276.025 466.397C276.025 466.397 275.326 465.815 273.928 464.999C272.53 464.184 270.2 463.252 267.288 462.553C265.774 462.204 264.259 461.971 262.512 461.854C260.765 461.738 258.901 461.738 257.037 462.204C253.193 463.019 249.465 465.465 246.437 468.843C243.408 472.222 241.544 476.182 240.379 480.026C239.215 483.87 238.749 487.365 238.516 490.394C238.166 493.422 238.166 495.752 238.05 497.5C238.05 498.315 237.933 498.897 237.933 499.48C237.933 499.946 237.817 500.179 237.817 500.179C237.817 500.179 237.817 499.946 237.817 499.48C237.817 499.014 237.817 498.315 237.817 497.5C237.817 495.869 237.933 493.422 238.166 490.394C238.399 487.365 238.865 483.754 239.913 479.91C240.962 476.066 242.942 471.989 245.971 468.494C249 464.999 252.96 462.553 256.921 461.738C258.901 461.272 260.881 461.272 262.629 461.388C264.376 461.505 266.007 461.854 267.521 462.204C270.433 462.903 272.763 463.951 274.161 464.766C274.86 465.232 275.442 465.582 275.675 465.931C275.908 466.164 276.025 466.397 276.025 466.397Z" fill="#263238"/>
<path d="M261.115 453.583C261.115 453.583 261.464 453.467 262.163 453.467C262.862 453.35 263.91 453.35 265.075 453.467C266.357 453.467 267.755 453.7 269.385 454.049C271.016 454.399 272.647 454.981 274.394 455.797C276.142 456.612 277.656 457.544 278.937 458.592C280.219 459.641 281.267 460.573 282.083 461.504C282.898 462.436 283.48 463.252 283.946 463.834C284.296 464.417 284.529 464.766 284.529 464.766C284.412 464.883 283.597 463.601 281.85 461.854C281.034 460.922 279.869 459.99 278.588 459.058C277.307 458.126 275.792 457.194 274.161 456.379C272.531 455.564 270.783 454.981 269.269 454.632C267.755 454.282 266.24 453.933 265.075 453.933C262.629 453.583 261.115 453.7 261.115 453.583Z" fill="#263238"/>
<path d="M289.654 450.089C289.654 450.089 289.072 450.089 288.14 449.972C287.208 449.856 285.81 449.739 284.179 449.623C280.801 449.39 276.258 449.273 271.133 449.856C266.007 450.438 261.58 451.603 258.435 452.652C256.804 453.118 255.523 453.584 254.708 453.933C253.776 454.282 253.31 454.399 253.31 454.399C253.31 454.399 253.776 454.166 254.591 453.7C255.407 453.351 256.688 452.768 258.319 452.186C261.464 451.021 266.007 449.856 271.133 449.157C276.258 448.575 280.918 448.691 284.296 449.04C285.927 449.273 287.324 449.39 288.256 449.623C289.072 449.972 289.654 450.089 289.654 450.089Z" fill="#263238"/>
<path d="M379.35 387.884C379.35 387.884 379.234 387.767 379.001 387.534C378.768 387.185 378.535 386.835 378.185 386.37C377.37 385.321 376.322 383.807 375.04 381.943C372.361 378.099 368.517 372.74 364.09 366.45L364.556 366.334C362.809 371.343 360.945 376.817 358.965 382.642L358.848 382.991L358.499 382.758C358.266 382.642 358.033 382.525 357.8 382.292C355.237 380.662 352.907 378.681 350.927 376.468C348.947 374.255 347.316 372.041 346.035 369.712C343.355 365.052 341.725 360.509 340.676 356.665C339.628 352.821 339.045 349.559 338.579 347.346C338.346 346.298 338.23 345.482 338.113 344.783C338.113 344.55 337.997 344.317 337.997 344.084C337.997 343.968 337.88 343.851 337.88 343.851C337.997 343.851 338.346 345.016 338.812 347.229C339.278 349.443 339.861 352.588 341.026 356.432C342.19 360.276 343.821 364.703 346.501 369.362C347.782 371.576 349.413 373.905 351.393 376.002C353.373 378.099 355.587 380.079 358.149 381.71C358.382 381.826 358.615 381.943 358.848 382.176L358.382 382.292C360.363 376.468 362.226 370.993 363.974 365.984L364.207 365.518L364.556 365.984C368.983 372.391 372.71 377.749 375.39 381.594C376.671 383.457 377.719 384.972 378.418 386.02C378.768 386.486 379.001 386.952 379.234 387.185C379.35 387.651 379.467 387.884 379.35 387.884Z" fill="#263238"/>
<g opacity="0.3">
<path opacity="0.3" d="M415.927 441.702C414.646 454.748 417.558 468.144 424.081 479.56C430.605 490.86 440.157 500.994 452.038 506.469C452.388 494.937 451.922 481.308 452.271 469.659L415.927 441.702Z" fill="black"/>
</g>
<path d="M414.646 426.442C414.646 426.442 409.521 427.84 413.365 438.324C417.209 448.808 418.49 448.109 421.053 457.894C423.616 467.679 426.528 476.532 431.071 482.123C435.497 487.598 452.039 498.897 452.039 498.897L466.949 484.919C466.949 484.919 464.503 474.435 465.085 467.329C465.668 460.223 467.182 442.867 466.949 439.838C466.716 436.809 463.571 429.703 463.571 429.703V424.811L455.883 401.28C455.883 401.28 451.689 399.416 450.175 406.173L447.612 398.951C447.612 398.951 443.535 398.252 442.487 406.639C441.438 414.909 443.302 426.442 443.302 426.442L441.205 440.886L438.06 450.671L435.264 451.137C435.264 451.137 431.071 449.972 428.858 442.168C426.528 434.014 420.354 424.694 414.646 426.442Z" fill="#FFD4BE"/>
<path d="M461.824 463.369C461.824 463.369 461.824 463.136 461.707 462.786C461.707 462.437 461.591 461.854 461.591 461.272C461.474 459.874 461.358 457.894 461.241 455.447C461.008 450.322 460.659 443.333 460.309 435.062L460.426 435.178C459.727 434.363 458.562 434.13 457.397 434.363C456.232 434.596 455.3 435.295 454.601 436.343C453.32 438.44 453.203 441.119 452.854 443.799C452.039 449.739 451.223 455.447 450.524 460.573C450.175 463.136 449.825 465.582 449.243 467.912C448.777 470.241 448.078 472.222 447.379 474.086C446.68 475.949 446.098 477.58 445.748 479.095C445.399 480.609 445.282 481.89 445.282 483.055C445.282 485.268 445.981 486.317 445.865 486.433C445.865 486.433 445.748 486.2 445.515 485.618C445.399 485.035 445.049 484.22 445.049 483.055C444.933 481.89 445.049 480.609 445.399 479.095C445.748 477.58 446.331 475.833 446.913 473.969C447.612 472.105 448.194 470.125 448.66 467.795C449.126 465.582 449.476 463.136 449.825 460.573C450.524 455.447 451.223 449.739 452.039 443.799C452.272 442.517 452.388 441.119 452.621 439.838C452.854 438.557 453.203 437.275 453.902 436.11C454.601 434.945 455.766 434.13 457.048 433.897C458.329 433.548 459.727 433.897 460.659 434.829L460.775 434.945V435.062C461.008 443.333 461.358 450.322 461.474 455.447C461.591 457.894 461.591 459.874 461.591 461.272C461.591 461.854 461.591 462.437 461.591 462.786C461.94 463.136 461.824 463.369 461.824 463.369Z" fill="#FFD4BE"/>
<path d="M453.786 436.576C453.786 436.576 453.553 436.11 453.204 435.295C452.854 434.363 452.388 433.082 451.922 431.451C451.456 429.82 451.107 427.84 450.874 425.626C450.757 424.462 450.641 423.297 450.757 422.132C450.874 420.85 451.223 419.569 452.039 418.521C452.738 417.589 453.67 416.773 454.718 416.424L454.951 416.307L455.068 416.54C457.164 420.384 459.145 423.646 460.426 426.092C461.008 427.257 461.591 428.189 461.94 428.888C462.29 429.587 462.406 429.937 462.406 429.937C462.406 429.937 462.173 429.587 461.707 429.005C461.241 428.306 460.659 427.374 460.077 426.209C458.679 423.879 456.698 420.501 454.602 416.773L454.951 416.89C454.019 417.123 453.204 417.822 452.505 418.754C451.806 419.802 451.456 420.967 451.34 422.132C451.223 423.297 451.223 424.462 451.34 425.51C451.573 427.723 451.922 429.704 452.272 431.334C452.621 432.965 453.087 434.247 453.32 435.178C453.67 436.11 453.786 436.576 453.786 436.576Z" fill="#FFD4BE"/>
<path d="M450.175 438.556C450.175 438.556 450.058 438.09 450.058 437.159C450.058 436.11 449.942 434.945 449.942 433.431C449.825 430.286 449.709 425.976 449.709 421.2C449.709 416.424 449.476 412.114 449.942 408.968C450.175 407.454 450.408 406.173 450.757 405.357C450.99 404.542 451.223 404.076 451.34 404.076C451.456 404.076 450.641 405.94 450.408 408.968C450.058 411.997 450.408 416.424 450.408 421.083C450.524 425.859 450.524 430.169 450.524 433.314C450.524 434.829 450.524 435.994 450.524 437.042C450.291 437.974 450.175 438.556 450.175 438.556Z" fill="#FFD4BE"/>
<path d="M437.594 477.696C437.478 477.58 438.41 476.531 439.575 474.551C440.157 473.619 440.74 472.338 441.322 470.94C441.904 469.542 442.37 467.911 442.603 466.164C442.953 464.417 443.069 462.786 443.069 461.271C443.069 459.757 442.953 458.359 442.72 457.311C442.37 455.098 441.904 453.7 441.904 453.7C441.904 453.7 442.137 454.049 442.37 454.632C442.603 455.214 442.836 456.146 443.186 457.311C443.419 458.476 443.652 459.874 443.652 461.388C443.652 462.902 443.535 464.65 443.302 466.397C442.953 468.144 442.487 469.775 441.904 471.173C441.322 472.571 440.623 473.852 440.041 474.784C439.458 475.716 438.876 476.531 438.41 476.997C437.944 477.463 437.594 477.696 437.594 477.696Z" fill="#FFD4BE"/>
<path d="M463.688 470.358L476.618 474.784C476.618 474.784 488.966 468.377 497.469 474.784C505.973 481.191 513.312 497.965 510.982 504.722C510.982 504.722 505.157 511.944 500.614 512.992C496.188 514.041 478.831 509.847 471.609 508.333C464.387 506.818 451.922 498.781 451.922 498.781L463.688 470.358Z" fill="#FFD4BE"/>
<path d="M465.319 489.345C465.319 489.345 465.202 488.996 465.202 488.18C465.202 487.365 465.086 486.316 464.969 485.035C464.853 482.356 464.62 478.745 464.62 474.784C464.503 470.707 464.62 467.096 464.969 464.417C465.086 463.135 465.202 462.087 465.319 461.271C465.435 460.572 465.552 460.106 465.552 460.106C465.668 460.106 465.435 461.737 465.319 464.417C465.202 467.096 465.086 470.707 465.202 474.667C465.319 478.628 465.319 482.123 465.435 484.918C465.435 486.2 465.435 487.248 465.435 488.064C465.319 488.996 465.319 489.345 465.319 489.345Z" fill="#FFD4BE"/>
<path d="M507.836 474.318C507.72 474.435 506.439 472.571 503.526 470.474C500.731 468.377 496.071 466.048 490.713 465.815C485.238 465.465 480.462 467.212 477.433 469.076C474.288 470.824 472.773 472.571 472.773 472.454C472.773 472.454 473.123 471.989 473.822 471.29C474.521 470.591 475.686 469.659 477.2 468.727C480.229 466.863 485.121 464.999 490.713 465.232C496.304 465.582 500.964 467.911 503.759 470.125C505.157 471.29 506.206 472.338 506.904 473.037C507.487 473.852 507.836 474.318 507.836 474.318Z" fill="#263238"/>
<path d="M506.205 463.602C506.089 463.718 504.458 461.971 500.847 460.689C497.352 459.292 491.877 458.709 486.286 460.223C483.49 461.039 480.927 462.087 478.831 463.369C476.617 464.65 474.87 465.931 473.356 467.213C471.958 468.494 470.793 469.542 470.094 470.241C469.279 470.94 468.929 471.406 468.929 471.406C468.929 471.406 469.279 470.94 469.978 470.125C470.677 469.31 471.725 468.145 473.123 466.863C474.521 465.582 476.384 464.184 478.598 462.903C480.811 461.621 483.374 460.456 486.169 459.641C491.877 458.01 497.469 458.709 500.963 460.223C502.711 460.922 504.109 461.854 504.924 462.437C505.39 462.786 505.623 463.019 505.856 463.252C506.089 463.485 506.205 463.602 506.205 463.602Z" fill="#263238"/>
<path d="M506.322 454.282C506.322 454.399 503.992 453.7 500.265 453.234C498.401 453.001 496.187 452.768 493.625 452.768C491.178 452.768 488.383 453.001 485.587 453.467C482.791 453.933 480.112 454.748 477.782 455.563C475.453 456.379 473.356 457.311 471.725 458.243C468.347 459.99 466.483 461.388 466.366 461.271C466.366 461.271 466.832 460.922 467.648 460.223C468.114 459.873 468.58 459.524 469.279 459.175C469.978 458.825 470.677 458.243 471.492 457.893C473.123 456.961 475.22 456.029 477.549 455.097C479.879 454.282 482.558 453.467 485.471 453.001C488.383 452.535 491.178 452.302 493.625 452.302C496.187 452.302 498.401 452.535 500.265 452.884C501.196 453.001 502.012 453.234 502.827 453.35C503.526 453.467 504.225 453.7 504.691 453.816C505.739 454.049 506.322 454.166 506.322 454.282Z" fill="#263238"/>
<path d="M407.424 340.24C407.424 340.24 408.006 341.405 408.355 343.619C408.705 345.948 408.588 349.327 407.889 353.637C407.54 355.733 406.958 358.063 406.259 360.626C405.443 363.072 404.278 365.635 402.881 368.431C400.085 373.789 396.59 379.613 392.513 385.904L392.047 386.603V385.787C392.047 381.71 392.047 377.4 392.047 372.857L392.513 373.09C389.018 375.886 385.407 378.798 381.68 381.827L381.796 381.71C379.233 389.748 377.603 398.601 376.904 407.804C375.855 422.015 376.671 435.528 377.37 447.876C377.952 460.223 378.301 471.29 378.651 480.609C379 489.928 379.35 497.5 379.583 502.625C379.699 505.188 379.816 507.168 379.932 508.566C379.932 509.265 380.049 509.731 380.049 510.08C380.049 510.43 380.049 510.663 380.049 510.663C380.049 510.663 380.049 510.43 379.932 510.08C379.932 509.731 379.816 509.148 379.816 508.566C379.699 507.168 379.466 505.188 379.35 502.625C379 497.383 378.651 489.928 378.185 480.609C377.719 471.29 377.253 460.223 376.671 447.876C375.972 435.528 375.04 422.015 376.205 407.804C376.904 398.485 378.534 389.515 381.097 381.477V381.361H381.214C384.941 378.332 388.669 375.42 392.164 372.624L392.63 372.275V372.857C392.63 377.4 392.63 381.71 392.63 385.787L392.164 385.671C400.201 373.207 406.725 362.49 407.657 353.753C408.472 349.56 408.588 346.065 408.239 343.852C408.122 342.687 407.889 341.871 407.773 341.289C407.54 340.473 407.424 340.24 407.424 340.24Z" fill="#263238"/>
<path d="M386.572 490.394H386.106C384.475 490.394 382.961 492.025 382.961 493.655C382.961 495.286 384.475 496.917 386.106 496.917C387.737 497.034 389.368 495.519 389.484 493.888C389.601 492.258 388.203 490.627 386.572 490.394Z" fill="white"/>
<path d="M386.572 445.546H386.106C384.475 445.546 382.961 447.177 382.961 448.808C382.961 450.438 384.475 452.069 386.106 452.069C387.737 452.186 389.368 450.671 389.484 449.041C389.601 447.41 388.203 445.662 386.572 445.546Z" fill="white"/>
<path d="M386.106 405.357C387.737 405.474 389.368 403.959 389.485 402.329C389.601 400.698 388.203 398.95 386.572 398.834H386.106C384.476 398.834 382.961 400.465 382.961 402.096C382.961 403.726 384.476 405.357 386.106 405.357Z" fill="white"/>
<path d="M335.784 287.588C331.706 283.045 327.629 278.502 324.601 273.143C321.572 267.785 319.825 261.611 320.873 255.553C321.456 252.059 322.97 248.681 323.203 245.186C323.552 240.293 321.456 235.168 323.203 230.625C325.882 223.403 335.551 222.354 341.375 217.345C345.918 213.501 348.131 207.211 353.14 203.949C357.567 201.153 363.158 201.153 368.284 201.852C373.409 202.551 378.651 203.833 383.777 203.134C387.504 202.668 390.882 201.153 394.494 200.221C398.105 199.29 402.182 199.057 405.327 200.92C408.589 202.784 410.336 207.327 408.239 210.356C414.18 207.56 421.868 212.22 423.499 218.627C425.13 225.033 421.868 231.906 416.743 236.1C411.617 240.293 405.094 242.274 398.571 243.439C380.282 246.933 360.363 244.953 344.52 235.051" fill="#263238"/>
<path d="M400.318 349.21C399.386 342.221 398.687 336.513 398.687 335.697C398.687 335.697 421.868 330.455 420.587 307.041C420.005 295.742 416.743 272.444 413.714 251.476C410.336 228.878 390.184 212.686 367.468 214.2L365.255 214.317C340.909 217.345 329.959 239.711 333.687 263.941L346.85 345.133C346.85 345.133 352.441 363.072 364.44 366.217L379.583 387.768L382.029 378.448L393.329 368.663C393.329 368.663 395.892 365.868 398.92 360.393C401.133 356.083 400.668 351.423 400.318 349.21Z" fill="#FFD4BE"/>
<path d="M398.687 335.464C398.687 335.464 383.893 337.678 367.585 328.824C367.585 328.824 375.972 345.249 399.153 341.522L398.687 335.464Z" fill="#EB996E"/>
<path d="M406.142 271.629C406.375 273.376 404.977 275.007 403.113 275.24C401.249 275.473 399.618 274.191 399.502 272.444C399.269 270.697 400.667 269.066 402.531 268.833C404.278 268.716 405.909 269.881 406.142 271.629Z" fill="#263238"/>
<path d="M409.403 263.358C409.054 263.824 406.375 262.077 402.764 262.31C399.152 262.542 396.59 264.523 396.24 264.173C396.007 263.94 396.357 263.125 397.522 262.31C398.57 261.378 400.434 260.446 402.764 260.329C404.977 260.213 406.957 260.912 408.122 261.611C409.17 262.426 409.636 263.125 409.403 263.358Z" fill="#263238"/>
<path d="M372.128 274.075C372.361 275.822 370.963 277.453 369.099 277.686C367.235 277.919 365.604 276.638 365.488 274.89C365.255 273.143 366.653 271.512 368.517 271.279C370.264 271.163 371.895 272.328 372.128 274.075Z" fill="#263238"/>
<path d="M373.991 266.386C373.642 266.852 370.963 265.105 367.351 265.338C363.74 265.571 361.178 267.551 360.828 267.202C360.595 266.969 360.945 266.153 362.11 265.338C363.158 264.406 365.022 263.474 367.351 263.358C369.565 263.241 371.545 263.94 372.71 264.639C373.758 265.455 374.224 266.153 373.991 266.386Z" fill="#263238"/>
<path d="M388.902 292.247C388.902 292.014 391.115 291.548 394.727 290.849C395.658 290.733 396.474 290.5 396.59 289.801C396.707 289.102 396.357 288.17 395.775 287.122C394.727 284.908 393.678 282.695 392.63 280.249C388.203 270.58 384.942 262.543 385.291 262.31C385.64 262.077 389.601 269.881 394.028 279.55C395.076 281.996 396.124 284.209 397.056 286.423C397.522 287.471 398.105 288.636 397.755 290.034C397.522 290.733 396.94 291.315 396.357 291.432C395.775 291.665 395.309 291.665 394.843 291.781C391.232 292.247 388.902 292.48 388.902 292.247Z" fill="#263238"/>
<path d="M373.991 252.175C373.758 253.224 370.031 252.991 365.837 253.69C361.644 254.389 358.265 255.903 357.683 254.971C357.45 254.622 357.916 253.573 359.197 252.525C360.479 251.476 362.575 250.428 365.138 249.962C367.701 249.496 370.031 249.729 371.545 250.311C373.292 251.01 374.108 251.709 373.991 252.175Z" fill="#263238"/>
<path d="M407.424 252.991C406.841 253.806 404.278 253.224 401.366 253.34C398.337 253.34 395.891 254.272 395.309 253.456C395.076 253.107 395.425 252.175 396.474 251.36C397.522 250.544 399.269 249.729 401.366 249.729C403.463 249.612 405.21 250.311 406.375 251.01C407.191 251.826 407.656 252.641 407.424 252.991Z" fill="#263238"/>
<path d="M336.715 281.297C336.249 281.181 320.291 277.57 321.921 293.645C323.552 309.604 340.792 304.478 340.792 304.012C340.792 303.43 336.715 281.297 336.715 281.297Z" fill="#FFD4BE"/>
<path d="M333.687 298.654C333.57 298.654 333.454 298.887 332.988 299.12C332.522 299.353 331.823 299.586 330.891 299.353C329.143 298.887 327.396 296.324 327.047 293.528C326.814 292.131 327.047 290.616 327.396 289.451C327.746 288.286 328.445 287.355 329.26 287.122C330.075 286.889 330.774 287.238 331.007 287.704C331.24 288.17 331.24 288.403 331.24 288.519C331.24 288.519 331.59 288.17 331.357 287.588C331.24 287.238 331.007 286.889 330.658 286.656C330.192 286.423 329.609 286.306 329.027 286.423C327.746 286.656 326.814 287.821 326.348 289.218C325.882 290.5 325.649 292.131 325.765 293.761C326.231 297.023 328.095 299.819 330.541 300.285C331.706 300.518 332.638 300.052 333.104 299.586C333.687 299.003 333.687 298.654 333.687 298.654Z" fill="#EB996E"/>
<path d="M412.433 229.693C411.384 236.1 398.454 241.924 387.737 241.575C377.836 241.342 372.943 236.333 365.837 232.954C361.294 230.741 361.294 230.741 355.121 231.79C350.112 232.605 347.549 238.429 344.753 242.623C350.112 254.272 347.898 267.784 345.685 280.365C345.452 281.763 345.103 283.277 344.054 284.209C342.307 285.84 339.395 284.792 337.531 283.277C334.735 280.715 333.454 276.871 332.522 273.143C330.425 264.639 329.61 255.786 330.891 247.166C332.289 238.546 335.784 230.159 341.724 223.635C349.063 215.598 359.897 210.938 370.846 210.356C381.796 209.773 392.746 213.151 401.832 219.209C406.142 221.772 410.103 225.15 412.433 229.693Z" fill="#263238"/>
<path d="M391.232 300.401C388.553 299.12 385.757 297.838 383.078 296.557C382.612 296.324 382.146 296.091 381.563 296.207C380.981 296.324 380.515 296.673 380.166 297.139C378.302 299.469 377.836 302.847 379.234 305.527C380.748 308.089 384.126 309.487 386.922 308.322C389.834 307.157 391.232 303.779 391.465 300.634L391.232 300.401Z" fill="#E8AD8E"/>
<path d="M387.155 308.905C387.155 309.022 386.805 309.254 385.99 309.371C385.175 309.487 383.893 309.604 382.495 309.138C381.098 308.672 379.467 307.507 378.418 305.76C377.37 304.013 377.02 301.566 377.952 299.353C378.418 298.305 379.001 297.256 379.816 296.557C380.282 296.208 380.632 295.858 381.098 295.509C381.331 295.392 381.68 295.276 382.029 295.159C382.379 295.159 382.728 295.276 382.961 295.392C383.544 295.625 383.893 295.858 384.243 296.091C384.592 296.324 384.942 296.557 385.408 296.79C386.107 297.256 386.805 297.606 387.388 298.072C389.834 299.586 391.232 300.634 391.232 300.751C391.116 300.867 389.485 300.168 387.038 298.771C386.34 298.421 385.757 298.072 384.942 297.606C384.592 297.373 384.243 297.14 383.777 297.023C383.427 296.79 382.961 296.557 382.612 296.441C382.262 296.324 382.029 296.324 381.68 296.557C381.331 296.79 380.981 297.023 380.632 297.373C379.933 298.072 379.35 298.887 379.001 299.819C378.302 301.683 378.535 303.78 379.35 305.294C380.166 306.808 381.447 307.857 382.728 308.439C384.01 308.905 385.058 309.022 385.874 309.022C386.689 308.789 387.155 308.789 387.155 308.905Z" fill="#263238"/>
<path d="M384.592 272.095C384.476 272.095 384.592 270.58 384.01 268.018C383.311 265.455 381.68 261.844 377.952 258.932C376.089 257.534 373.759 256.369 370.963 255.903C368.284 255.437 365.255 255.553 362.343 256.602C360.829 257.068 359.431 257.883 358.149 258.815C356.868 259.747 355.703 260.912 354.655 262.31C352.674 264.989 351.509 268.484 351.509 271.978C351.509 275.589 352.674 278.967 354.655 281.647C355.587 283.045 356.868 284.209 358.149 285.141C359.431 286.073 360.829 286.889 362.343 287.355C365.255 288.403 368.284 288.52 370.963 288.054C373.642 287.588 376.089 286.423 377.952 285.025C381.68 282.113 383.427 278.502 384.01 275.939C384.592 273.609 384.592 272.095 384.592 272.095C384.592 272.095 384.592 272.211 384.592 272.328C384.592 272.561 384.592 272.794 384.592 273.143C384.592 273.493 384.592 273.958 384.476 274.424C384.359 274.89 384.359 275.473 384.126 276.172C383.893 277.453 383.311 279.084 382.262 280.715C381.33 282.346 379.933 284.093 378.069 285.491C376.205 286.889 373.759 288.17 370.963 288.752C368.167 289.218 365.022 289.218 361.993 288.054C360.479 287.588 359.081 286.772 357.683 285.724C356.285 284.792 355.121 283.511 354.072 282.113C351.975 279.317 350.811 275.706 350.811 272.095C350.811 268.367 351.975 264.872 354.072 262.077C355.121 260.679 356.285 259.397 357.683 258.466C358.965 257.417 360.479 256.718 361.993 256.136C365.022 254.971 368.167 254.971 370.963 255.437C373.759 255.903 376.205 257.184 378.069 258.699C379.933 260.213 381.33 261.844 382.379 263.475C383.311 265.105 383.893 266.62 384.243 268.018C384.476 268.717 384.476 269.299 384.592 269.765C384.709 270.231 384.709 270.697 384.709 271.046C384.709 271.396 384.709 271.629 384.709 271.862C384.592 271.978 384.592 272.095 384.592 272.095Z" fill="#263238"/>
<path d="M424.547 270.464C424.431 270.464 424.547 269.066 423.965 266.503C423.382 264.057 421.752 260.446 418.024 257.65C416.16 256.252 413.947 255.088 411.268 254.622C408.588 254.156 405.676 254.272 402.88 255.321C401.483 255.787 400.085 256.602 398.803 257.534C397.522 258.466 396.357 259.631 395.425 260.912C393.445 263.475 392.396 266.853 392.28 270.348C392.28 273.842 393.445 277.22 395.425 279.783C396.357 281.064 397.522 282.229 398.803 283.161C400.085 284.093 401.483 284.792 402.88 285.375C405.676 286.423 408.705 286.539 411.268 286.073C413.947 285.607 416.16 284.443 418.024 283.045C421.752 280.249 423.382 276.638 423.965 274.192C424.547 271.978 424.431 270.464 424.547 270.464C424.547 270.464 424.547 270.813 424.547 271.512C424.547 271.862 424.547 272.328 424.431 272.794C424.314 273.26 424.314 273.842 424.081 274.541C423.499 276.987 421.868 280.715 418.14 283.627C416.277 285.025 413.947 286.306 411.268 286.772C408.588 287.238 405.443 287.238 402.531 286.073C401.017 285.607 399.619 284.792 398.337 283.86C397.056 282.928 395.775 281.763 394.843 280.366C392.746 277.686 391.698 274.192 391.581 270.581C391.581 266.969 392.746 263.475 394.843 260.796C395.891 259.398 397.056 258.233 398.337 257.301C399.619 256.369 401.017 255.554 402.531 255.088C405.443 254.039 408.472 253.923 411.268 254.389C413.947 254.855 416.393 256.136 418.14 257.534C421.868 260.446 423.499 264.174 424.081 266.62C424.314 267.202 424.314 267.785 424.431 268.367C424.547 268.833 424.547 269.299 424.547 269.649C424.547 270.115 424.547 270.464 424.547 270.464Z" fill="#263238"/>
<path d="M391.931 266.853C391.814 266.969 391.465 266.62 390.766 266.27C390.067 265.921 389.018 265.571 387.853 265.571C386.689 265.571 385.64 265.921 384.941 266.27C384.242 266.62 383.893 266.969 383.776 266.853C383.776 266.853 384.009 266.387 384.708 265.804C385.407 265.339 386.572 264.873 387.853 264.873C389.135 264.873 390.3 265.339 390.999 265.804C391.698 266.387 392.047 266.736 391.931 266.853Z" fill="#263238"/>
<path d="M352.208 269.765C352.325 269.882 349.063 272.561 344.869 275.59C340.792 278.618 337.298 281.064 337.181 280.948C337.065 280.831 340.326 278.152 344.52 275.124C348.714 271.978 352.092 269.532 352.208 269.765Z" fill="#263238"/>
<g opacity="0.3">
<path opacity="0.3" d="M338.463 345.482C336.832 361.325 342.889 377.983 355.586 387.535C356.635 388.234 357.8 389.049 358.965 388.583C359.78 388.234 360.246 387.535 360.712 386.719C364.323 380.429 365.488 373.556 364.44 366.45C362.459 371.692 360.712 376.934 358.732 382.409C347.665 375.886 340.792 361.558 338.463 345.482Z" fill="black"/>
</g>
<path opacity="0.3" d="M381.33 381.477L390.649 378.099L392.164 393.825C392.164 393.825 402.182 375.536 406.375 367.149C410.569 358.762 408.356 344.084 408.356 344.084C408.356 344.084 409.87 356.898 399.735 373.323L392.164 385.671V372.741L381.33 381.477Z" fill="black"/>
<g opacity="0.3">
<path opacity="0.3" d="M273.113 461.505C268.919 459.524 264.143 459.291 259.6 459.757C254.824 460.34 249.932 461.738 246.204 464.883C242.477 467.911 239.914 472.687 240.38 477.58L240.846 477.696C244.107 468.96 250.514 462.553 258.901 461.738C267.172 460.922 275.326 464.65 281.034 470.824C280.452 466.048 277.307 463.368 273.113 461.505Z" fill="black"/>
</g>
<g opacity="0.3">
<path opacity="0.3" d="M508.419 470.474C505.274 467.096 500.964 465.116 496.421 464.301C488.499 462.903 479.996 465.349 474.055 470.824L475.802 469.426C480.345 466.747 485.471 465.232 490.713 465.349C495.955 465.465 501.197 467.446 504.924 471.057C508.419 474.319 510.516 478.862 512.496 483.172C513.311 478.512 511.564 473.853 508.419 470.474Z" fill="black"/>
</g>
<path d="M448.428 397.319C448.428 397.319 448.544 396.853 448.894 396.038C449.243 395.106 449.709 393.941 450.175 392.66C451.34 389.748 452.854 385.904 454.485 381.477C456.116 377.05 457.514 373.09 458.562 370.178C459.028 368.78 459.494 367.731 459.727 366.799C460.077 365.984 460.193 365.518 460.193 365.518C460.193 365.518 460.077 365.984 459.96 366.799C459.727 367.615 459.378 368.78 458.912 370.294C457.98 373.206 456.698 377.283 455.068 381.71C453.437 386.136 451.806 389.981 450.641 392.893C450.059 394.291 449.476 395.456 449.127 396.154C448.661 396.97 448.544 397.319 448.428 397.319Z" fill="#263238"/>
<path d="M301.536 398.485C301.42 398.485 300.138 393.01 298.74 386.137C297.343 379.264 296.294 373.673 296.527 373.673C296.644 373.673 297.925 379.148 299.323 386.02C300.721 392.893 301.769 398.485 301.536 398.485Z" fill="#263238"/>
<path d="M299.439 467.795C299.788 468.028 295.129 431.45 295.129 431.45C295.129 431.45 298.041 403.726 299.672 402.445V392.66C299.672 392.66 304.215 389.864 305.38 394.291C305.38 394.291 309.34 390.796 310.039 399.067C310.738 407.337 310.855 415.841 310.855 415.841L319.824 438.207L321.339 438.906C321.339 438.906 323.203 421.432 324.367 418.87C325.532 416.307 326.231 410.016 330.541 410.948C334.735 411.88 335.084 415.375 334.385 421.083C333.57 426.791 332.638 432.732 332.988 436.343C333.337 440.07 334.968 448.108 334.502 454.631C334.036 461.038 330.425 467.911 326.697 472.687C322.97 477.463 315.864 487.365 312.02 490.277C310.855 491.558 299.439 467.795 299.439 467.795Z" fill="#FFD4BE"/>
<path d="M303.866 438.09C303.866 438.09 303.866 437.508 303.866 436.576C303.982 435.411 304.099 434.013 304.215 432.382C304.448 428.771 304.914 423.879 305.38 418.404C305.613 415.725 305.846 413.045 306.079 410.716C306.196 409.551 306.312 408.386 306.079 407.454C305.963 406.406 305.497 405.59 304.914 404.891C303.749 403.61 302.235 403.26 301.303 403.26C300.371 403.26 299.789 403.493 299.789 403.493C299.789 403.493 299.905 403.377 300.138 403.26C300.371 403.144 300.721 403.027 301.303 403.027C302.352 402.911 303.982 403.26 305.264 404.542C305.963 405.241 306.429 406.173 306.545 407.221C306.778 408.269 306.662 409.434 306.545 410.599C306.312 412.929 306.079 415.608 305.846 418.287C305.38 423.762 304.914 428.655 304.448 432.266C304.215 434.013 304.099 435.411 303.982 436.459C303.982 437.508 303.982 438.09 303.866 438.09Z" fill="#FFD4BE"/>
<path d="M308.758 423.18C308.875 423.296 307.826 424.112 307.127 426.092C306.428 427.956 306.195 430.868 305.613 434.013C305.147 437.159 304.681 439.954 304.331 441.935C303.982 443.915 303.749 445.196 303.633 445.196C303.516 445.196 303.633 443.915 303.982 441.818C304.215 439.721 304.681 436.926 305.147 433.78C305.613 430.635 305.962 427.839 306.778 425.859C307.127 424.927 307.71 424.112 308.059 423.762C308.409 423.296 308.642 423.18 308.758 423.18Z" fill="#FFD4BE"/>
<path d="M305.38 393.941C305.38 393.941 305.496 394.291 305.729 395.106C305.846 395.805 306.079 396.97 306.312 398.251C306.778 400.93 307.244 404.658 307.593 408.852C307.943 413.045 307.943 416.773 307.943 419.452C307.943 420.85 307.826 421.898 307.826 422.714C307.826 423.529 307.71 423.879 307.71 423.879C307.593 423.879 307.593 422.248 307.477 419.452C307.36 416.773 307.244 412.929 307.011 408.852C306.661 404.658 306.312 400.93 305.962 398.251C305.613 395.688 305.38 393.941 305.38 393.941Z" fill="#FFD4BE"/>
<path d="M331.24 428.188C331.357 428.305 329.959 429.004 328.212 428.421C326.464 427.955 325.649 426.558 325.882 426.558C325.998 426.441 326.93 427.373 328.445 427.839C329.843 428.305 331.124 427.955 331.24 428.188Z" fill="#FFD4BE"/>
<path d="M299.905 463.252L276.258 473.153H262.163C262.163 473.153 248.301 477.463 246.087 490.51C243.991 503.557 243.641 510.313 249.815 511.827C255.989 513.458 273.229 513.575 281.733 510.779C290.353 507.983 312.719 489.811 312.719 489.811L314.932 476.764L299.905 463.252Z" fill="#FFD4BE"/>
<path d="M305.38 477.696C305.38 477.696 305.147 477.463 304.681 477.114C304.215 476.648 303.749 476.065 303.167 475.134C302.002 473.386 300.72 470.707 299.905 467.678C298.973 464.65 298.624 461.737 298.507 459.641C298.274 457.544 298.391 456.262 298.391 456.262C298.507 456.262 298.624 457.544 298.857 459.641C299.206 461.737 299.556 464.533 300.488 467.562C301.303 470.59 302.468 473.153 303.516 475.017C304.681 476.648 305.496 477.58 305.38 477.696Z" fill="#EB996E"/>
<path d="M315.747 481.773C315.631 481.773 316.679 479.91 317.145 476.764C317.378 475.133 317.378 473.27 316.912 471.173C316.446 469.076 315.514 466.979 314 464.999C312.602 463.019 310.971 461.271 309.573 459.524C308.176 457.893 307.127 456.146 306.428 454.748C305.729 453.234 305.38 451.952 305.263 451.02C305.147 450.089 305.147 449.623 305.263 449.623C305.38 449.623 305.38 451.719 306.894 454.632C307.593 456.029 308.758 457.66 310.156 459.291C311.554 460.922 313.185 462.669 314.582 464.766C316.097 466.863 317.145 469.076 317.495 471.173C317.961 473.386 317.961 475.366 317.611 476.997C317.378 478.628 316.912 479.909 316.563 480.725C316.33 481.191 316.213 481.424 316.097 481.657C315.747 481.657 315.747 481.773 315.747 481.773Z" fill="#EB996E"/>
<path d="M279.286 424.928C279.17 425.044 276.607 420.268 273.578 414.444C270.55 408.619 268.22 403.727 268.336 403.727C268.453 403.61 271.016 408.386 274.044 414.211C277.073 420.035 279.403 424.928 279.286 424.928Z" fill="white"/>
<path d="M317.495 382.409C317.379 382.293 318.893 378.449 321.106 373.673C323.203 368.897 325.067 365.169 325.183 365.169C325.3 365.285 323.785 369.13 321.572 373.906C319.475 378.682 317.612 382.526 317.495 382.409Z" fill="white"/>
<path d="M354.887 410.017C354.771 410.133 352.325 407.454 349.529 404.076C346.733 400.698 344.52 397.786 344.636 397.669C344.753 397.553 347.199 400.232 349.995 403.61C352.791 407.105 355.004 409.9 354.887 410.017Z" fill="white"/>
<path d="M346.267 447.992C346.151 447.876 347.898 445.196 350.344 441.935C352.674 438.673 354.771 436.11 354.887 436.227C355.004 436.343 353.257 439.022 350.81 442.284C348.48 445.546 346.384 448.109 346.267 447.992Z" fill="white"/>
<path d="M334.735 501.577C334.619 501.577 334.153 500.761 333.337 499.247C332.522 497.733 331.59 495.636 330.541 493.306C329.493 490.976 328.678 488.763 328.212 487.249C327.629 485.618 327.396 484.686 327.513 484.686C327.629 484.686 327.979 485.618 328.678 487.132C329.377 488.88 330.308 490.86 331.24 493.19C332.172 495.403 333.104 497.383 333.803 499.131C334.386 500.528 334.735 501.577 334.735 501.577Z" fill="white"/>
<path d="M367.585 478.745C367.585 478.862 364.439 478.396 360.479 477.697C356.635 476.998 353.49 476.182 353.49 476.066C353.49 475.949 356.635 476.415 360.595 477.114C364.556 477.93 367.585 478.629 367.585 478.745Z" fill="white"/>
<path d="M393.096 428.655C392.979 428.539 396.008 425.044 399.852 420.967C403.696 416.773 406.958 413.512 407.074 413.628C407.191 413.745 404.162 417.239 400.318 421.316C396.474 425.51 393.212 428.772 393.096 428.655Z" fill="white"/>
<path d="M418.723 495.519C418.606 495.636 414.879 491.209 410.336 485.734C405.793 480.259 402.298 475.716 402.414 475.6C402.531 475.483 406.259 479.91 410.802 485.385C415.345 490.86 418.956 495.403 418.723 495.519Z" fill="white"/>
<path d="M259.484 466.98C259.6 467.096 256.105 468.844 252.378 471.756C248.65 474.668 245.971 477.464 245.854 477.347C245.854 477.347 246.32 476.532 247.485 475.367C248.534 474.202 250.165 472.688 252.028 471.29C253.892 469.892 255.756 468.727 257.154 468.028C258.552 467.329 259.367 466.98 259.484 466.98Z" fill="white"/>
<path d="M269.036 441.236C269.152 441.352 267.987 443.449 266.356 445.895C264.726 448.341 263.211 450.322 263.095 450.205C262.978 450.089 264.143 447.992 265.774 445.546C267.405 443.099 268.919 441.236 269.036 441.236Z" fill="white"/>
<path d="M290.702 466.513C290.586 466.63 289.304 464.533 288.722 461.737C288.023 458.942 288.256 456.495 288.489 456.612C288.722 456.612 288.722 458.942 289.421 461.621C289.887 464.417 290.819 466.513 290.702 466.513Z" fill="white"/>
<path d="M293.847 386.253C293.847 386.37 291.867 386.836 289.304 387.185C286.858 387.535 284.761 387.651 284.761 387.535C284.761 387.418 286.742 386.952 289.304 386.603C291.751 386.253 293.847 386.137 293.847 386.253Z" fill="white"/>
<path d="M310.156 357.481C310.272 357.597 308.525 358.762 306.195 360.044C303.982 361.325 302.002 362.14 302.002 362.024C301.885 361.907 303.632 360.742 305.962 359.461C308.175 358.18 310.039 357.364 310.156 357.481Z" fill="white"/>
<path d="M355.819 369.596C355.703 369.712 353.722 367.266 351.276 364.237C348.946 361.208 347.083 358.529 347.316 358.413C347.432 358.296 349.412 360.742 351.859 363.771C354.072 366.916 355.936 369.596 355.819 369.596Z" fill="white"/>
<path d="M413.714 398.601C413.597 398.718 411.501 396.504 409.52 393.359C407.54 390.214 406.492 387.302 406.725 387.302C406.841 387.185 408.123 389.981 410.103 393.01C411.967 396.155 413.947 398.485 413.714 398.601Z" fill="white"/>
<path d="M435.847 405.94C435.963 406.056 434.915 408.736 433.401 411.997C431.886 415.259 430.605 417.822 430.488 417.822C430.372 417.705 431.42 415.026 432.935 411.764C434.449 408.386 435.73 405.823 435.847 405.94Z" fill="white"/>
<path d="M438.992 375.653C438.875 375.769 436.196 372.857 433.051 369.013C429.906 365.285 427.46 362.14 427.576 362.024C427.693 361.907 430.372 364.819 433.517 368.663C436.662 372.508 439.108 375.536 438.992 375.653Z" fill="white"/>
<path d="M405.21 351.19C405.094 351.19 404.861 348.628 404.628 345.599C404.512 342.454 404.512 339.891 404.745 339.891C404.861 339.891 405.094 342.454 405.327 345.483C405.443 348.628 405.327 351.19 405.21 351.19Z" fill="white"/>
<path d="M432.702 349.676C432.702 349.792 429.556 350.375 425.479 350.957C421.519 351.54 418.257 351.773 418.257 351.656C418.257 351.54 421.402 350.957 425.479 350.375C429.44 349.792 432.702 349.443 432.702 349.676Z" fill="white"/>
<path d="M476.152 381.477C476.035 381.594 474.055 377.866 471.841 373.206C469.628 368.547 467.881 364.819 468.114 364.703C468.23 364.586 470.211 368.314 472.424 372.974C474.637 377.633 476.268 381.477 476.152 381.477Z" fill="white"/>
<path d="M468.813 409.085C468.697 409.085 469.046 406.057 469.861 402.445C470.56 398.834 471.259 395.922 471.492 395.922C471.609 395.922 471.259 398.951 470.444 402.562C469.745 406.173 469.046 409.085 468.813 409.085Z" fill="white"/>
<path d="M488.965 430.752C488.849 430.752 487.218 426.791 485.471 421.782C483.723 416.773 482.442 412.696 482.558 412.58C482.675 412.58 484.306 416.54 486.053 421.549C487.8 426.675 489.082 430.752 488.965 430.752Z" fill="white"/>
<path d="M486.17 443.449C486.17 443.566 483.374 442.983 480.229 441.353C477.2 439.722 475.103 437.625 475.22 437.625C475.336 437.508 477.433 439.256 480.462 440.887C483.607 442.517 486.17 443.333 486.17 443.449Z" fill="white"/>
<path d="M511.913 472.455C511.797 472.571 510.865 470.707 509.817 468.494C508.768 466.281 508.186 464.417 508.302 464.301C508.419 464.184 509.351 466.048 510.399 468.261C511.447 470.474 512.146 472.338 511.913 472.455Z" fill="white"/>
<path d="M359.664 512.876C359.547 512.876 359.081 510.546 358.732 507.751C358.382 504.839 358.266 502.509 358.382 502.509C358.499 502.509 358.965 504.839 359.314 507.634C359.664 510.546 359.78 512.876 359.664 512.876Z" fill="white"/>
<path d="M438.759 510.896C438.642 510.896 438.992 508.566 439.574 505.887C440.157 503.091 440.739 500.878 440.972 500.994C441.089 500.994 440.739 503.324 440.157 506.003C439.574 508.682 438.875 510.896 438.759 510.896Z" fill="white"/>
<path d="M453.903 279.899L464.154 261.843C459.611 254.505 457.048 245.885 457.048 236.565C457.048 209.89 478.598 188.339 505.274 188.339C531.95 188.339 553.5 209.89 553.5 236.565C553.5 263.241 531.95 284.792 505.274 284.792C494.208 284.792 483.957 281.064 475.803 274.657L453.903 279.899Z" fill="#FAFAFA"/>
<path d="M453.903 279.899C454.951 279.666 461.824 278.036 475.803 274.89H476.036L475.919 274.657L475.686 274.89C478.482 276.987 481.744 279.084 485.588 280.831C489.432 282.579 493.858 283.977 498.867 284.559C501.314 284.908 503.876 285.025 506.556 284.908C507.837 284.792 509.235 284.792 510.516 284.675C511.914 284.442 513.195 284.209 514.593 284.093C520.068 283.045 525.66 280.948 530.902 277.686C536.144 274.424 540.92 270.114 544.764 264.756C548.608 259.397 551.52 252.991 552.918 246.118C554.316 239.245 554.199 231.79 552.335 224.684C550.472 217.578 547.093 210.589 541.968 204.881L539.988 202.668C539.289 201.969 538.59 201.386 537.891 200.687C537.192 200.105 536.493 199.29 535.678 198.824L533.348 197.076C532.649 196.494 531.717 196.028 530.902 195.445C530.086 194.979 529.271 194.397 528.455 193.931C527.64 193.465 526.708 193.116 525.893 192.65C525.077 192.3 524.262 191.834 523.33 191.485C516.341 188.689 508.885 187.641 501.663 188.107C494.557 188.573 487.684 190.669 481.86 193.931C475.919 197.193 471.027 201.619 467.182 206.512C463.338 211.404 460.659 216.763 458.912 222.121C457.281 227.48 456.815 232.838 456.815 237.847C456.932 242.856 457.863 247.399 459.145 251.36C460.426 255.32 462.174 258.815 464.037 261.727V261.611C457.63 273.376 454.485 278.968 453.903 279.899C454.369 278.968 457.63 273.376 464.27 261.96V261.844V261.727C462.523 258.815 460.776 255.437 459.494 251.36C458.213 247.399 457.281 242.856 457.165 237.964C457.165 233.071 457.63 227.713 459.261 222.471C460.892 217.112 463.688 211.87 467.415 206.978C471.26 202.202 476.152 197.892 481.976 194.63C487.801 191.368 494.557 189.388 501.663 188.806C508.769 188.34 516.108 189.388 522.98 192.067C523.912 192.3 524.728 192.766 525.543 193.232C526.359 193.698 527.174 194.048 528.106 194.514C528.921 194.979 529.737 195.445 530.552 196.028C531.368 196.494 532.183 196.96 532.882 197.542L535.212 199.29C536.027 199.872 536.609 200.571 537.425 201.153C538.124 201.852 538.939 202.435 539.522 203.134L541.502 205.23C546.511 210.938 549.889 217.811 551.753 224.8C553.5 231.906 553.617 239.129 552.335 246.001C550.938 252.874 548.142 259.165 544.298 264.406C540.454 269.765 535.678 274.075 530.552 277.22C525.427 280.482 519.835 282.462 514.477 283.627C513.079 283.86 511.797 284.093 510.4 284.209C509.118 284.326 507.72 284.326 506.439 284.442C503.876 284.559 501.314 284.442 498.867 284.093C493.975 283.511 489.548 282.113 485.704 280.365C481.86 278.618 478.598 276.638 475.803 274.424L474.871 273.726L475.57 274.657L475.686 274.424C461.824 277.919 454.951 279.666 453.903 279.899Z" fill="#263238"/>
<path d="M518.321 234.586C518.321 237.149 520.417 239.245 522.98 239.245C525.543 239.245 527.64 237.149 527.64 234.586C527.64 232.023 525.543 229.926 522.98 229.926C520.417 229.81 518.321 231.907 518.321 234.586Z" fill="#263238"/>
<path d="M499.449 234.586C499.449 237.149 501.546 239.245 504.109 239.245C506.672 239.245 508.769 237.149 508.769 234.586C508.769 232.023 506.672 229.926 504.109 229.926C501.546 229.81 499.449 231.907 499.449 234.586Z" fill="#263238"/>
<path d="M480.579 232.256C479.297 234.469 479.996 237.381 482.326 238.663C484.539 239.944 487.451 239.245 488.733 236.915C490.014 234.702 489.315 231.79 486.985 230.508C484.772 229.227 481.86 229.926 480.579 232.256Z" fill="#263238"/>
</svg>
