<svg width="671" height="781" viewBox="0 0 671 781" fill="none" xmlns="http://www.w3.org/2000/svg">
<path d="M87.2818 197.527C94.5192 132.675 115.435 56.3411 162.994 27.408C210.553 -1.52506 284.265 17.3692 349.638 37.0684C415.042 56.3097 471.128 77.209 534.747 102.31C598.366 127.411 668.571 157.108 711.845 210.259C755.577 263.442 771.494 339.557 749.142 403.366C727.278 466.748 666.719 517.335 621.781 574.982C577.3 632.662 547.95 697.828 498.275 730.757C448.599 763.686 378.566 764.836 320.317 741.946C262.494 719.546 216.914 673.14 158.412 640.568C100.401 607.57 29.4686 588.407 16.3456 545.161C3.68072 501.947 49.2516 435.138 68.1135 375.23C87.4334 315.354 80.5025 262.411 87.2818 197.527Z" fill="#D6A2EE" fill-opacity="0.3"/>
<path d="M471.534 164.431H563.004C563.004 164.431 554.941 149.695 531.448 151.92C508.928 154.005 507.816 144.691 496.417 143.579C484.879 142.328 475.287 151.086 471.534 164.431Z" fill="#E0E0E0"/>
<path d="M232.573 406.033C232.573 406.033 223.398 411.037 236.743 430.082C250.088 449.266 258.707 458.441 258.707 458.441C258.707 458.441 261.209 463.028 257.317 464.279C253.425 465.53 244.389 465.391 243.277 470.535C242.165 475.956 246.474 480.126 254.537 483.324C262.599 486.521 280.115 494.167 281.644 494.862C283.173 495.557 284.98 497.503 282.339 498.893C279.837 500.144 260.236 505.01 263.016 514.184C265.797 523.359 289.846 528.503 292.487 529.198C295.128 529.754 295.823 530.727 295.823 532.117C295.823 533.507 289.012 534.48 283.59 536.148C278.03 537.816 271.913 540.597 273.998 545.74C276.084 550.884 291.236 560.197 324.46 558.946L339.89 557.278L346.424 543.238C358.657 512.238 354.764 494.862 350.594 491.247C346.424 487.633 341.697 492.499 338.361 497.086C335.025 501.812 331.827 507.79 330.576 507.373C329.325 506.956 328.63 505.844 328.908 503.202C329.186 500.561 332.244 476.095 324.46 470.396C316.675 464.696 305.693 481.656 303.608 483.602C301.523 485.548 300.133 483.185 299.994 481.517C299.855 479.848 298.464 460.804 298.047 452.046C297.769 443.288 295.128 437.867 289.568 437.172C284.285 436.477 281.505 445.095 279.003 448.432C276.501 451.768 273.025 447.876 273.025 447.876C273.025 447.876 267.187 436.616 253.564 417.849C239.94 398.943 232.017 406.172 232.017 406.172" fill="#EBEBEB"/>
<path d="M341.419 560.753C331.41 546.852 314.034 521.83 299.16 500.422C284.146 479.014 270.523 459.692 260.653 445.79C255.649 438.84 251.617 433.14 248.837 429.248C247.447 427.302 246.335 425.773 245.64 424.8C245.223 424.244 245.084 423.966 244.806 423.688C244.667 423.41 244.528 423.271 244.528 423.271C244.528 423.271 244.667 423.41 244.806 423.688C244.945 423.966 245.362 424.383 245.64 424.8C246.335 425.773 247.447 427.302 248.976 429.248C251.756 433.14 255.927 438.701 260.931 445.651C270.94 459.553 284.563 478.875 299.577 500.283C314.59 521.691 331.827 546.713 341.836 560.614" fill="#E0E0E0"/>
<path d="M255.927 471.229C255.927 471.229 256.344 471.23 257.039 471.369C257.734 471.508 258.707 471.647 259.958 471.925C262.46 472.481 265.936 473.315 269.689 474.288C273.442 475.261 276.779 476.234 279.42 476.929C280.532 477.207 281.505 477.485 282.339 477.763C283.034 477.902 283.451 478.041 283.451 478.041C283.451 478.041 283.034 478.041 282.339 477.902C281.644 477.763 280.671 477.624 279.42 477.346C276.918 476.79 273.442 475.817 269.689 474.844C265.936 473.871 262.599 473.037 259.958 472.342C258.846 472.064 257.734 471.786 257.039 471.647C256.344 471.369 255.927 471.369 255.927 471.229Z" fill="#E0E0E0"/>
<path d="M284.424 476.929C284.285 476.929 285.675 469.701 287.621 460.804C289.568 451.907 291.097 444.817 291.236 444.817C291.375 444.817 289.985 452.046 288.038 460.943C286.231 469.84 284.563 477.068 284.424 476.929Z" fill="#E0E0E0"/>
<path d="M305.971 510.848C305.971 510.848 306.11 510.431 306.527 509.875C306.944 509.18 307.361 508.207 308.056 507.095C309.307 504.732 310.975 501.534 312.782 497.92C314.589 494.306 315.98 490.97 317.092 488.606C317.648 487.494 318.065 486.521 318.343 485.826C318.621 485.131 318.76 484.853 318.899 484.853C318.899 484.853 318.76 485.27 318.621 485.965C318.343 486.66 318.065 487.633 317.509 488.884C316.536 491.387 315.146 494.723 313.338 498.337C311.531 501.951 309.863 505.149 308.473 507.373C307.778 508.485 307.222 509.458 306.805 510.014C306.249 510.57 306.11 510.848 305.971 510.848Z" fill="#E0E0E0"/>
<path d="M279.142 511.404C279.142 511.404 279.559 511.265 280.254 511.265C281.088 511.265 282.061 511.126 283.173 511.126C285.537 510.987 289.012 510.848 292.626 510.709C296.38 510.57 299.716 510.57 302.079 510.431C303.191 510.431 304.164 510.431 304.998 510.431C305.693 510.431 306.11 510.431 306.11 510.431C306.11 510.431 305.693 510.57 304.998 510.57C304.164 510.57 303.191 510.709 302.079 510.709C299.716 510.848 296.241 510.987 292.626 511.126C288.873 511.265 285.537 511.265 283.173 511.404C282.061 511.404 281.088 511.404 280.254 511.404C279.42 511.404 279.142 511.404 279.142 511.404Z" fill="#E0E0E0"/>
<path d="M294.294 543.655C294.294 543.655 294.711 543.516 295.685 543.516C296.658 543.516 297.909 543.377 299.299 543.238C302.357 543.099 306.667 542.821 311.393 542.682C316.119 542.543 320.429 542.404 323.487 542.265C325.016 542.265 326.267 542.265 327.101 542.126C327.935 542.126 328.491 542.126 328.491 542.126C328.491 542.126 328.074 542.265 327.101 542.265C326.128 542.265 324.877 542.404 323.487 542.543C320.429 542.682 316.119 542.96 311.393 543.099C306.667 543.238 302.357 543.377 299.299 543.516C297.77 543.516 296.519 543.516 295.685 543.655C294.85 543.794 294.294 543.794 294.294 543.655Z" fill="#E0E0E0"/>
<path d="M327.796 542.126C327.796 542.126 327.935 541.709 328.352 540.736C328.769 539.763 329.326 538.651 330.16 537.261C331.689 534.341 333.635 530.171 335.72 525.444C337.805 520.857 339.612 516.548 340.864 513.489C341.42 511.96 341.976 510.848 342.393 509.875C342.81 509.041 342.949 508.485 342.949 508.624C342.949 508.624 342.81 509.18 342.532 510.014C342.254 510.848 341.698 512.099 341.142 513.767C339.89 516.826 338.222 521.135 336.137 525.723C334.052 530.31 331.967 534.48 330.438 537.4C329.604 538.929 329.047 540.041 328.491 540.875C328.074 541.709 327.796 542.126 327.796 542.126Z" fill="#E0E0E0"/>
<path d="M457.077 336.944C440.535 318.456 442.064 291.626 448.32 268.689C449.432 264.797 449.849 260.627 452.49 257.707C455.131 254.788 459.997 253.398 463.055 255.9C465.557 257.985 466.113 261.6 466.947 264.658C468.198 268.828 470.701 272.582 473.898 275.501C476.122 277.308 478.902 278.837 481.683 278.142C485.436 277.03 486.965 272.582 487.799 268.689C489.467 261.461 491.135 254.371 492.804 247.142C493.638 243.25 494.611 239.358 496.696 236.022C498.781 232.685 502.256 229.905 506.149 229.766C510.041 229.627 514.072 232.824 513.933 236.717C513.933 238.385 513.238 239.914 512.96 241.582C512.682 243.25 512.96 245.196 514.489 245.891C515.879 246.725 517.687 246.03 519.077 245.196C523.942 242.277 527.835 237.968 531.449 233.519C535.202 229.21 538.816 224.623 543.404 221.286C547.991 217.95 553.83 215.726 559.39 216.699C564.951 217.672 569.955 222.537 570.094 228.237C570.233 233.936 565.785 238.663 561.336 242.277C554.664 247.56 547.296 251.869 539.512 255.066C538.121 255.622 536.592 256.317 535.758 257.568C534.368 259.932 536.175 262.99 538.399 264.519C541.041 266.187 544.238 266.604 547.157 267.716C550.076 268.828 552.996 270.914 553.413 273.972C554.108 278.281 549.798 281.617 545.906 283.564C538.121 287.456 529.781 289.958 521.162 290.931C518.104 291.348 514.906 291.487 512.126 292.877C509.346 294.268 507.122 297.465 507.956 300.523C508.651 303.581 511.987 305.25 515.045 305.389C518.104 305.528 521.162 304.554 524.22 304.137C529.92 303.442 536.731 305.389 538.955 310.671C540.485 314.146 539.651 318.456 537.704 321.653C535.758 324.989 532.7 327.491 529.642 329.716C518.799 337.639 506.149 343.061 492.942 344.451C479.875 345.841 468.198 344.312 457.077 336.944Z" fill="#F5F5F5"/>
<path d="M460.414 339.168C463.472 330.271 460.275 334.72 466.531 323.877C472.647 313.034 480.432 301.635 488.912 290.097C490.997 287.178 493.221 284.398 495.306 281.478C497.391 278.698 499.476 275.918 501.701 273.277C506.01 268.133 510.597 263.407 515.185 259.097C519.633 254.788 524.082 250.896 528.252 247.281C532.422 243.667 536.315 240.331 540.068 237.411C547.575 231.712 554.108 227.681 558.696 225.178C561.059 223.927 562.866 222.954 564.117 222.398C564.673 222.12 565.229 221.842 565.507 221.703C565.785 221.564 566.063 221.425 566.063 221.425C566.063 221.425 565.924 221.564 565.646 221.703C565.368 221.842 564.812 222.12 564.256 222.398C563.005 223.093 561.198 224.066 558.974 225.317C554.386 227.959 547.992 231.851 540.624 237.689C536.871 240.609 532.978 243.945 528.808 247.559C524.638 251.174 520.328 255.205 515.741 259.514C511.292 263.824 506.705 268.55 502.396 273.694C500.172 276.335 498.225 278.976 496.14 281.895C494.055 284.676 491.97 287.595 489.746 290.514C481.266 302.052 473.481 313.451 467.365 324.155C461.109 334.998 464.306 330.41 461.248 339.307" fill="#E0E0E0"/>
<path d="M501.839 273.416C501.839 273.416 501.839 272.86 501.839 271.748C501.839 270.635 501.978 269.106 502.256 267.021C502.673 263.129 503.368 257.568 504.064 251.591C504.898 245.613 505.454 240.192 505.732 236.16C505.871 234.214 506.01 232.546 506.01 231.434C506.01 230.322 506.149 229.766 506.149 229.766C506.149 229.766 506.288 230.322 506.288 231.434C506.288 232.546 506.288 234.214 506.149 236.16C506.01 240.192 505.454 245.613 504.62 251.591C503.786 257.568 503.09 262.851 502.534 266.882C502.256 268.689 502.117 270.218 501.978 271.469C501.978 272.721 501.839 273.416 501.839 273.416Z" fill="#E0E0E0"/>
<path d="M553.413 275.779C553.413 275.779 552.718 275.779 551.328 275.501C550.077 275.362 548.13 275.084 545.906 274.806C541.319 274.25 534.785 273.694 527.696 273.277C520.606 272.999 514.072 272.999 509.485 273.138C507.122 273.138 505.315 273.277 503.925 273.277C502.673 273.277 501.839 273.277 501.839 273.277C501.839 273.277 502.534 273.138 503.925 272.999C505.176 272.86 507.122 272.721 509.485 272.582C514.211 272.304 520.606 272.304 527.835 272.582C534.924 272.86 541.458 273.555 546.045 274.25C548.408 274.528 550.216 274.945 551.467 275.223C552.718 275.64 553.413 275.779 553.413 275.779Z" fill="#E0E0E0"/>
<path d="M467.365 323.182C467.365 323.182 467.226 322.904 467.226 322.487C467.087 321.931 466.948 321.236 466.809 320.541C466.392 318.873 465.975 316.371 465.419 313.173C464.445 306.918 463.194 298.299 462.082 288.846C460.97 279.254 459.858 270.636 458.885 264.38C458.468 261.322 458.051 258.82 457.773 257.013C457.634 256.178 457.495 255.483 457.495 255.066C457.495 254.649 457.356 254.371 457.495 254.371C457.495 254.371 457.634 254.649 457.634 255.066C457.773 255.622 457.912 256.317 458.051 257.013C458.468 258.681 458.885 261.183 459.441 264.38C460.414 270.636 461.665 279.254 462.777 288.846C463.889 298.438 465.002 307.057 465.975 313.312C466.392 316.371 466.809 318.873 467.087 320.68C467.226 321.514 467.365 322.209 467.365 322.626C467.365 322.904 467.365 323.182 467.365 323.182Z" fill="#E0E0E0"/>
<path d="M537.844 317.482C537.844 317.482 537.566 317.482 537.149 317.621C536.593 317.621 535.898 317.76 535.063 317.76C533.117 317.899 530.615 318.177 527.557 318.317C521.162 318.873 512.404 319.707 502.674 320.541C492.943 321.514 484.046 322.209 477.651 322.626C474.454 322.765 471.813 322.904 470.006 323.043C469.172 323.043 468.477 323.043 467.921 323.043C467.504 323.043 467.226 323.043 467.226 323.043C467.226 323.043 467.504 323.043 467.921 322.904C468.477 322.904 469.172 322.765 470.006 322.765C471.952 322.626 474.454 322.348 477.512 322.209C483.907 321.653 492.665 320.819 502.396 319.985C512.126 319.012 520.884 318.316 527.418 317.899C530.615 317.76 533.256 317.621 535.063 317.482C535.898 317.482 536.593 317.482 537.149 317.482C537.705 317.482 537.844 317.482 537.844 317.482Z" fill="#E0E0E0"/>
<path d="M592.615 458.997C592.615 458.997 592.615 459.275 592.336 459.692C592.197 460.109 591.919 460.804 591.641 461.499C590.946 463.167 589.973 465.53 588.722 468.449C586.081 474.427 582.467 483.046 578.018 493.194V493.333H577.879C568.009 495.001 556.471 496.808 544.238 498.893C540.346 499.588 536.593 500.144 532.978 500.7L532.422 500.839L532.561 500.283C535.342 489.44 537.844 479.431 539.929 470.952L540.068 471.23C531.866 467.615 525.055 464.557 520.328 462.333C517.965 461.221 516.158 460.387 514.907 459.831C514.351 459.553 513.795 459.275 513.517 459.136C513.239 458.997 513.1 458.858 513.1 458.858C513.1 458.858 513.239 458.858 513.656 458.997C514.073 459.136 514.49 459.414 515.046 459.553C516.297 460.109 518.243 460.943 520.606 461.916C525.472 464.001 532.283 466.92 540.485 470.535L540.763 470.674V470.952C538.678 479.431 536.176 489.44 533.395 500.283L532.978 499.866C536.593 499.31 540.485 498.615 544.238 498.059C556.471 496.113 568.009 494.167 577.879 492.638L577.601 492.777C582.05 482.629 585.803 474.149 588.583 468.032C589.973 465.113 590.946 462.75 591.641 461.082C592.058 460.387 592.336 459.692 592.476 459.275C592.476 459.136 592.615 458.997 592.615 458.997Z" fill="#A48B9B"/>
<path d="M536.732 496.808L535.898 499.31L537.288 501.395L534.786 501.256L533.118 503.341L532.423 500.839L530.06 500.005L532.145 498.615L532.284 495.974L534.23 497.642L536.732 496.808Z" fill="#A48B9B"/>
<path d="M513.656 457.607L513.239 458.858L513.934 459.831H512.683L511.848 460.804L511.57 459.553L510.319 459.136L511.431 458.441V457.19L512.405 458.024L513.656 457.607Z" fill="#A48B9B"/>
<path d="M578.991 491.804L578.435 492.916L579.269 494.028L577.879 493.889L577.184 495.001L576.767 493.75L575.516 493.333L576.628 492.638V491.248L577.74 492.082L578.991 491.804Z" fill="#A48B9B"/>
<path d="M541.18 470.118L540.763 471.23L541.458 472.342L540.206 472.203L539.511 473.315L539.094 472.064L537.843 471.647L538.955 470.952V469.562L540.067 470.396L541.18 470.118Z" fill="#A48B9B"/>
<path d="M594.282 457.745L593.726 458.997L594.56 460.109L593.17 459.97L592.475 461.082L592.058 459.831L590.807 459.275L591.919 458.58V457.328L593.031 458.162L594.282 457.745Z" fill="#A48B9B"/>
<path d="M172.937 558.947H245.779C245.779 558.947 239.384 547.27 220.618 548.938C202.685 550.606 201.851 543.238 192.676 542.265C183.501 541.292 175.856 548.382 172.937 558.947Z" fill="#E0E0E0"/>
<path d="M187.394 272.443H260.236C260.236 272.443 253.841 260.766 235.075 262.434C217.142 264.102 216.308 256.734 207.133 255.761C197.958 254.788 190.313 261.878 187.394 272.443Z" fill="#F5F5F5"/>
<path d="M556.888 323.043H616.663C616.663 323.043 611.381 313.451 595.951 314.841C581.215 316.232 580.52 310.115 573.014 309.42C565.646 308.586 559.39 314.285 556.888 323.043Z" fill="#F5F5F5"/>
<path d="M437.476 441.065C440.395 418.684 424.686 400.195 404.947 389.074C385.207 377.953 362.409 374.2 340.723 368.083C320.149 362.245 299.854 353.765 284.701 338.752C269.549 323.738 260.374 301.357 265.796 280.645C267.186 275.501 269.549 270.219 273.997 267.299C278.446 264.38 285.257 264.38 288.594 268.551C295.683 277.447 281.921 293.573 290.54 300.94C292.486 302.609 295.266 303.304 297.212 304.972C302.634 309.281 300.827 317.761 301.661 324.711C303.19 338.335 315.979 347.926 328.629 353.487C345.45 360.855 363.799 364.469 381.732 368.778C399.664 373.227 417.736 378.787 432.61 389.63C447.484 400.473 460.552 417.432 460.413 435.921C460.413 441.065 459.718 447.459 456.52 451.49C453.323 455.522 449.153 456.356 444.565 454.132C439.978 451.907 436.641 448.432 437.476 441.065Z" fill="#B995B5"/>
<g opacity="0.8">
<path opacity="0.8" d="M437.476 441.065C440.395 418.684 424.686 400.195 404.947 389.074C385.207 377.953 362.409 374.2 340.723 368.083C320.149 362.245 299.854 353.765 284.701 338.752C269.549 323.738 260.374 301.357 265.796 280.645C267.186 275.501 269.549 270.219 273.997 267.299C278.446 264.38 285.257 264.38 288.594 268.551C295.683 277.447 281.921 293.573 290.54 300.94C292.486 302.609 295.266 303.304 297.212 304.972C302.634 309.281 300.827 317.761 301.661 324.711C303.19 338.335 315.979 347.926 328.629 353.487C345.45 360.855 363.799 364.469 381.732 368.778C399.664 373.227 417.736 378.787 432.61 389.63C447.484 400.473 460.552 417.432 460.413 435.921C460.413 441.065 459.718 447.459 456.52 451.49C453.323 455.522 449.153 456.356 444.565 454.132C439.978 451.907 436.641 448.432 437.476 441.065Z" fill="white"/>
</g>
<path d="M342.252 262.99C341.557 254.649 347.674 247.42 354.763 243.528C361.853 239.636 369.916 238.107 377.144 234.631C395.077 226.151 406.615 205.995 407.449 185.421C408.283 164.847 399.386 144.273 385.346 129.121C379.646 123.005 372.696 116.471 372.557 108.13C372.418 99.3725 380.898 92.4219 389.377 92.5609C397.857 92.6999 405.642 98.3994 410.785 105.489C415.929 112.579 418.709 121.197 421.35 129.538C419.404 126.063 423.435 121.753 427.189 122.031C431.081 122.448 434.139 125.646 436.502 128.843C446.65 142.605 451.794 160.26 450.404 177.219C449.014 194.179 441.09 210.443 428.857 221.564C415.095 234.075 397.023 239.914 379.368 245.474C367.135 249.366 354.902 253.259 342.669 257.012" fill="#E6D9E4"/>
<g opacity="0.8">
<path opacity="0.8" d="M342.252 262.99C341.557 254.649 347.674 247.42 354.763 243.528C361.853 239.636 369.916 238.107 377.144 234.631C395.077 226.151 406.615 205.995 407.449 185.421C408.283 164.847 399.386 144.273 385.346 129.121C379.646 123.005 372.696 116.471 372.557 108.13C372.418 99.3725 380.898 92.4219 389.377 92.5609C397.857 92.6999 405.642 98.3994 410.785 105.489C415.929 112.579 418.709 121.197 421.35 129.538C419.404 126.063 423.435 121.753 427.189 122.031C431.081 122.448 434.139 125.646 436.502 128.843C446.65 142.605 451.794 160.26 450.404 177.219C449.014 194.179 441.09 210.443 428.857 221.564C415.095 234.075 397.023 239.914 379.368 245.474C367.135 249.366 354.902 253.259 342.669 257.012" fill="#E6D9E4"/>
</g>
<path d="M332.104 88.5298C328.49 90.0589 326.405 94.6463 327.795 98.3996C329.185 102.153 333.633 104.377 337.526 103.126C341.279 101.875 343.642 97.4265 342.669 93.6732C341.557 89.9199 337.248 87.2787 333.494 88.1127" fill="#E0E0E0"/>
<g opacity="0.8">
<path opacity="0.8" d="M332.104 88.5298C328.49 90.0589 326.405 94.6463 327.795 98.3996C329.185 102.153 333.633 104.377 337.526 103.126C341.279 101.875 343.642 97.4265 342.669 93.6732C341.557 89.9199 337.248 87.2787 333.494 88.1127" fill="#E0E0E0"/>
</g>
<path d="M377.423 624.143C372.974 614.829 376.867 603.152 383.956 595.646C391.185 588.139 400.916 583.83 410.369 579.659C431.359 570.485 453.462 559.503 464.027 539.207C467.641 532.395 469.727 524.889 471.673 517.382C475.565 502.925 479.18 486.66 471.395 473.871C469.171 470.257 465.695 466.921 461.525 466.226C456.66 465.391 451.794 468.033 448.736 471.925C445.817 475.817 444.565 480.683 443.87 485.548C442.758 494.723 443.731 504.176 442.758 513.351C441.785 522.664 438.449 532.256 430.803 537.539C421.49 543.933 408.283 542.543 399.387 549.355C392.158 554.915 389.378 564.368 383.678 571.597C378.952 577.574 372.279 581.745 366.163 586.332C360.046 590.919 354.069 596.619 351.983 603.986C349.759 611.632 352.54 620.529 358.656 625.533C364.773 630.677 373.947 631.789 381.037 628.453" fill="#E6D9E4"/>
<g opacity="0.8">
<path opacity="0.8" d="M377.423 624.143C372.974 614.829 376.867 603.152 383.956 595.646C391.185 588.139 400.916 583.83 410.369 579.659C431.359 570.485 453.462 559.503 464.027 539.207C467.641 532.395 469.727 524.889 471.673 517.382C475.565 502.925 479.18 486.66 471.395 473.871C469.171 470.257 465.695 466.921 461.525 466.226C456.66 465.391 451.794 468.033 448.736 471.925C445.817 475.817 444.565 480.683 443.87 485.548C442.758 494.723 443.731 504.176 442.758 513.351C441.785 522.664 438.449 532.256 430.803 537.539C421.49 543.933 408.283 542.543 399.387 549.355C392.158 554.915 389.378 564.368 383.678 571.597C378.952 577.574 372.279 581.745 366.163 586.332C360.046 590.919 354.069 596.619 351.983 603.986C349.759 611.632 352.54 620.529 358.656 625.533C364.773 630.677 373.947 631.789 381.037 628.453" fill="#E6D9E4"/>
</g>
<path d="M238.133 152.892C230.765 147.471 226.317 138.296 226.456 129.121C226.595 119.947 231.46 110.911 238.967 105.767C243.276 102.848 248.281 101.041 252.173 97.5656C255.509 94.3683 257.734 90.059 261.487 87.4177C266.213 84.0814 273.025 84.2205 277.612 87.6958C282.2 91.1711 284.146 97.7046 282.2 103.126C280.392 107.992 276.083 111.606 274.276 116.471C272.33 121.754 273.581 127.592 272.886 133.014C272.052 139.825 267.881 146.081 262.043 149.695C256.204 153.17 248.698 153.865 242.303 151.502" fill="#662185"/>
<g opacity="0.8">
<path opacity="0.8" d="M238.133 152.892C230.765 147.471 226.317 138.296 226.456 129.121C226.595 119.947 231.46 110.911 238.967 105.767C243.276 102.848 248.281 101.041 252.173 97.5656C255.509 94.3683 257.734 90.059 261.487 87.4177C266.213 84.0814 273.025 84.2205 277.612 87.6958C282.2 91.1711 284.146 97.7046 282.2 103.126C280.392 107.992 276.083 111.606 274.276 116.471C272.33 121.754 273.581 127.592 272.886 133.014C272.052 139.825 267.881 146.081 262.043 149.695C256.204 153.17 248.698 153.865 242.303 151.502" fill="white"/>
</g>
<path d="M248.28 165.96H246.195C242.025 165.96 238.688 162.623 238.688 158.453V123.144H255.787V158.314C255.787 162.484 252.451 165.96 248.28 165.96Z" fill="#662185"/>
<path d="M238.689 123.144L247.308 107.436L255.787 123.144H238.689Z" fill="#FFBE9D"/>
<path d="M243.832 113.691C243.832 113.691 246.473 117.583 250.644 113.691L247.307 107.435L243.832 113.691Z" fill="#662185"/>
<path d="M256.065 156.645C256.065 156.784 252.173 156.923 247.446 156.923C242.581 156.923 238.828 156.784 238.828 156.645C238.828 156.506 242.72 156.367 247.446 156.367C252.173 156.367 256.065 156.506 256.065 156.645Z" fill="#263238"/>
<path d="M255.927 154.004C255.927 154.143 252.173 154.282 247.447 154.282C242.721 154.282 238.967 154.143 238.967 154.004C238.967 153.865 242.721 153.726 247.447 153.726C252.034 153.726 255.927 153.865 255.927 154.004Z" fill="#263238"/>
<path d="M243.693 123.422C243.832 123.422 243.971 130.233 243.971 138.713C243.971 147.193 243.832 154.005 243.693 154.005C243.554 154.005 243.415 147.193 243.415 138.713C243.415 130.233 243.554 123.422 243.693 123.422Z" fill="#FAFAFA"/>
<path d="M250.644 123.422C250.783 123.422 250.922 130.233 250.922 138.713C250.922 147.193 250.783 154.005 250.644 154.005C250.505 154.005 250.366 147.193 250.366 138.713C250.366 130.233 250.505 123.422 250.644 123.422Z" fill="#FAFAFA"/>
<path d="M387.154 604.542L464.723 607.879L466.669 612.466L415.79 695.039L323.903 692.259L387.154 604.542Z" fill="#263238"/>
<path d="M320.428 684.197L412.871 689.479L461.108 614.691L427.189 617.332L341.419 647.637L320.428 684.197Z" fill="#E0E0E0"/>
<path d="M307.5 678.636L392.298 680.026C388.822 669.183 397.024 653.892 408.423 648.748C415.93 645.273 430.248 640.964 437.616 637.21C451.517 630.121 464.167 616.498 463.055 604.821L428.163 603.708L383.679 602.04C379.926 613.022 372.002 620.251 359.908 624.699C349.065 628.592 336.832 628.592 326.267 633.04C309.308 639.991 301.106 663.067 307.5 678.636Z" fill="#EBEBEB"/>
<path d="M307.5 678.636C307.5 678.636 307.361 678.497 307.222 678.08C307.083 677.663 306.944 677.107 306.666 676.411C306.388 675.716 306.249 674.743 305.971 673.631C305.693 672.519 305.554 671.268 305.415 669.739C305.137 666.82 305.276 663.066 306.11 658.896C306.944 654.726 308.612 649.999 311.531 645.412C312.226 644.3 313.06 643.049 314.034 641.937C314.451 641.38 314.868 640.824 315.424 640.268C315.98 639.712 316.397 639.156 316.953 638.739C317.509 638.183 318.065 637.627 318.621 637.21C319.177 636.793 319.872 636.237 320.428 635.681C321.818 634.847 323.069 633.874 324.598 633.179C330.437 630.259 337.527 629.008 344.755 627.618C348.37 626.923 352.262 626.228 356.015 625.255C359.769 624.143 363.522 622.753 367.136 620.807C368.943 619.834 370.75 618.721 372.419 617.331C374.087 616.08 375.616 614.551 377.006 613.022C379.925 609.825 382.01 605.932 383.401 601.623L383.54 601.345H383.818C395.634 601.762 408.006 602.318 420.934 602.735C433.723 603.291 447.068 603.569 460.691 603.986C461.525 603.986 462.359 603.986 463.193 604.125H463.472V604.403C463.75 607.044 463.193 609.825 462.359 612.188C461.942 613.439 461.386 614.551 460.83 615.802C460.135 616.914 459.579 618.026 458.745 619.139C455.826 623.448 452.212 627.062 448.18 630.26C444.288 633.457 439.978 636.098 435.53 638.044C431.082 639.99 426.494 641.658 422.046 643.327C417.598 644.995 413.288 646.524 409.118 648.331C407.033 649.304 405.086 650.416 403.418 651.806C402.584 652.501 401.75 653.196 400.916 654.031C400.221 654.865 399.387 655.56 398.692 656.533C395.912 659.869 393.826 663.761 392.714 667.654C391.463 671.546 391.324 675.855 392.436 679.47L392.575 679.887H392.158C366.441 679.47 345.311 679.053 330.437 678.775C323.069 678.636 317.231 678.497 313.338 678.497C311.392 678.497 309.863 678.358 308.89 678.358C308.056 678.775 307.5 678.636 307.5 678.636C307.5 678.636 308.056 678.636 309.029 678.636C310.002 678.636 311.531 678.636 313.477 678.636C317.37 678.636 323.208 678.775 330.576 678.775C345.311 678.914 366.58 679.331 392.297 679.609L392.019 680.026C390.907 676.133 391.046 671.824 392.158 667.793C393.27 663.761 395.356 659.869 398.136 656.394C398.831 655.56 399.665 654.726 400.36 653.892C401.194 653.196 402.028 652.362 402.862 651.667C404.53 650.277 406.616 649.026 408.701 648.053C412.871 646.246 417.32 644.717 421.768 643.049C426.216 641.38 430.665 639.712 435.113 637.766C439.561 635.681 443.732 633.179 447.624 629.981C451.516 626.784 455.131 623.309 458.05 619C458.745 618.026 459.44 616.775 459.996 615.663C460.552 614.551 461.108 613.3 461.525 612.188C462.359 609.825 462.776 607.183 462.637 604.681L462.915 604.959C462.081 604.959 461.247 604.959 460.413 604.82C446.79 604.403 433.445 603.986 420.656 603.43C407.867 602.874 395.356 602.457 383.54 602.04L383.818 601.762C382.288 606.071 380.203 610.103 377.284 613.3C375.894 614.968 374.226 616.497 372.558 617.748C370.889 619 369.082 620.251 367.275 621.224C363.661 623.309 359.769 624.699 356.015 625.811C352.123 626.784 348.37 627.479 344.755 628.174C337.388 629.425 330.437 630.677 324.598 633.596C323.069 634.291 321.818 635.125 320.567 635.959C319.872 636.376 319.316 636.932 318.76 637.349C318.204 637.766 317.648 638.322 317.092 638.878C316.536 639.434 315.98 639.99 315.563 640.407C315.007 640.963 314.59 641.519 314.173 642.076C313.199 643.188 312.504 644.3 311.67 645.412C308.751 649.999 307.083 654.587 306.249 658.757C305.415 662.927 305.276 666.542 305.554 669.461C305.693 670.851 305.832 672.241 306.11 673.353C306.388 674.465 306.527 675.438 306.805 676.133C307.083 676.829 307.222 677.385 307.361 677.802C307.5 678.497 307.5 678.636 307.5 678.636Z" fill="#263238"/>
<path d="M407.588 603.43C407.588 603.43 407.728 602.874 407.728 601.901C407.867 600.928 407.728 599.538 407.032 597.87C406.337 596.341 405.086 594.534 403.001 593.561C400.916 592.587 398.275 592.448 395.911 593.283C393.409 594.256 391.602 596.202 390.768 598.287C389.795 600.372 389.656 602.457 389.934 604.264C390.212 605.933 390.907 607.323 391.324 608.018C391.88 608.852 392.297 609.269 392.158 609.269C392.158 609.269 391.741 608.991 391.046 608.157C390.49 607.323 389.656 606.072 389.378 604.264C388.961 602.457 389.1 600.233 390.073 598.009C391.046 595.785 392.853 593.7 395.633 592.587C398.275 591.614 401.194 591.892 403.279 592.865C405.503 593.978 406.893 595.924 407.449 597.592C408.145 599.26 408.145 600.789 407.867 601.762C407.728 602.318 407.727 602.596 407.588 602.874C407.727 603.291 407.588 603.43 407.588 603.43Z" fill="#263238"/>
<path d="M420.934 603.43C420.934 603.43 421.073 602.874 421.073 601.901C421.212 600.928 421.073 599.538 420.378 597.87C419.683 596.341 418.431 594.534 416.346 593.561C414.261 592.587 411.62 592.448 409.257 593.283C406.754 594.256 404.947 596.202 404.113 598.287C403.14 600.372 403.001 602.457 403.279 604.264C403.557 605.933 404.252 607.323 404.669 608.018C405.225 608.852 405.642 609.269 405.503 609.269C405.503 609.269 405.086 608.991 404.391 608.157C403.835 607.323 403.001 606.072 402.723 604.264C402.306 602.457 402.445 600.233 403.418 598.009C404.391 595.785 406.198 593.7 408.979 592.587C411.62 591.614 414.539 591.892 416.624 592.865C418.849 593.978 420.239 595.924 420.795 597.592C421.49 599.26 421.49 600.789 421.212 601.762C421.073 602.318 421.073 602.596 420.934 602.874C420.934 603.291 420.934 603.43 420.934 603.43Z" fill="#263238"/>
<path d="M430.943 604.125C430.943 604.125 431.082 603.569 431.082 602.596C431.082 601.623 430.943 600.233 430.248 598.565C429.553 597.036 428.162 595.368 425.938 594.534C423.853 593.7 421.212 593.561 418.849 594.673C416.485 595.646 414.817 597.87 413.983 599.955C413.149 602.04 413.149 604.265 413.566 605.933C413.983 607.601 414.678 608.852 415.234 609.686C415.79 610.52 416.207 610.798 416.207 610.937C416.207 610.937 415.651 610.659 415.095 609.964C414.4 609.269 413.566 607.879 413.149 606.211C412.732 604.404 412.593 602.179 413.566 599.955C414.4 597.731 416.207 595.368 418.71 594.256C421.351 593.144 424.131 593.144 426.355 594.117C428.579 595.09 430.109 596.897 430.804 598.565C431.499 600.233 431.638 601.762 431.499 602.735C431.499 603.291 431.36 603.569 431.221 603.847C431.082 603.986 431.082 604.125 430.943 604.125Z" fill="#263238"/>
<path d="M441.785 604.681C441.785 604.681 441.785 604.125 441.785 603.152C441.785 602.179 441.507 600.789 440.673 599.26C439.839 597.731 438.31 596.202 436.225 595.368C434.14 594.673 431.36 594.673 429.135 595.924C426.772 597.036 425.243 599.26 424.548 601.484C423.853 603.708 423.992 605.794 424.409 607.462C424.826 609.13 425.66 610.381 426.216 611.076C426.772 611.771 427.328 612.188 427.189 612.188C427.189 612.188 426.633 611.91 425.938 611.215C425.243 610.52 424.409 609.269 423.853 607.601C423.297 605.933 423.158 603.569 423.853 601.345C424.548 599.121 426.216 596.619 428.718 595.368C431.221 594.117 434.14 593.978 436.364 594.812C438.727 595.646 440.256 597.453 441.09 598.982C441.924 600.65 442.063 602.179 442.063 603.152C442.063 603.708 441.924 603.986 441.924 604.264C441.924 604.542 441.785 604.681 441.785 604.681Z" fill="#263238"/>
<path d="M452.628 604.403C452.628 604.403 452.628 603.847 452.628 602.874C452.628 601.901 452.35 600.511 451.377 598.982C450.543 597.453 449.014 595.924 446.789 595.229C444.704 594.534 441.924 594.673 439.7 595.924C437.337 597.175 435.946 599.399 435.251 601.623C434.556 603.847 434.695 605.933 435.251 607.601C435.807 609.269 436.642 610.381 437.198 611.215C437.893 611.91 438.31 612.327 438.171 612.327C438.171 612.327 437.615 612.049 436.92 611.354C436.225 610.659 435.251 609.408 434.695 607.74C434.139 606.072 433.861 603.708 434.556 601.484C435.251 599.121 436.781 596.758 439.283 595.368C441.785 593.978 444.565 593.839 446.928 594.673C449.292 595.507 450.821 597.175 451.655 598.704C452.489 600.372 452.767 601.762 452.767 602.874C452.767 603.43 452.767 603.708 452.628 603.986C452.767 604.264 452.628 604.403 452.628 604.403Z" fill="#263238"/>
<path d="M461.803 605.655C461.803 605.655 461.803 605.099 461.803 604.126C461.803 603.153 461.525 601.763 460.691 600.233C459.857 598.704 458.467 597.175 456.243 596.341C454.157 595.507 451.516 595.646 449.153 596.758C446.79 597.87 445.261 600.094 444.566 602.18C443.871 604.404 443.871 606.489 444.288 608.157C444.705 609.825 445.539 611.076 446.095 611.771C446.651 612.605 447.068 612.884 447.068 612.884C447.068 612.884 446.512 612.605 445.817 611.91C445.122 611.215 444.288 609.964 443.732 608.157C443.176 606.489 443.037 604.126 443.871 601.902C444.566 599.677 446.234 597.314 448.875 596.063C451.377 594.812 454.297 594.812 456.521 595.646C458.884 596.48 460.413 598.287 461.108 599.955C461.942 601.624 462.081 603.153 461.942 604.126C461.942 604.682 461.803 604.96 461.803 605.238C461.942 605.516 461.803 605.655 461.803 605.655Z" fill="#263238"/>
<path d="M501.839 320.819C498.224 320.68 494.332 320.819 490.301 321.375C466.391 324.294 448.458 344.868 448.597 369.056C448.597 376.146 449.292 383.931 451.516 391.715C458.189 415.486 460.274 436.338 459.44 446.486L481.821 458.58C481.821 458.58 492.247 443.706 502.256 437.311C512.265 430.917 545.627 413.679 558.695 396.025C567.174 384.626 568.842 361.272 548.547 340.837C536.175 328.465 519.354 321.375 501.839 320.819Z" fill="#B587CB"/>
<path d="M448.875 472.481L469.171 483.463L455.965 500.145L442.48 494.028L448.875 472.481Z" fill="#455A64"/>
<path d="M449.848 473.177C449.709 473.177 451.655 467.06 454.296 459.831C456.937 452.464 459.301 446.625 459.44 446.625C459.579 446.625 457.632 452.742 454.991 459.97C452.35 467.338 450.126 473.177 449.848 473.177Z" fill="#263238"/>
<path d="M467.781 482.629C467.642 482.49 470.839 476.93 474.87 469.979C478.902 463.028 482.377 457.607 482.516 457.607C482.655 457.746 479.458 463.306 475.426 470.257C471.395 477.208 468.059 482.629 467.781 482.629Z" fill="#263238"/>
<g opacity="0.4">
<path opacity="0.4" d="M508.511 321.514C507.538 321.514 496.417 334.581 491.552 343.339C475.009 372.949 474.314 401.863 469.727 435.504C469.032 440.369 466.668 450.656 466.668 450.378C469.171 452.324 477.372 456.078 477.372 456.078C477.372 456.078 485.157 446.764 488.215 442.038C500.587 423.132 513.933 408.397 524.497 388.518C535.062 368.639 545.21 350.985 535.479 330.55C535.479 330.689 518.52 320.958 508.511 321.514Z" fill="#846792"/>
</g>
<path d="M558.834 399.083C558.834 399.083 558.694 398.805 558.555 398.388C558.416 397.971 558.138 397.276 557.721 396.442C557.026 394.774 555.775 392.549 553.829 389.908C551.883 387.267 549.103 384.348 545.21 381.845C541.457 379.343 536.592 377.258 531.17 376.563H531.031L530.892 376.424C528.39 372.949 525.332 369.334 521.856 365.998C518.381 362.662 514.211 359.603 509.484 357.518C504.758 355.433 499.753 354.46 494.888 354.738C490.162 355.016 485.574 356.545 482.099 359.047L481.96 359.186L481.821 359.047C477.65 355.433 472.646 353.487 468.198 352.931C463.749 352.375 459.718 353.209 456.66 354.46C453.601 355.572 451.377 357.101 449.987 358.213C449.292 358.769 448.736 359.186 448.458 359.464C448.18 359.742 447.902 359.881 447.902 359.881C447.902 359.881 448.041 359.742 448.319 359.325C448.597 359.047 449.153 358.491 449.848 357.935C451.238 356.823 453.323 355.294 456.521 354.043C459.579 352.792 463.61 351.958 468.337 352.375C472.924 352.792 478.067 354.738 482.377 358.491H481.96C485.574 355.85 490.162 354.321 495.027 354.043C499.892 353.765 505.175 354.738 509.901 356.823C514.767 359.047 518.937 362.106 522.412 365.442C525.888 368.778 528.946 372.393 531.448 375.868L531.17 375.729C536.731 376.424 541.735 378.509 545.488 381.15C549.381 383.653 552.161 386.711 554.107 389.352C556.053 391.993 557.165 394.356 557.86 396.025C558.277 396.859 558.416 397.554 558.555 397.971C558.833 398.805 558.834 399.083 558.834 399.083Z" fill="#263238"/>
<path d="M517.269 428.553C517.13 428.553 517.13 426.468 515.323 423.688C514.35 422.298 513.098 420.769 511.013 419.518C509.067 418.266 506.426 417.432 503.646 417.71H503.368V417.432C502.951 414.513 501.7 411.455 499.753 408.814C497.668 406.172 494.888 403.67 491.413 402.419C488.632 401.307 485.574 400.89 482.794 401.029C480.014 401.168 477.372 402.002 475.009 403.253L474.731 403.392L474.592 403.253C472.368 400.89 469.449 399.5 466.807 399.083C464.166 398.527 461.664 398.805 459.857 399.361C455.965 400.334 454.435 402.28 454.296 402.141C454.296 402.141 454.435 402.002 454.574 401.863C454.852 401.724 455.13 401.446 455.547 401.029C456.382 400.334 457.772 399.639 459.718 398.944C461.664 398.388 464.166 398.11 466.946 398.527C469.727 398.944 472.646 400.334 475.148 402.836H474.731C477.094 401.585 479.736 400.751 482.655 400.473C485.574 400.195 488.632 400.612 491.691 401.863C495.305 403.253 498.224 405.755 500.309 408.536C502.395 411.316 503.646 414.513 504.063 417.432L503.785 417.154C506.843 416.876 509.484 417.849 511.569 419.101C513.655 420.352 515.045 422.02 515.879 423.41C516.713 424.939 517.13 426.19 517.408 427.024C517.547 427.441 517.547 427.858 517.547 427.997C517.269 428.553 517.269 428.553 517.269 428.553Z" fill="#263238"/>
<path d="M465.139 488.746C465.139 488.746 464.861 488.468 464.444 488.19C463.888 487.912 463.054 487.912 462.081 488.329C461.525 488.468 460.969 488.607 460.274 488.607C459.579 488.607 458.745 488.329 458.328 487.773C457.216 486.661 456.799 484.993 455.826 483.88C455.27 483.324 454.713 483.046 454.018 483.046C453.323 483.046 452.628 483.324 451.933 483.463C451.238 483.602 450.543 483.741 449.848 483.602C449.153 483.463 448.597 483.185 448.18 482.768C447.346 482.073 446.929 481.1 446.79 480.544C446.651 479.988 446.79 479.571 446.79 479.571C446.79 479.571 446.79 479.849 447.068 480.405C447.207 480.961 447.624 481.656 448.458 482.351C448.875 482.629 449.292 482.907 449.987 483.046C450.543 483.185 451.238 483.046 451.794 482.907C452.489 482.768 453.184 482.49 454.018 482.49C454.853 482.351 455.826 482.768 456.382 483.463C457.494 484.854 457.911 486.383 458.884 487.356C459.301 487.773 459.857 488.051 460.413 488.051C460.969 488.051 461.525 487.912 462.081 487.773C463.193 487.495 464.166 487.634 464.722 487.912C465.139 488.329 465.278 488.607 465.139 488.746Z" fill="#263238"/>
<path d="M467.503 485.409C467.364 485.548 463.054 483.463 457.633 480.544C452.211 477.625 448.041 475.262 448.041 475.123C448.18 474.984 452.489 477.069 457.911 479.988C463.332 482.768 467.642 485.27 467.503 485.409Z" fill="#263238"/>
<path d="M463.471 490.553C463.471 490.553 463.193 490.692 462.637 490.97C462.359 491.109 462.081 491.248 461.664 491.387C461.247 491.526 460.83 491.665 460.274 491.526C459.301 491.387 458.05 491.109 456.938 490.275C456.382 489.858 455.965 489.163 455.687 488.468C455.409 487.773 455.131 487.078 454.714 486.661C453.741 485.688 452.35 485.549 451.099 485.549C449.848 485.549 448.597 485.688 447.624 485.271C446.651 484.853 446.095 484.158 445.817 483.602C445.539 483.046 445.678 482.768 445.678 482.768C445.678 482.768 445.817 483.046 446.095 483.463C446.373 483.88 446.929 484.436 447.763 484.714C448.597 484.992 449.709 484.993 451.099 484.853C452.35 484.853 454.019 484.853 455.27 486.105C455.826 486.8 456.104 487.495 456.382 488.051C456.66 488.746 456.938 489.163 457.494 489.58C458.467 490.414 459.579 490.692 460.413 490.831C461.386 490.97 462.081 490.553 462.637 490.414C463.193 490.553 463.471 490.553 463.471 490.553Z" fill="#263238"/>
<path d="M310.836 360.716L345.728 355.572L329.047 331.94L320.15 332.496C314.173 332.913 308.751 336.528 306.388 342.088C305.137 345.007 304.72 348.344 305.415 351.402L310.836 360.716Z" fill="#E8505B"/>
<path opacity="0.4" d="M310.836 360.716L345.728 355.572L329.047 331.94L320.15 332.496C314.173 332.913 308.751 336.528 306.388 342.088C305.137 345.007 304.72 348.344 305.415 351.402L310.836 360.716Z" fill="black"/>
<path d="M461.108 399.5C461.525 400.473 461.803 401.724 462.22 403.114C462.498 404.365 462.637 405.616 462.637 406.868C462.498 408.397 462.359 410.482 461.803 411.455C461.247 412.845 462.498 414.096 463.75 413.401C464.862 412.706 466.53 409.092 466.391 404.504C466.252 399.917 470.978 405.477 472.785 407.424C474.593 409.37 480.292 415.347 481.404 415.347C482.933 415.208 483.072 413.54 481.265 411.594C479.458 409.648 474.454 403.392 475.566 402.558C476.678 401.724 485.435 412.011 485.435 412.011C485.435 412.011 486.965 414.513 488.216 413.54C490.579 411.733 480.292 401.446 479.319 400.612C478.624 399.917 479.736 398.944 480.431 399.639C481.126 400.473 489.05 410.065 491.413 408.397C493.22 407.007 483.072 399.917 482.516 396.998C481.96 394.078 489.745 403.253 491.413 401.863C492.108 401.307 492.525 400.89 487.243 396.303C484.74 394.078 475.149 387.406 475.149 387.406L446.512 305.25L424.409 317.9L461.108 399.5Z" fill="#FCB693"/>
<path d="M290.262 244.084L258.151 205.856C257.734 204.605 257.178 203.215 256.622 202.103C254.953 199.184 252.312 196.542 249.115 195.847C247.03 195.43 244.806 195.569 243.137 194.318C242.442 193.762 241.886 192.928 241.191 192.372C240.496 191.816 239.245 191.677 238.689 192.511C238.411 193.067 238.55 193.762 238.828 194.457C240.079 197.237 242.025 199.74 244.389 201.686C241.33 202.659 237.021 204.049 237.021 204.049C237.021 204.049 230.348 196.264 226.873 196.264C223.398 196.264 229.653 202.798 229.653 202.798C229.653 202.798 224.093 197.654 222.425 199.045C220.756 200.435 225.066 204.327 225.066 204.327C223.676 203.632 222.147 202.798 220.617 203.076C219.088 203.354 217.698 205.161 218.532 206.551C218.81 207.107 219.366 207.385 219.922 207.663C222.703 209.192 225.622 210.861 228.402 212.39C229.792 213.224 231.321 214.058 232.99 214.058C237.299 214.197 240.635 211.556 244.945 211.695C244.945 211.695 269.133 262.573 271.635 265.214C274.137 267.856 327.24 271.47 327.24 271.47L357.961 244.919L290.262 244.084Z" fill="#FCB693"/>
<path d="M386.598 521.275L419.405 535.593L401.89 576.463C398.136 574.517 399.387 550.05 399.387 550.05L377.979 541.71L386.598 521.275Z" fill="#607755"/>
<g opacity="0.6">
<path opacity="0.6" d="M402.863 536.566C403.419 535.871 404.531 535.732 405.226 536.288C405.921 536.844 406.06 537.956 405.643 538.651C405.087 539.346 403.697 539.624 403.141 538.929C402.446 538.373 402.307 536.983 402.863 536.566Z" fill="white"/>
</g>
<path opacity="0.6" d="M419.266 535.593L415.93 534.342L400.361 573.96C400.361 573.96 400.361 576.185 401.751 576.463L419.266 535.593Z" fill="white"/>
<path d="M398.692 550.606C398.831 550.745 399.387 549.772 400.499 549.077C401.611 548.382 402.585 548.243 402.585 547.965C402.585 547.826 401.333 547.548 400.082 548.382C398.831 549.216 398.553 550.467 398.692 550.606Z" fill="#301226"/>
<path d="M398.693 555.611C398.832 555.75 399.527 555.054 400.778 554.637C401.89 554.22 402.863 554.498 403.002 554.359C403.141 554.22 402.029 553.525 400.639 553.942C398.971 554.359 398.415 555.472 398.693 555.611Z" fill="#301226"/>
<path d="M402.724 560.199C402.863 560.06 402.029 559.365 400.638 559.365C399.387 559.365 398.553 560.199 398.553 560.338C398.692 560.477 399.526 560.199 400.638 560.199C401.751 560.06 402.585 560.477 402.724 560.199Z" fill="#301226"/>
<path d="M394.105 548.104C394.383 548.104 394.383 547.131 394.939 546.019C395.495 544.907 396.19 544.212 396.051 544.073C395.912 543.934 394.8 544.49 394.244 545.741C393.549 546.992 393.827 548.104 394.105 548.104Z" fill="#301226"/>
<path d="M389.656 545.046C389.795 545.046 390.212 544.351 390.49 542.961C390.629 542.266 390.768 541.431 390.768 540.597C390.768 540.18 390.768 539.624 390.629 539.207C390.629 538.929 390.629 538.651 390.351 538.373C390.212 538.095 389.795 537.678 389.378 537.817C388.961 537.956 388.683 538.234 388.544 538.512C388.405 538.79 388.405 539.068 388.266 539.346C388.127 539.902 388.127 540.319 388.127 540.736C388.127 541.709 388.266 542.544 388.544 543.1C388.961 544.49 389.656 545.046 389.656 545.046C389.795 545.046 389.378 544.212 388.961 542.961C388.822 542.266 388.683 541.57 388.683 540.736C388.683 540.319 388.683 539.902 388.822 539.346C388.961 538.929 389.1 538.512 389.239 538.512C389.378 538.512 389.378 538.512 389.517 538.651C389.656 538.79 389.656 539.068 389.656 539.207C389.795 539.624 389.795 540.18 389.795 540.597C389.795 541.431 389.795 542.266 389.656 542.961C389.795 544.212 389.517 545.046 389.656 545.046Z" fill="#301226"/>
<path d="M390.073 544.907C390.073 544.907 389.656 544.212 388.266 543.517C387.571 543.239 386.876 542.961 385.903 542.822C385.486 542.822 384.93 542.822 384.374 542.822C383.818 542.822 383.262 542.961 382.845 543.656C382.706 544.073 382.845 544.49 382.984 544.768C383.262 545.046 383.401 545.185 383.679 545.324C384.096 545.602 384.652 545.741 385.069 545.88C386.042 546.158 386.876 546.019 387.571 545.88C388.961 545.602 389.517 544.768 389.517 544.768C389.378 544.629 388.822 545.185 387.432 545.324C386.737 545.463 386.042 545.324 385.208 545.185C384.791 545.046 384.374 544.907 384.096 544.629C383.679 544.351 383.401 544.073 383.54 543.934C383.679 543.795 384.096 543.517 384.513 543.517C384.93 543.517 385.347 543.517 385.903 543.517C386.737 543.517 387.571 543.795 388.127 543.934C389.239 544.49 389.934 545.046 390.073 544.907Z" fill="#301226"/>
<path d="M361.298 577.436L374.782 605.794L379.091 631.372C379.369 633.179 381.177 634.43 382.984 634.013C383.957 633.735 384.791 633.04 385.208 632.067C387.71 625.951 396.746 603.153 395.634 601.207C394.383 598.843 383.401 570.346 383.401 570.346L361.298 577.436Z" fill="#607755"/>
<path opacity="0.6" d="M382.984 633.875L394.8 599.122L395.356 600.373C395.773 601.485 395.912 602.597 395.634 603.709C394.8 606.628 392.159 614.83 385.347 631.928C384.93 632.902 384.096 633.736 382.984 633.875Z" fill="white"/>
<g opacity="0.6">
<path opacity="0.6" d="M384.791 592.588C384.235 593.422 384.513 594.534 385.347 595.09C386.181 595.646 387.293 595.368 387.849 594.534C388.405 593.7 388.127 592.31 387.293 591.893C386.459 591.476 385.069 591.893 384.791 592.727" fill="white"/>
</g>
<path d="M383.957 618.444C383.818 618.583 382.567 617.332 380.481 617.332C378.396 617.193 377.006 618.305 376.867 618.166C376.867 618.166 377.006 617.749 377.701 617.332C378.257 616.915 379.369 616.637 380.481 616.637C381.594 616.637 382.567 617.054 383.262 617.471C383.818 618.027 383.957 618.305 383.957 618.444Z" fill="#301226"/>
<path d="M383.679 623.171C383.54 623.31 382.289 622.893 380.62 623.032C378.952 623.171 377.84 624.144 377.701 623.866C377.562 623.727 378.674 622.476 380.62 622.337C382.428 622.198 383.818 623.032 383.679 623.171Z" fill="#301226"/>
<path d="M385.485 611.772C385.346 611.911 383.4 611.216 380.759 611.355C378.118 611.494 376.171 612.467 376.032 612.328C375.893 612.189 377.84 610.799 380.759 610.66C383.539 610.521 385.624 611.633 385.485 611.772Z" fill="#301226"/>
<path d="M382.15 602.875C382.15 603.014 380.204 603.153 378.118 603.987C376.033 604.821 374.643 606.072 374.504 605.933C374.365 605.794 375.616 604.265 377.84 603.292C380.204 602.319 382.15 602.597 382.15 602.875Z" fill="#301226"/>
<path d="M378.396 594.395C378.396 594.534 376.311 594.395 374.226 595.508C372.002 596.481 371.029 598.288 370.89 598.149C370.751 598.149 371.029 597.593 371.446 596.898C371.863 596.203 372.836 595.369 373.948 594.812C375.06 594.256 376.311 594.117 377.145 594.117C377.979 594.117 378.396 594.256 378.396 594.395Z" fill="#301226"/>
<path d="M373.531 593.839C373.531 593.839 373.253 593.561 372.975 592.727C372.697 592.032 372.419 590.92 372.558 589.53C372.697 588.835 372.697 588.001 373.253 587.306C373.531 586.889 374.226 586.75 374.643 587.028C375.199 587.306 375.477 587.723 375.616 588.14C376.451 589.947 375.616 592.449 373.67 593.561C371.724 594.673 369.361 594.395 367.832 593.144C367.415 592.866 367.137 592.31 367.137 591.754C367.137 591.198 367.693 590.642 368.11 590.642C369.083 590.364 369.778 590.642 370.473 590.781C371.863 591.198 372.836 591.754 373.392 592.171C374.087 592.588 374.365 592.866 374.226 593.005C374.226 593.144 372.836 591.893 370.334 591.337C369.639 591.198 368.944 591.059 368.249 591.337C367.971 591.476 367.693 591.615 367.693 592.032C367.693 592.31 367.971 592.588 368.249 592.866C369.5 593.839 371.724 594.117 373.392 593.144C375.06 592.171 375.755 589.947 375.06 588.557C374.921 588.14 374.643 587.862 374.365 587.723C374.087 587.584 373.809 587.723 373.531 587.862C373.114 588.279 372.975 589.113 372.836 589.808C372.836 592.171 373.67 593.839 373.531 593.839Z" fill="#301226"/>
<path d="M406.893 524.75L369.777 499.728L382.01 379.065L346.84 358.492L314.728 350.985C314.728 350.985 301.244 378.926 295.267 396.859C282.617 434.948 273.581 448.571 275.666 476.096C276.361 484.853 308.473 506.678 328.908 518.772C329.186 521.553 329.603 524.055 330.02 526.001C336.97 557.418 358.239 599.26 358.239 599.26L390.49 584.247L380.064 548.66L390.907 554.916L406.893 524.75ZM327.1 446.903L331.41 427.58C330.437 439.814 329.603 452.742 329.047 464.975C327.1 459.414 326.405 453.02 327.1 446.903Z" fill="#351245"/>
<path d="M358.239 599.399C358.239 599.399 358.1 599.26 357.961 598.843C357.822 598.426 357.544 598.009 357.266 597.314C356.71 595.924 355.876 593.978 354.764 591.476C352.678 586.332 349.62 578.965 345.867 569.79C342.253 560.615 337.804 549.633 333.356 537.261C332.244 534.203 331.132 531.005 330.158 527.669C329.741 526.001 329.185 524.333 328.907 522.526C328.768 522.109 328.768 521.692 328.629 521.275L328.49 520.023C328.351 519.189 328.351 518.216 328.212 517.382C327.795 513.768 327.517 510.154 327.239 506.539C327.1 504.732 326.961 502.786 326.961 500.979C326.961 499.172 326.822 497.225 326.961 495.279C327.517 480.127 328.768 465.809 329.88 452.603C330.993 439.535 331.966 427.719 332.8 417.85C333.634 407.98 334.19 399.917 334.468 394.357C334.607 391.576 334.746 389.491 334.746 387.962C334.746 387.267 334.746 386.711 334.885 386.294C334.885 385.877 334.885 385.738 334.885 385.738C334.885 385.738 334.885 385.877 334.885 386.294C334.885 386.711 334.885 387.267 334.885 387.962C334.885 389.491 334.746 391.576 334.746 394.357C334.468 399.917 334.051 407.98 333.356 417.85C332.522 427.719 331.688 439.535 330.576 452.603C329.602 465.67 328.351 480.127 327.795 495.14C327.656 497.086 327.795 498.894 327.795 500.701C327.934 502.508 327.934 504.454 328.073 506.261C328.351 509.876 328.629 513.49 329.046 517.104C329.185 517.938 329.185 518.911 329.324 519.745L329.463 520.997C329.602 521.414 329.602 521.831 329.741 522.248C330.019 523.916 330.576 525.584 330.993 527.252C331.966 530.588 333.078 533.647 334.19 536.844C338.499 549.216 342.948 560.198 346.423 569.512C350.037 578.687 353.095 586.193 355.181 591.337C356.154 593.839 356.988 595.924 357.544 597.314C357.822 598.009 357.961 598.426 358.1 598.843C358.239 599.121 358.378 599.399 358.239 599.399Z" fill="#455A64"/>
<path d="M333.495 381.706C333.495 381.706 333.217 381.567 332.661 381.011C332.244 380.455 331.549 379.621 331.132 378.509C330.159 376.146 329.603 372.671 329.603 368.917C329.603 365.164 329.881 361.689 330.02 359.186C330.298 356.684 330.437 355.155 330.576 355.155C330.715 355.155 330.576 356.684 330.437 359.186C330.298 361.689 330.159 365.025 330.159 368.778C330.298 372.532 330.715 375.868 331.549 378.231C331.966 379.343 332.522 380.177 332.8 380.733C333.217 381.289 333.495 381.567 333.495 381.706Z" fill="#455A64"/>
<path d="M319.593 352.931C319.593 352.931 320.01 354.182 319.871 356.267C319.732 358.352 319.037 361.271 317.23 364.052C315.423 366.693 312.921 368.5 310.975 369.334C309.028 370.168 307.777 370.446 307.777 370.307C307.777 370.168 309.028 369.89 310.836 368.917C312.643 367.944 315.006 366.276 316.674 363.635C318.481 361.132 319.176 358.213 319.454 356.267C319.593 354.182 319.454 352.931 319.593 352.931Z" fill="#455A64"/>
<path d="M377.284 423.132C377.284 423.132 377.284 423.271 377.284 423.549C377.284 423.827 377.284 424.244 377.144 424.661C377.005 425.634 376.866 427.024 376.727 428.831C376.31 432.446 375.754 437.589 375.059 443.984C373.669 456.773 371.584 474.427 369.36 493.889C368.526 503.62 369.36 513.073 371.167 521.274C372.001 525.445 373.252 529.198 374.503 532.812C375.754 536.427 376.866 539.763 377.979 542.682C380.064 548.66 381.732 553.664 382.983 557C383.539 558.669 383.956 559.92 384.373 560.893C384.512 561.31 384.651 561.588 384.651 561.866C384.79 562.144 384.79 562.283 384.79 562.283C384.79 562.283 384.79 562.144 384.651 562.005C384.512 561.727 384.373 561.449 384.234 561.032C383.817 560.059 383.4 558.808 382.844 557.139C381.593 553.664 379.786 548.799 377.701 542.821C376.588 539.763 375.476 536.427 374.086 532.951C372.835 529.337 371.584 525.584 370.611 521.413C368.804 513.073 367.831 503.62 368.665 493.889C370.889 474.427 372.974 456.773 374.503 443.984C375.337 437.589 375.893 432.446 376.31 428.831C376.588 427.024 376.727 425.773 376.866 424.661C376.866 424.244 377.005 423.827 377.005 423.549C377.283 423.271 377.284 423.132 377.284 423.132Z" fill="#455A64"/>
<path d="M314.729 350.846L320.428 336.389L333.496 355.712L316.119 351.402" fill="#FFBE9D"/>
<path d="M450.822 307.196L435.391 272.582C433.584 267.022 430.109 266.188 427.19 262.99L388.544 241.166C360.325 229.628 345.033 268.273 345.033 268.273L319.455 326.658C289.429 336.667 310.697 359.743 310.697 359.743C310.697 359.743 302.496 345.564 310.558 340.42C319.038 334.999 328.352 349.178 337.249 362.662C347.814 378.509 382.289 388.796 382.289 388.796C386.32 384.487 385.208 369.613 388.405 361.689C389.378 359.187 413.288 303.86 413.288 303.86L422.602 326.241C422.602 326.241 434.418 312.34 440.257 310.116C445.817 308.03 450.822 307.196 450.822 307.196Z" fill="#E2E2E2"/>
<path d="M382.289 331.801C382.289 331.801 381.872 332.079 381.177 332.636C380.343 333.053 379.231 333.748 377.702 334.304C374.643 335.416 370.056 336.389 365.052 335.555C360.047 334.721 355.877 332.497 353.375 330.411C352.123 329.438 351.15 328.465 350.594 327.77C350.038 327.075 349.76 326.658 349.76 326.658C349.899 326.519 351.15 328.187 353.792 329.994C356.433 331.94 360.464 334.026 365.33 334.721C370.195 335.416 374.782 334.721 377.702 333.609C380.482 332.775 382.289 331.662 382.289 331.801Z" fill="#263238"/>
<path d="M318.343 276.891L342.253 279.116L380.343 238.802L357.962 237.968L318.065 241.86C317.926 241.999 321.401 258.681 318.343 276.891Z" fill="#E2E2E2"/>
<path d="M351.428 255.623C351.428 255.623 351.289 255.901 351.15 256.318C350.872 256.874 350.594 257.569 350.177 258.403C349.343 260.21 348.092 262.851 346.702 265.909C343.782 272.304 339.751 281.201 335.581 291.071C331.271 300.94 327.379 309.837 324.46 316.232C322.931 319.429 321.818 322.07 320.984 323.738C320.567 324.573 320.289 325.268 320.011 325.824C319.733 326.241 319.594 326.519 319.594 326.519C319.594 326.519 319.733 326.241 319.872 325.824C320.15 325.268 320.428 324.573 320.706 323.738C321.54 321.792 322.652 319.29 324.043 316.093C326.823 309.559 330.715 300.662 334.886 290.793C339.195 280.923 343.226 272.026 346.285 265.77C347.814 262.573 349.065 260.071 350.038 258.264C350.455 257.43 350.872 256.735 351.15 256.318C351.289 255.901 351.428 255.623 351.428 255.623Z" fill="#263238"/>
<path d="M424.132 267.439C424.132 267.578 422.741 268.273 420.656 270.08C419.683 270.914 418.571 272.026 417.459 273.417C416.347 274.807 415.374 276.336 414.401 278.143C413.567 279.95 412.872 281.757 412.455 283.425C412.037 285.094 411.898 286.762 411.898 288.013C411.759 290.654 412.177 292.322 412.038 292.322C412.038 292.322 411.898 291.905 411.759 291.21C411.62 290.793 411.62 290.376 411.62 289.82C411.62 289.264 411.481 288.708 411.481 288.013C411.481 286.623 411.62 285.094 412.038 283.286C412.455 281.479 413.011 279.672 413.984 277.726C414.957 275.919 416.069 274.251 417.181 272.86C418.293 271.47 419.544 270.358 420.517 269.524C421.073 269.107 421.49 268.829 422.046 268.412C422.463 268.134 422.88 267.856 423.297 267.717C423.854 267.578 424.132 267.3 424.132 267.439Z" fill="#263238"/>
<path d="M430.804 211.973L408.423 253.815C404.808 260.627 396.468 263.546 389.378 260.349C381.593 256.873 378.396 247.56 382.428 240.053C384.513 236.022 386.32 232.824 386.32 232.824C386.32 232.824 376.589 226.569 381.176 216.004C385.208 206.69 400.082 180.139 403.279 174.578L422.185 183.058C432.611 188.48 436.642 201.547 430.804 211.973Z" fill="#FCB693"/>
<path d="M386.32 232.546C386.32 232.546 392.715 236.021 401.611 234.77C401.611 234.77 395.078 240.887 385.069 235.187L386.32 232.546Z" fill="#EB996E"/>
<path d="M393.549 199.183C393.132 200.017 393.549 200.851 394.383 201.268C395.217 201.686 396.19 201.407 396.468 200.573C396.885 199.739 396.468 198.766 395.773 198.488C394.939 198.071 393.966 198.349 393.549 199.183Z" fill="#263238"/>
<path d="M393.549 197.793C393.688 198.071 395.217 197.793 396.746 198.488C398.414 199.183 399.109 200.573 399.387 200.434C399.526 200.434 399.526 200.017 399.109 199.322C398.831 198.766 398.136 197.932 397.024 197.515C396.051 197.098 395.078 197.098 394.383 197.237C393.827 197.376 393.549 197.654 393.549 197.793Z" fill="#263238"/>
<path d="M408.562 206.551C408.145 207.385 408.562 208.219 409.396 208.636C410.23 209.053 411.203 208.775 411.481 207.941C411.898 207.107 411.481 206.134 410.786 205.856C409.952 205.439 408.979 205.717 408.562 206.551Z" fill="#263238"/>
<path d="M409.257 205.161C409.396 205.439 410.925 205.161 412.455 205.856C414.123 206.551 414.818 207.941 415.096 207.802C415.235 207.802 415.235 207.385 414.818 206.69C414.54 206.134 413.845 205.3 412.733 204.883C411.76 204.466 410.786 204.466 410.091 204.605C409.535 204.744 409.257 205.022 409.257 205.161Z" fill="#263238"/>
<path d="M398.137 214.474C398.137 214.335 397.303 213.779 395.774 212.806C395.357 212.528 395.079 212.389 395.079 211.972C395.079 211.694 395.496 211.277 395.913 210.86C396.747 210.026 397.581 209.192 398.554 208.219C402.168 204.465 405.087 201.407 404.948 201.268C404.809 201.129 401.751 204.048 397.998 207.663C397.164 208.636 396.191 209.47 395.496 210.304C395.079 210.721 394.661 211.138 394.522 211.833C394.522 212.25 394.661 212.528 394.94 212.667C395.218 212.806 395.357 212.945 395.635 213.084C397.025 214.057 397.998 214.613 398.137 214.474Z" fill="#263238"/>
<path d="M402.307 217.672C402.029 217.533 401.334 219.34 399.249 219.896C397.163 220.452 395.495 219.479 395.356 219.618C395.217 219.757 395.634 220.174 396.329 220.452C397.024 220.869 398.275 221.147 399.527 220.73C400.778 220.313 401.612 219.479 402.029 218.784C402.446 218.228 402.446 217.811 402.307 217.672Z" fill="#263238"/>
<path d="M411.621 198.766C411.621 199.322 413.289 199.739 415.096 200.851C416.903 201.825 418.154 203.076 418.571 202.798C418.71 202.659 418.71 202.103 418.293 201.407C417.876 200.712 417.042 199.878 416.069 199.183C414.957 198.488 413.845 198.21 413.011 198.21C412.177 198.21 411.76 198.488 411.621 198.766Z" fill="#263238"/>
<path d="M396.329 193.484C396.468 194.04 397.719 194.04 399.109 194.735C400.499 195.291 401.472 196.125 401.889 195.847C402.028 195.708 402.028 195.291 401.75 194.735C401.472 194.179 400.777 193.484 399.804 193.206C398.831 192.789 397.997 192.789 397.302 192.928C396.607 192.928 396.19 193.206 396.329 193.484Z" fill="#263238"/>
<path d="M423.854 218.228C424.132 218.228 431.917 219.34 428.58 226.29C425.105 233.38 418.85 228.376 418.85 228.237C418.85 228.098 423.854 218.228 423.854 218.228Z" fill="#FCB693"/>
<path d="M422.324 226.707C422.324 226.707 422.463 226.846 422.602 226.985C422.741 227.124 423.019 227.402 423.575 227.402C424.409 227.541 425.661 226.568 426.356 225.317C426.634 224.622 426.912 224.066 426.912 223.371C426.912 222.815 426.773 222.259 426.495 221.981C426.217 221.703 425.8 221.842 425.661 221.981C425.522 222.12 425.383 222.259 425.383 222.259C425.383 222.259 425.244 222.12 425.522 221.842C425.661 221.703 425.8 221.564 426.078 221.564C426.356 221.564 426.634 221.564 426.912 221.703C427.468 221.981 427.746 222.676 427.607 223.371C427.607 224.066 427.468 224.9 427.051 225.595C426.356 226.985 424.966 227.959 423.714 227.82C423.158 227.68 422.88 227.402 422.741 227.124C422.185 226.985 422.185 226.707 422.324 226.707Z" fill="#EB996E"/>
<path d="M427.885 219.757C426.912 219.062 424.549 219.201 423.714 220.035C422.741 220.869 422.185 221.981 421.212 222.815C420.239 223.65 418.849 224.067 417.876 223.372C417.181 222.815 417.042 221.842 417.181 221.008C417.32 220.174 417.737 219.479 418.154 218.645C420.1 215.448 422.185 212.529 423.854 209.192C425.522 205.856 426.634 202.242 426.078 198.488C425.661 194.874 423.297 191.26 419.822 190.009C417.459 189.175 414.957 189.453 412.594 188.758C409.813 187.923 407.45 185.838 406.477 183.058C406.338 182.78 405.504 181.529 405.504 181.529C405.643 181.39 406.477 180 407.311 179.722C413.567 177.637 421.907 180 427.051 184.031C432.194 188.062 435.809 194.596 435.809 201.13C435.809 207.802 431.777 214.892 427.885 219.757Z" fill="#263238"/>
<path d="M428.024 219.063C429.97 215.726 433.167 213.363 435.53 210.305C437.894 207.246 439.562 203.076 437.894 199.601C437.337 198.489 436.364 197.377 435.808 196.265C435.252 195.013 435.252 193.623 435.113 192.372C434.557 188.341 431.916 184.588 428.441 182.641C425.939 181.251 423.158 180.695 420.656 179.444C416.625 177.359 413.844 173.467 409.674 171.798C408.284 171.242 406.616 170.964 405.365 171.659C403.975 172.354 403.28 174.301 404.253 175.413C404.114 174.023 402.306 173.328 401.194 173.884C399.943 174.44 399.387 175.83 399.387 177.22C399.526 178.61 400.082 179.861 400.916 180.834C403.419 184.448 407.311 187.09 411.62 188.202L421.212 187.507L429.136 193.345L434.974 202.659L424.409 216.421L428.024 219.063Z" fill="#263238"/>
<path d="M367.97 164.43C366.718 145.803 350.593 131.623 331.965 132.736C313.338 133.987 299.159 150.112 300.271 168.74C301.105 182.224 309.863 193.345 321.679 198.071C321.957 202.103 322.235 206.551 322.235 206.551L351.844 204.605C351.844 204.605 351.705 199.739 351.566 195.569C361.992 189.313 368.804 177.497 367.97 164.43Z" fill="#DDC0DE"/>
<path d="M341.14 205.3C341.14 205.3 341.14 205.161 341.14 204.883C341.14 204.605 341.14 204.188 341.14 203.632C341.14 202.52 341.279 200.991 341.419 198.905C341.558 196.82 341.836 194.318 342.253 191.399C342.67 188.479 343.365 185.282 344.755 181.807C345.45 180.139 346.145 178.332 347.257 176.524C347.813 175.69 348.508 174.856 349.481 174.3C350.454 173.744 351.705 173.744 352.678 174.161C353.235 174.439 353.652 174.856 353.791 175.412C354.069 175.968 353.93 176.663 353.791 177.219C353.374 178.332 352.4 179.166 351.288 179.583C349.064 180.556 346.562 180.417 344.199 179.583C341.836 178.61 340.028 176.663 339.055 174.3C338.638 173.049 338.36 171.798 338.638 170.408C338.916 169.018 340.028 167.767 341.558 167.906C342.253 167.906 342.948 168.323 343.365 169.018C343.782 169.574 343.921 170.408 343.782 171.103C343.504 172.493 342.531 173.605 341.558 174.578C339.472 176.524 336.692 177.637 333.773 177.359C330.854 177.08 328.212 175.412 326.961 172.91C326.266 171.659 325.988 170.13 326.405 168.879C326.683 168.184 327.1 167.628 327.795 167.35C328.49 167.072 329.185 167.072 329.881 167.35C330.576 167.628 331.132 168.184 331.41 168.74C331.827 169.296 331.966 169.991 332.105 170.686C332.244 171.937 332.244 173.327 331.827 174.578C331.132 177.08 329.602 179.305 327.378 180.556C325.293 181.807 322.791 182.363 320.428 181.946C319.316 181.807 318.064 181.39 317.23 180.556C316.396 179.722 316.118 178.332 316.813 177.359C317.23 176.941 317.786 176.663 318.342 176.524C318.899 176.385 319.455 176.524 320.011 176.802C320.984 177.219 321.679 178.193 322.235 179.027C323.208 180.834 324.042 182.502 324.737 184.17C327.934 190.843 330.159 196.264 331.688 200.156C332.522 202.103 333.078 203.493 333.356 204.605C333.495 205.161 333.634 205.439 333.773 205.717C333.912 205.995 333.912 206.134 333.912 206.134C333.912 206.134 333.912 205.995 333.773 205.717C333.634 205.439 333.495 205.022 333.356 204.605C332.939 203.632 332.383 202.103 331.549 200.295C330.02 196.542 327.656 190.982 324.459 184.448C323.625 182.78 322.791 181.112 321.818 179.305C321.262 178.471 320.706 177.637 319.733 177.219C318.899 176.802 317.647 176.941 317.091 177.776C316.535 178.61 316.813 179.861 317.508 180.556C318.204 181.39 319.316 181.668 320.428 181.807C322.652 182.085 325.015 181.668 327.1 180.417C329.185 179.166 330.715 177.08 331.271 174.717C331.549 173.466 331.688 172.215 331.549 170.964C331.41 169.713 330.715 168.462 329.602 167.906C329.046 167.628 328.351 167.628 327.795 167.906C327.239 168.184 326.822 168.601 326.683 169.296C326.266 170.547 326.544 171.937 327.1 173.049C328.351 175.412 330.854 177.08 333.634 177.219C336.414 177.498 339.055 176.385 341.001 174.578C341.975 173.605 342.809 172.632 343.087 171.242C343.226 170.686 343.087 169.991 342.809 169.435C342.531 168.879 341.975 168.601 341.279 168.601C340.723 168.601 340.028 168.879 339.611 169.296C339.194 169.713 338.916 170.269 338.777 170.825C338.499 172.076 338.777 173.327 339.194 174.439C340.028 176.802 341.975 178.61 344.06 179.583C346.284 180.556 348.786 180.556 350.871 179.583C351.844 179.166 352.817 178.332 353.096 177.359C353.513 176.385 353.096 175.273 352.122 174.717C351.149 174.3 350.037 174.3 349.203 174.856C348.369 175.273 347.674 176.107 347.118 176.941C346.145 178.61 345.311 180.417 344.616 182.085C343.365 185.56 342.67 188.757 342.114 191.677C341.697 194.596 341.419 197.098 341.14 199.044C341.001 201.13 340.862 202.659 340.723 203.771C340.723 204.327 340.584 204.744 340.584 205.022C341.14 205.161 341.14 205.3 341.14 205.3Z" fill="#263238"/>
<path d="M349.898 210.443L324.459 212.112C323.347 212.112 322.513 211.416 322.374 210.304C322.374 209.192 323.069 208.358 324.181 208.219L349.62 206.551C350.732 206.551 351.566 207.246 351.705 208.358C351.844 209.47 351.01 210.304 349.898 210.443Z" fill="#263238"/>
<path d="M350.037 212.111L324.598 213.779C323.486 213.779 322.791 214.753 322.791 215.865C322.791 216.977 323.764 217.672 324.876 217.672L327.656 217.533L331.827 224.344C332.244 225.178 333.217 225.596 334.051 225.457L343.087 224.9C344.06 224.9 344.755 224.205 345.172 223.371L348.369 216.143L350.315 216.004C351.428 216.004 352.123 215.031 352.123 213.918C351.984 212.806 351.149 211.972 350.037 212.111Z" fill="#263238"/>
<g opacity="0.2">
<path opacity="0.2" d="M310.975 146.498C313.06 144.274 315.423 142.605 317.508 141.493C319.594 140.381 321.401 139.825 322.652 139.686C323.903 139.408 324.598 139.547 324.737 139.825C324.876 140.381 322.374 141.493 319.177 143.996C315.84 146.498 311.809 150.668 309.585 156.507C307.361 162.206 307.5 168.184 308.334 172.215C309.029 176.246 310.141 178.749 309.585 179.166C309.307 179.305 308.751 178.888 307.917 177.915C307.083 176.941 306.248 175.273 305.414 173.049C304.58 170.825 304.024 168.184 304.024 164.986C303.885 161.928 304.441 158.453 305.692 155.117" fill="white"/>
</g>
<g opacity="0.2">
<path opacity="0.2" d="M332.939 140.659C330.853 140.798 328.907 140.381 328.629 139.13C328.49 138.574 328.907 137.879 329.602 137.462C330.297 136.906 331.409 136.489 332.8 136.489C334.051 136.35 335.302 136.628 335.997 137.045C336.831 137.462 337.248 138.018 337.109 138.574" fill="white"/>
</g>
<path d="M344.754 223.928C344.754 223.928 344.059 223.789 342.947 223.511C341.835 223.233 340.306 223.094 338.638 223.233C336.97 223.372 335.441 223.928 334.467 224.345C333.494 224.762 332.799 225.179 332.799 225.04C332.799 225.04 333.355 224.484 334.328 224.067C335.302 223.511 336.831 222.955 338.638 222.816C340.445 222.677 341.974 222.955 343.086 223.233C344.198 223.511 344.893 223.789 344.754 223.928Z" fill="#455A64"/>
<path d="M348.508 216.143C348.508 216.282 343.92 216.699 338.221 216.977C332.521 217.394 327.934 217.533 327.934 217.394C327.934 217.255 332.521 216.838 338.221 216.56C343.781 216.143 348.508 216.004 348.508 216.143Z" fill="#455A64"/>
<path d="M347.118 219.201C347.118 219.201 346.145 219.479 344.616 219.618C343.087 219.757 340.863 220.035 338.5 220.174C336.136 220.313 333.912 220.452 332.383 220.452C330.854 220.452 329.881 220.452 329.881 220.452C329.881 220.452 330.854 220.313 332.383 220.174C334.051 220.035 336.136 219.896 338.5 219.757C340.863 219.618 342.948 219.34 344.616 219.201C346.145 219.201 347.118 219.201 347.118 219.201Z" fill="#455A64"/>
<path d="M163.761 389.491L169.322 398.388C169.322 398.388 192.954 376.702 216.308 382.818C216.308 382.679 195.317 364.886 163.761 389.491Z" fill="#A14C84"/>
<path d="M216.308 382.679C216.308 382.679 233.684 363.913 258.984 368.222L265.935 369.334L263.711 365.303C263.711 365.303 219.505 350.15 216.308 382.679Z" fill="#A24C84"/>
<path d="M179.747 319.429C179.747 319.429 145.133 313.451 122.335 325.823L158.479 393.8C158.479 393.8 188.088 365.303 216.308 382.818L179.747 319.429Z" fill="#F5F5F5"/>
<path d="M179.748 319.429C179.748 319.429 179.748 319.568 179.887 319.707C180.026 319.985 180.165 320.263 180.443 320.541C180.86 321.375 181.555 322.487 182.389 323.877C184.196 326.935 186.698 331.245 189.895 336.805C196.29 347.926 205.465 363.773 216.447 382.679C216.586 382.818 216.447 382.957 216.308 383.096C216.169 383.096 216.03 383.096 216.03 383.096C212.137 380.733 207.55 378.926 202.685 377.953C200.182 377.536 197.68 377.397 195.178 377.397C192.676 377.536 190.034 377.814 187.532 378.37C177.245 380.594 167.376 386.154 158.896 393.661L158.618 393.939C158.479 394.078 158.201 394.078 158.062 393.939C158.062 393.939 158.062 393.939 158.062 393.8C144.717 368.5 132.344 345.146 122.058 325.823C121.919 325.684 122.058 325.545 122.197 325.406C130.12 321.236 138.183 319.568 145.273 318.594C152.362 317.621 158.618 317.621 163.761 317.76C168.905 317.899 172.936 318.316 175.577 318.733C176.967 318.872 177.94 319.011 178.635 319.151C178.914 319.151 179.192 319.29 179.47 319.29C179.609 319.29 179.748 319.429 179.748 319.429C179.748 319.429 179.609 319.429 179.47 319.429C179.331 319.429 179.053 319.429 178.635 319.29C177.94 319.151 176.967 319.011 175.577 318.872C172.936 318.594 168.905 318.177 163.761 318.177C158.618 318.038 152.362 318.177 145.273 319.151C138.183 320.124 130.259 321.931 122.336 326.101L122.475 325.684C132.762 344.868 145.134 368.361 158.618 393.661L158.062 393.522L158.34 393.244C162.649 389.352 167.236 386.154 172.102 383.513C176.967 380.872 182.111 378.926 187.254 377.814C189.895 377.258 192.398 376.98 195.039 376.841C197.68 376.841 200.182 376.98 202.685 377.397C207.689 378.231 212.276 380.177 216.169 382.679L215.752 383.096C204.909 364.19 195.873 348.343 189.478 337.222C186.281 331.662 183.779 327.213 182.111 324.294C181.277 322.765 180.582 321.653 180.165 320.819C180.026 320.402 179.748 320.124 179.609 319.985C179.748 319.429 179.748 319.429 179.748 319.429Z" fill="#263238"/>
<path d="M234.241 305.389C234.241 305.389 207.967 288.707 180.165 319.29L216.725 382.679C216.725 382.679 224.232 356.962 267.743 365.859L234.241 305.389Z" fill="#F5F5F5"/>
<path d="M234.24 305.388C234.24 305.388 234.24 305.527 234.379 305.666C234.518 305.805 234.657 306.083 234.796 306.5C235.214 307.195 235.909 308.308 236.604 309.698C238.272 312.617 240.496 316.787 243.554 321.931C249.532 332.496 257.872 347.648 268.02 365.72C268.159 365.859 268.02 365.998 267.881 366.137H267.742C265.657 365.72 263.433 365.442 261.209 365.024C260.097 364.746 258.985 364.746 257.872 364.607C256.76 364.468 255.648 364.468 254.397 364.329C253.285 364.19 252.034 364.19 250.922 364.19C249.81 364.19 248.559 364.19 247.447 364.19C246.195 364.19 245.083 364.468 243.832 364.607C242.581 364.746 241.469 364.885 240.218 365.163C238.967 365.442 237.855 365.72 236.604 365.998C235.492 366.415 234.24 366.832 233.128 367.249C232.016 367.666 230.904 368.361 229.792 368.778C229.236 369.056 228.68 369.334 228.124 369.751L226.595 370.724C225.483 371.419 224.649 372.253 223.537 373.087C222.702 374.06 221.729 374.894 220.895 375.867C219.227 377.814 217.837 380.177 217.003 382.54C217.003 382.679 216.725 382.818 216.586 382.818C216.447 382.818 216.447 382.679 216.447 382.679C216.03 381.845 215.474 381.011 214.918 380.177C201.99 357.796 189.896 336.805 179.887 319.29C179.887 319.151 179.887 319.011 179.887 319.011C186.003 312.339 192.815 307.195 199.626 304.137C206.438 301.079 212.972 300.245 218.254 300.662C223.536 300.94 227.568 302.33 230.209 303.303C231.46 303.859 232.433 304.276 233.128 304.693C233.406 304.832 233.684 304.971 233.823 305.11C234.24 305.388 234.24 305.388 234.24 305.388C234.24 305.388 234.101 305.388 233.962 305.249C233.823 305.11 233.545 304.971 233.267 304.832C232.572 304.554 231.599 303.998 230.348 303.581C227.707 302.608 223.676 301.357 218.393 301.079C213.111 300.801 206.577 301.635 199.904 304.693C193.232 307.752 186.42 312.756 180.304 319.568V319.29C190.452 336.805 202.407 357.657 215.474 380.038C216.03 380.872 216.447 381.845 217.003 382.54L216.308 382.679C217.281 380.038 218.671 377.814 220.339 375.728C221.173 374.616 222.146 373.782 222.98 372.809C223.954 371.975 224.927 371.141 226.039 370.446L227.707 369.334C228.263 368.917 228.819 368.639 229.375 368.361C230.487 367.805 231.599 367.11 232.85 366.693C234.101 366.276 235.214 365.859 236.465 365.442C237.716 365.163 238.967 364.885 240.079 364.607C241.33 364.329 242.442 364.19 243.693 364.051C244.944 363.912 246.056 363.773 247.308 363.634C248.559 363.634 249.671 363.634 250.922 363.634C252.173 363.634 253.285 363.634 254.397 363.773C255.509 363.912 256.76 363.912 257.872 364.051C258.985 364.19 260.097 364.19 261.209 364.468C263.433 364.885 265.657 365.163 267.742 365.581L267.464 365.998C257.455 347.926 249.115 332.774 243.276 322.07C240.357 316.787 238.133 312.617 236.465 309.698C235.77 308.308 235.075 307.195 234.657 306.361C234.518 305.944 234.379 305.666 234.24 305.527V305.388Z" fill="#263238"/>
<path d="M132.066 293.016L171.128 368.361C171.128 368.361 202.962 366.971 216.307 382.401L180.025 319.429C180.164 319.429 158.895 293.016 132.066 293.016Z" fill="#F5F5F5"/>
<path d="M132.066 293.016C132.066 293.016 132.344 293.016 133.039 293.016C133.734 293.016 134.707 293.155 136.097 293.155C136.375 293.155 136.792 293.155 137.209 293.155C137.626 293.155 137.904 293.294 138.321 293.294C139.156 293.433 139.99 293.572 140.963 293.711C141.936 293.85 142.909 294.128 144.021 294.406C145.133 294.685 146.245 294.963 147.357 295.38C156.671 298.438 169.182 306.083 180.442 319.012C190.729 336.944 203.24 358.63 216.724 381.984C216.863 382.123 216.724 382.401 216.585 382.401C216.446 382.54 216.307 382.401 216.168 382.401C215.751 381.984 215.195 381.428 214.639 380.872C211.72 378.092 208.245 375.868 204.63 374.199C201.016 372.531 197.263 371.28 193.509 370.585C186.003 368.917 178.357 368.222 171.267 368.361C171.128 368.361 170.989 368.361 170.989 368.222C159.451 346.397 149.72 327.491 142.909 314.146C139.573 307.474 136.792 302.191 134.985 298.577C134.012 296.77 133.317 295.38 132.9 294.406C132.622 293.989 132.483 293.572 132.344 293.294C132.205 293.155 132.066 293.016 132.066 293.016C132.066 293.016 132.205 293.155 132.344 293.433C132.483 293.711 132.622 293.989 132.9 294.545C133.456 295.519 134.151 296.909 135.124 298.716C137.07 302.33 139.851 307.613 143.326 314.285C150.276 327.63 160.146 346.258 171.545 368.222L171.267 368.083C178.496 367.944 186.003 368.5 193.648 370.307C197.402 371.141 201.294 372.392 204.908 374.06C208.662 375.59 212.137 377.953 215.056 380.872C215.612 381.428 216.168 381.984 216.585 382.401L216.029 382.818C202.545 359.325 190.173 337.639 179.886 319.707C174.326 313.173 168.348 308.169 162.788 304.276C157.088 300.384 151.806 297.743 147.079 296.075C145.967 295.658 144.855 295.38 143.743 295.102C142.631 294.824 141.658 294.545 140.824 294.406C139.851 294.267 139.017 294.128 138.182 293.989C137.765 293.85 137.348 293.85 137.07 293.85C136.653 293.85 136.375 293.85 136.097 293.711C133.734 293.155 132.622 293.016 132.066 293.016Z" fill="#263238"/>
<path d="M254.119 506.539L254.953 507.929C255.926 509.459 257.316 510.71 258.845 511.544L260.235 512.239L258.845 513.073C257.316 514.046 256.065 515.436 255.231 516.965L254.536 518.355L253.702 516.965C252.729 515.436 251.339 514.185 249.81 513.351L248.419 512.656L249.81 511.822C251.339 510.849 252.59 509.459 253.424 507.929L254.119 506.539Z" fill="#E550E8"/>
<path d="M177.107 219.757L177.941 221.147C178.914 222.676 180.304 223.927 181.833 224.762L183.223 225.457L181.833 226.291C180.304 227.264 179.053 228.654 178.219 230.183L177.524 231.573L176.69 230.183C175.717 228.654 174.326 227.403 172.797 226.569L171.407 225.874L172.797 225.04C174.326 224.066 175.578 222.676 176.412 221.147L177.107 219.757Z" fill="#E550E8"/>
<path d="M533.811 269.246L534.645 270.636C535.618 272.165 537.009 273.416 538.538 274.25L539.928 274.945L538.538 275.779C537.009 276.752 535.757 278.142 534.923 279.672L534.228 281.062L533.394 279.672C532.421 278.142 531.031 276.891 529.502 276.057L528.112 275.362L529.502 274.528C531.031 273.555 532.282 272.165 533.116 270.636L533.811 269.246Z" fill="#E550E8"/>
<path d="M491.69 524.472L492.524 525.862C493.497 527.391 494.887 528.642 496.417 529.476L497.807 530.171L496.417 531.005C494.887 531.978 493.636 533.368 492.802 534.898L492.107 536.288L491.273 534.898C490.3 533.368 488.91 532.117 487.381 531.283L485.991 530.588L487.381 529.754C488.91 528.781 490.161 527.391 490.995 525.862L491.69 524.472Z" fill="#E550E8"/>
<path d="M499.615 578.13L500.032 578.269C500.449 578.408 501.005 578.547 501.422 578.408L501.839 578.269L501.7 578.686C501.561 579.103 501.422 579.659 501.561 580.077L501.7 580.494L501.283 580.355C500.866 580.216 500.31 580.077 499.893 580.216L499.476 580.355L499.615 579.938C499.754 579.52 499.893 578.964 499.754 578.547L499.615 578.13Z" fill="#E8505B"/>
<path d="M523.942 215.448L524.359 215.587C524.776 215.726 525.332 215.865 525.749 215.726L526.166 215.587L526.027 216.004C525.888 216.421 525.749 216.977 525.888 217.394L526.027 217.811L525.61 217.672C525.193 217.533 524.637 217.394 524.22 217.533L523.803 217.672L523.942 217.255C524.081 216.838 524.22 216.282 524.081 215.865L523.942 215.448Z" fill="#E8505B"/>
<path d="M192.676 182.363L193.093 182.502C193.51 182.641 194.066 182.78 194.483 182.641L194.9 182.502L194.761 182.919C194.622 183.336 194.483 183.892 194.622 184.309L194.761 184.726L194.344 184.587C193.927 184.448 193.371 184.309 192.954 184.448L192.537 184.587L192.676 184.17C192.815 183.753 192.954 183.197 192.815 182.78L192.676 182.363Z" fill="#662185"/>
<path d="M233.546 464.835L233.963 464.974C234.38 465.113 234.936 465.252 235.353 465.113L235.77 464.974L235.631 465.391C235.492 465.809 235.353 466.365 235.492 466.782L235.631 467.199L235.214 467.06C234.797 466.921 234.241 466.782 233.824 466.921L233.407 467.06L233.546 466.643C233.685 466.226 233.824 465.67 233.685 465.252L233.546 464.835Z" fill="#E8505B"/>
<path d="M277.89 573.96C277.89 573.96 277.751 574.099 277.473 574.377C277.195 574.655 276.778 575.072 276.361 575.489C275.249 576.462 273.859 577.991 271.912 579.798C268.02 583.552 262.321 589.112 255.231 595.924V595.785C256.065 613.161 257.038 636.932 258.289 663.344V663.9L257.733 663.622C255.787 662.371 253.841 660.981 251.756 659.591C237.994 650.416 225.065 641.659 213.666 634.013H213.527V633.874C207.828 616.914 203.102 602.596 199.626 592.448C197.958 587.444 196.707 583.413 195.734 580.632C195.317 579.242 194.9 578.269 194.761 577.574C194.622 577.296 194.622 577.018 194.483 576.74C194.483 576.601 194.344 576.462 194.344 576.462C194.344 576.462 194.344 576.601 194.483 576.74C194.622 576.879 194.622 577.157 194.761 577.574C195.039 578.269 195.317 579.381 195.873 580.632C196.846 583.413 198.236 587.305 199.904 592.309C203.38 602.457 208.245 616.775 213.944 633.735L213.805 633.596C225.204 641.242 238.272 649.86 252.034 659.035C254.119 660.425 256.204 661.815 258.011 663.066L257.594 663.344C256.482 636.932 255.509 613.3 254.675 595.785V595.646H254.814C261.904 588.973 267.603 583.552 271.634 579.659C273.581 577.852 275.11 576.323 276.222 575.35C276.778 574.933 277.195 574.516 277.473 574.238C277.751 574.099 277.89 573.96 277.89 573.96Z" fill="#A48B9B"/>
<path d="M260.096 655.282V659.313L263.155 661.676L259.401 662.649L258.15 666.403L255.926 663.205H252.034L254.397 660.008L253.285 656.255L256.899 657.645L260.096 655.282Z" fill="#A48B9B"/>
<path d="M214.222 628.592V631.233L216.446 632.623L214.083 633.457L213.388 635.82L211.859 633.874L209.218 634.013L210.747 631.928L209.774 629.565L212.276 630.26L214.222 628.592Z" fill="#A48B9B"/>
<path d="M194.344 571.736L196.29 574.238L199.487 573.96L197.68 576.601L198.792 579.52L195.873 578.686L193.371 580.632V577.574L190.729 575.767L193.649 574.794L194.344 571.736Z" fill="#A48B9B"/>
<path d="M275.944 569.233L277.89 571.736L281.087 571.597L279.28 574.099L280.392 577.018L277.473 576.184L274.971 578.13V575.072L272.33 573.404L275.249 572.292L275.944 569.233Z" fill="#A48B9B"/>
<path d="M254.537 593.144L255.788 594.673L257.734 594.534L256.622 596.202L257.456 598.148L255.51 597.592L253.981 598.843L253.841 596.758L252.173 595.785L254.12 595.09L254.537 593.144Z" fill="#A48B9B"/>
<path d="M180.999 487.911C196.277 487.911 208.662 475.526 208.662 460.248C208.662 444.97 196.277 432.584 180.999 432.584C165.721 432.584 153.335 444.97 153.335 460.248C153.335 475.526 165.721 487.911 180.999 487.911Z" fill="#662185"/>
<g opacity="0.3">
<g opacity="0.3">
<g opacity="0.3">
<g opacity="0.3">
<path opacity="0.3" d="M177.385 468.867C177.385 471.369 175.3 473.454 172.797 473.454C170.295 473.454 168.21 471.369 168.21 468.867C168.21 466.365 170.295 464.279 172.797 464.279C175.439 464.418 177.385 466.365 177.385 468.867Z" fill="#662185"/>
</g>
</g>
</g>
</g>
<g opacity="0.3">
<g opacity="0.3">
<g opacity="0.3">
<g opacity="0.3">
<path opacity="0.3" d="M170.99 455.799C170.99 457.19 169.878 458.441 168.349 458.441C166.959 458.441 165.708 457.329 165.708 455.799C165.708 454.409 166.82 453.158 168.349 453.158C169.878 453.158 170.99 454.409 170.99 455.799Z" fill="#662185"/>
</g>
</g>
</g>
</g>
<path d="M154.169 467.06C154.308 467.477 130.398 490.414 136.654 495.279C142.77 500.144 168.626 487.633 190.729 469.84C212.832 452.046 232.989 430.36 227.429 424.661C221.868 418.961 194.344 435.921 194.344 435.921L197.68 438.006C197.68 438.006 214.361 427.302 219.644 431.472C224.926 435.643 209.913 451.768 188.644 467.338C167.375 482.768 146.941 493.611 143.743 489.441C140.546 485.131 155.559 471.091 155.559 471.091L154.169 467.06Z" fill="#662185"/>
<g opacity="0.3">
<g opacity="0.3">
<g opacity="0.3">
<g opacity="0.3">
<path opacity="0.3" d="M154.169 467.06C154.308 467.477 130.398 490.414 136.654 495.279C142.77 500.144 168.626 487.633 190.729 469.84C212.832 452.046 232.989 430.36 227.429 424.661C221.868 418.961 194.344 435.921 194.344 435.921L197.68 438.006C197.68 438.006 214.361 427.302 219.644 431.472C224.926 435.643 209.913 451.768 188.644 467.338C167.375 482.768 146.941 493.611 143.743 489.441C140.546 485.131 155.559 471.091 155.559 471.091L154.169 467.06Z" fill="#662185"/>
</g>
</g>
</g>
</g>
<g opacity="0.3">
<g opacity="0.3">
<g opacity="0.3">
<g opacity="0.3">
<g opacity="0.3">
<path opacity="0.3" d="M165.707 440.786C165.985 441.064 164.039 442.594 161.954 445.791C159.869 448.988 157.645 453.993 157.506 459.692C157.367 465.531 159.452 470.535 161.398 473.732C163.344 477.069 165.151 478.737 165.012 478.876C164.873 479.015 162.649 477.764 160.147 474.566C158.896 472.898 157.645 470.813 156.811 468.311C155.838 465.809 155.282 462.75 155.421 459.692C155.56 456.495 156.116 453.575 157.228 451.073C158.201 448.571 159.591 446.486 160.842 444.957C163.344 441.759 165.568 440.508 165.707 440.786Z" fill="#662185"/>
</g>
</g>
</g>
</g>
</g>
<path d="M502.416 217.107C511.562 208.342 511.871 193.822 503.106 184.676C494.342 175.53 479.822 175.221 470.676 183.986C461.53 192.751 461.221 207.27 469.985 216.416C478.75 225.563 493.27 225.872 502.416 217.107Z" fill="#662185"/>
<g opacity="0.4">
<g opacity="0.4">
<g opacity="0.4">
<g opacity="0.4">
<path opacity="0.4" d="M493.915 191.816C493.915 189.731 495.722 188.062 497.668 188.201C499.754 188.201 501.422 190.009 501.283 191.955C501.283 194.04 499.476 195.708 497.529 195.569C495.583 195.569 493.915 193.901 493.915 191.816Z" fill="#662185"/>
</g>
</g>
</g>
</g>
<g opacity="0.4">
<g opacity="0.4">
<g opacity="0.4">
<g opacity="0.4">
<path opacity="0.4" d="M501.421 200.574C501.421 199.323 502.394 198.489 503.646 198.489C504.897 198.489 505.731 199.462 505.731 200.713C505.731 201.964 504.758 202.798 503.507 202.798C502.394 202.659 501.421 201.686 501.421 200.574Z" fill="#662185"/>
</g>
</g>
</g>
</g>
<g opacity="0.4">
<g opacity="0.4">
<g opacity="0.4">
<g opacity="0.4">
<path opacity="0.4" d="M498.502 207.107C498.919 207.107 499.336 207.524 499.336 207.941C499.336 208.358 498.919 208.775 498.502 208.775C498.085 208.775 497.668 208.358 497.668 207.941C497.668 207.524 498.085 207.107 498.502 207.107Z" fill="#662185"/>
</g>
</g>
</g>
</g>
</svg>
